# Tiled2Unity generated file. Do not modify by hand.
# Wavefront file for 'Crossroad_mesh_0002.obj'

# Vertices (Count = 144)
v -4 -1 0
v -5 -1 0
v -5 0 0
v -4 0 0
v -7 -1 0
v -8 -1 0
v -8 0 0
v -7 0 0
v -4 -2 0
v -5 -2 0
v -5 -1 0
v -4 -1 0
v -7 -2 0
v -8 -2 0
v -8 -1 0
v -7 -1 0
v -4 -3 0
v -5 -3 0
v -5 -2 0
v -4 -2 0
v -7 -3 0
v -8 -3 0
v -8 -2 0
v -7 -2 0
v -4 -4 0
v -5 -4 0
v -5 -3 0
v -4 -3 0
v -7 -4 0
v -8 -4 0
v -8 -3 0
v -7 -3 0
v 0 -5 0
v -1 -5 0
v -1 -4 0
v 0 -4 0
v -1 -5 0
v -2 -5 0
v -2 -4 0
v -1 -4 0
v -2 -5 0
v -3 -5 0
v -3 -4 0
v -2 -4 0
v -3 -5 0
v -4 -5 0
v -4 -4 0
v -3 -4 0
v -4 -5 0
v -5 -5 0
v -5 -4 0
v -4 -4 0
v -7 -5 0
v -8 -5 0
v -8 -4 0
v -7 -4 0
v -8 -5 0
v -9 -5 0
v -9 -4 0
v -8 -4 0
v -9 -5 0
v -10 -5 0
v -10 -4 0
v -9 -4 0
v -10 -5 0
v -11 -5 0
v -11 -4 0
v -10 -4 0
v -11 -5 0
v -12 -5 0
v -12 -4 0
v -11 -4 0
v 0 -8 0
v -1 -8 0
v -1 -7 0
v 0 -7 0
v -1 -8 0
v -2 -8 0
v -2 -7 0
v -1 -7 0
v -2 -8 0
v -3 -8 0
v -3 -7 0
v -2 -7 0
v -3 -8 0
v -4 -8 0
v -4 -7 0
v -3 -7 0
v -4 -8 0
v -5 -8 0
v -5 -7 0
v -4 -7 0
v -7 -8 0
v -8 -8 0
v -8 -7 0
v -7 -7 0
v -8 -8 0
v -9 -8 0
v -9 -7 0
v -8 -7 0
v -9 -8 0
v -10 -8 0
v -10 -7 0
v -9 -7 0
v -10 -8 0
v -11 -8 0
v -11 -7 0
v -10 -7 0
v -11 -8 0
v -12 -8 0
v -12 -7 0
v -11 -7 0
v -4 -9 0
v -5 -9 0
v -5 -8 0
v -4 -8 0
v -7 -9 0
v -8 -9 0
v -8 -8 0
v -7 -8 0
v -4 -10 0
v -5 -10 0
v -5 -9 0
v -4 -9 0
v -7 -10 0
v -8 -10 0
v -8 -9 0
v -7 -9 0
v -4 -11 0
v -5 -11 0
v -5 -10 0
v -4 -10 0
v -7 -11 0
v -8 -11 0
v -8 -10 0
v -7 -10 0
v -4 -12 0
v -5 -12 0
v -5 -11 0
v -4 -11 0
v -7 -12 0
v -8 -12 0
v -8 -11 0
v -7 -11 0

# Texture cooridinates (Count = 16)
vt 0.025 0.5833334
vt 0.05 0.5833334
vt 0.05 0.6111111
vt 0.025 0.6111111
vt 0.075 0.6111111
vt 0.075 0.6388889
vt 0.05 0.6388889
vt 0.075 0.5555556
vt 0.1 0.5555556
vt 0.1 0.5833334
vt 0.075 0.5833334
vt 0.025 0.5555556
vt 0.05 0.5555556
vt 0.1 0.6111111
vt 0.1 0.6388889
vt 0.025 0.6388889

# Normal
vn 0 0 -1

# Mesh description
g Crossroad_mesh_0002

# Faces
f 1/1/1 2/2/1 3/3/1 4/4/1
f 5/1/1 6/2/1 7/3/1 8/4/1
f 9/1/1 10/2/1 11/3/1 12/4/1
f 13/1/1 14/2/1 15/3/1 16/4/1
f 17/1/1 18/2/1 19/3/1 20/4/1
f 21/1/1 22/2/1 23/3/1 24/4/1
f 25/1/1 26/2/1 27/3/1 28/4/1
f 29/1/1 30/2/1 31/3/1 32/4/1
f 33/3/1 34/5/1 35/6/1 36/7/1
f 37/3/1 38/5/1 39/6/1 40/7/1
f 41/3/1 42/5/1 43/6/1 44/7/1
f 45/3/1 46/5/1 47/6/1 48/7/1
f 49/8/1 50/9/1 51/10/1 52/11/1
f 53/12/1 54/13/1 55/2/1 56/1/1
f 57/3/1 58/5/1 59/6/1 60/7/1
f 61/3/1 62/5/1 63/6/1 64/7/1
f 65/3/1 66/5/1 67/6/1 68/7/1
f 69/3/1 70/5/1 71/6/1 72/7/1
f 73/3/1 74/5/1 75/6/1 76/7/1
f 77/3/1 78/5/1 79/6/1 80/7/1
f 81/3/1 82/5/1 83/6/1 84/7/1
f 85/3/1 86/5/1 87/6/1 88/7/1
f 89/5/1 90/14/1 91/15/1 92/6/1
f 93/4/1 94/3/1 95/7/1 96/16/1
f 97/3/1 98/5/1 99/6/1 100/7/1
f 101/3/1 102/5/1 103/6/1 104/7/1
f 105/3/1 106/5/1 107/6/1 108/7/1
f 109/3/1 110/5/1 111/6/1 112/7/1
f 113/1/1 114/2/1 115/3/1 116/4/1
f 117/1/1 118/2/1 119/3/1 120/4/1
f 121/1/1 122/2/1 123/3/1 124/4/1
f 125/1/1 126/2/1 127/3/1 128/4/1
f 129/1/1 130/2/1 131/3/1 132/4/1
f 133/1/1 134/2/1 135/3/1 136/4/1
f 137/1/1 138/2/1 139/3/1 140/4/1
f 141/1/1 142/2/1 143/3/1 144/4/1

