# Tiled2Unity generated file. Do not modify by hand.
# Wavefront file for 'TraffickerCave_mesh_0005.obj'

# Vertices (Count = 708)
v -9 -1 0
v -10 -1 0
v -10 0 0
v -9 0 0
v -8 -2 0
v -9 -2 0
v -9 -1 0
v -8 -1 0
v -9 -2 0
v -10 -2 0
v -10 -1 0
v -9 -1 0
v -10 -2 0
v -11 -2 0
v -11 -1 0
v -10 -1 0
v -11 -2 0
v -12 -2 0
v -12 -1 0
v -11 -1 0
v -12 -2 0
v -13 -2 0
v -13 -1 0
v -12 -1 0
v -13 -2 0
v -14 -2 0
v -14 -1 0
v -13 -1 0
v -14 -2 0
v -15 -2 0
v -15 -1 0
v -14 -1 0
v -15 -2 0
v -16 -2 0
v -16 -1 0
v -15 -1 0
v -16 -2 0
v -17 -2 0
v -17 -1 0
v -16 -1 0
v -17 -2 0
v -18 -2 0
v -18 -1 0
v -17 -1 0
v -18 -2 0
v -19 -2 0
v -19 -1 0
v -18 -1 0
v -19 -2 0
v -20 -2 0
v -20 -1 0
v -19 -1 0
v -20 -2 0
v -21 -2 0
v -21 -1 0
v -20 -1 0
v -21 -2 0
v -22 -2 0
v -22 -1 0
v -21 -1 0
v -8 -3 0
v -9 -3 0
v -9 -2 0
v -8 -2 0
v -9 -3 0
v -10 -3 0
v -10 -2 0
v -9 -2 0
v -10 -3 0
v -11 -3 0
v -11 -2 0
v -10 -2 0
v -11 -3 0
v -12 -3 0
v -12 -2 0
v -11 -2 0
v -12 -3 0
v -13 -3 0
v -13 -2 0
v -12 -2 0
v -13 -3 0
v -14 -3 0
v -14 -2 0
v -13 -2 0
v -14 -3 0
v -15 -3 0
v -15 -2 0
v -14 -2 0
v -15 -3 0
v -16 -3 0
v -16 -2 0
v -15 -2 0
v -16 -3 0
v -17 -3 0
v -17 -2 0
v -16 -2 0
v -17 -3 0
v -18 -3 0
v -18 -2 0
v -17 -2 0
v -18 -3 0
v -19 -3 0
v -19 -2 0
v -18 -2 0
v -19 -3 0
v -20 -3 0
v -20 -2 0
v -19 -2 0
v -20 -3 0
v -21 -3 0
v -21 -2 0
v -20 -2 0
v -21 -3 0
v -22 -3 0
v -22 -2 0
v -21 -2 0
v -8 -4 0
v -9 -4 0
v -9 -3 0
v -8 -3 0
v -9 -4 0
v -10 -4 0
v -10 -3 0
v -9 -3 0
v -10 -4 0
v -11 -4 0
v -11 -3 0
v -10 -3 0
v -11 -4 0
v -12 -4 0
v -12 -3 0
v -11 -3 0
v -12 -4 0
v -13 -4 0
v -13 -3 0
v -12 -3 0
v -13 -4 0
v -14 -4 0
v -14 -3 0
v -13 -3 0
v -14 -4 0
v -15 -4 0
v -15 -3 0
v -14 -3 0
v -15 -4 0
v -16 -4 0
v -16 -3 0
v -15 -3 0
v -16 -4 0
v -17 -4 0
v -17 -3 0
v -16 -3 0
v -17 -4 0
v -18 -4 0
v -18 -3 0
v -17 -3 0
v -18 -4 0
v -19 -4 0
v -19 -3 0
v -18 -3 0
v -19 -4 0
v -20 -4 0
v -20 -3 0
v -19 -3 0
v -20 -4 0
v -21 -4 0
v -21 -3 0
v -20 -3 0
v -21 -4 0
v -22 -4 0
v -22 -3 0
v -21 -3 0
v -22 -4 0
v -23 -4 0
v -23 -3 0
v -22 -3 0
v -8 -5 0
v -9 -5 0
v -9 -4 0
v -8 -4 0
v -9 -5 0
v -10 -5 0
v -10 -4 0
v -9 -4 0
v -10 -5 0
v -11 -5 0
v -11 -4 0
v -10 -4 0
v -11 -5 0
v -12 -5 0
v -12 -4 0
v -11 -4 0
v -12 -5 0
v -13 -5 0
v -13 -4 0
v -12 -4 0
v -13 -5 0
v -14 -5 0
v -14 -4 0
v -13 -4 0
v -14 -5 0
v -15 -5 0
v -15 -4 0
v -14 -4 0
v -15 -5 0
v -16 -5 0
v -16 -4 0
v -15 -4 0
v -16 -5 0
v -17 -5 0
v -17 -4 0
v -16 -4 0
v -17 -5 0
v -18 -5 0
v -18 -4 0
v -17 -4 0
v -18 -5 0
v -19 -5 0
v -19 -4 0
v -18 -4 0
v -19 -5 0
v -20 -5 0
v -20 -4 0
v -19 -4 0
v -20 -5 0
v -21 -5 0
v -21 -4 0
v -20 -4 0
v -21 -5 0
v -22 -5 0
v -22 -4 0
v -21 -4 0
v -22 -5 0
v -23 -5 0
v -23 -4 0
v -22 -4 0
v -8 -6 0
v -9 -6 0
v -9 -5 0
v -8 -5 0
v -9 -6 0
v -10 -6 0
v -10 -5 0
v -9 -5 0
v -10 -6 0
v -11 -6 0
v -11 -5 0
v -10 -5 0
v -11 -6 0
v -12 -6 0
v -12 -5 0
v -11 -5 0
v -12 -6 0
v -13 -6 0
v -13 -5 0
v -12 -5 0
v -13 -6 0
v -14 -6 0
v -14 -5 0
v -13 -5 0
v -14 -6 0
v -15 -6 0
v -15 -5 0
v -14 -5 0
v -15 -6 0
v -16 -6 0
v -16 -5 0
v -15 -5 0
v -16 -6 0
v -17 -6 0
v -17 -5 0
v -16 -5 0
v -17 -6 0
v -18 -6 0
v -18 -5 0
v -17 -5 0
v -18 -6 0
v -19 -6 0
v -19 -5 0
v -18 -5 0
v -19 -6 0
v -20 -6 0
v -20 -5 0
v -19 -5 0
v -20 -6 0
v -21 -6 0
v -21 -5 0
v -20 -5 0
v -21 -6 0
v -22 -6 0
v -22 -5 0
v -21 -5 0
v -22 -6 0
v -23 -6 0
v -23 -5 0
v -22 -5 0
v -8 -7 0
v -9 -7 0
v -9 -6 0
v -8 -6 0
v -9 -7 0
v -10 -7 0
v -10 -6 0
v -9 -6 0
v -10 -7 0
v -11 -7 0
v -11 -6 0
v -10 -6 0
v -11 -7 0
v -12 -7 0
v -12 -6 0
v -11 -6 0
v -12 -7 0
v -13 -7 0
v -13 -6 0
v -12 -6 0
v -13 -7 0
v -14 -7 0
v -14 -6 0
v -13 -6 0
v -14 -7 0
v -15 -7 0
v -15 -6 0
v -14 -6 0
v -15 -7 0
v -16 -7 0
v -16 -6 0
v -15 -6 0
v -16 -7 0
v -17 -7 0
v -17 -6 0
v -16 -6 0
v -17 -7 0
v -18 -7 0
v -18 -6 0
v -17 -6 0
v -18 -7 0
v -19 -7 0
v -19 -6 0
v -18 -6 0
v -19 -7 0
v -20 -7 0
v -20 -6 0
v -19 -6 0
v -20 -7 0
v -21 -7 0
v -21 -6 0
v -20 -6 0
v -21 -7 0
v -22 -7 0
v -22 -6 0
v -21 -6 0
v -22 -7 0
v -23 -7 0
v -23 -6 0
v -22 -6 0
v -8 -8 0
v -9 -8 0
v -9 -7 0
v -8 -7 0
v -9 -8 0
v -10 -8 0
v -10 -7 0
v -9 -7 0
v -10 -8 0
v -11 -8 0
v -11 -7 0
v -10 -7 0
v -11 -8 0
v -12 -8 0
v -12 -7 0
v -11 -7 0
v -12 -8 0
v -13 -8 0
v -13 -7 0
v -12 -7 0
v -13 -8 0
v -14 -8 0
v -14 -7 0
v -13 -7 0
v -14 -8 0
v -15 -8 0
v -15 -7 0
v -14 -7 0
v -15 -8 0
v -16 -8 0
v -16 -7 0
v -15 -7 0
v -16 -8 0
v -17 -8 0
v -17 -7 0
v -16 -7 0
v -17 -8 0
v -18 -8 0
v -18 -7 0
v -17 -7 0
v -18 -8 0
v -19 -8 0
v -19 -7 0
v -18 -7 0
v -19 -8 0
v -20 -8 0
v -20 -7 0
v -19 -7 0
v -20 -8 0
v -21 -8 0
v -21 -7 0
v -20 -7 0
v -21 -8 0
v -22 -8 0
v -22 -7 0
v -21 -7 0
v -22 -8 0
v -23 -8 0
v -23 -7 0
v -22 -7 0
v -8 -9 0
v -9 -9 0
v -9 -8 0
v -8 -8 0
v -9 -9 0
v -10 -9 0
v -10 -8 0
v -9 -8 0
v -10 -9 0
v -11 -9 0
v -11 -8 0
v -10 -8 0
v -11 -9 0
v -12 -9 0
v -12 -8 0
v -11 -8 0
v -12 -9 0
v -13 -9 0
v -13 -8 0
v -12 -8 0
v -13 -9 0
v -14 -9 0
v -14 -8 0
v -13 -8 0
v -14 -9 0
v -15 -9 0
v -15 -8 0
v -14 -8 0
v -15 -9 0
v -16 -9 0
v -16 -8 0
v -15 -8 0
v -16 -9 0
v -17 -9 0
v -17 -8 0
v -16 -8 0
v -17 -9 0
v -18 -9 0
v -18 -8 0
v -17 -8 0
v -18 -9 0
v -19 -9 0
v -19 -8 0
v -18 -8 0
v -19 -9 0
v -20 -9 0
v -20 -8 0
v -19 -8 0
v -20 -9 0
v -21 -9 0
v -21 -8 0
v -20 -8 0
v -21 -9 0
v -22 -9 0
v -22 -8 0
v -21 -8 0
v -22 -9 0
v -23 -9 0
v -23 -8 0
v -22 -8 0
v -8 -10 0
v -9 -10 0
v -9 -9 0
v -8 -9 0
v -9 -10 0
v -10 -10 0
v -10 -9 0
v -9 -9 0
v -10 -10 0
v -11 -10 0
v -11 -9 0
v -10 -9 0
v -11 -10 0
v -12 -10 0
v -12 -9 0
v -11 -9 0
v -12 -10 0
v -13 -10 0
v -13 -9 0
v -12 -9 0
v -13 -10 0
v -14 -10 0
v -14 -9 0
v -13 -9 0
v -14 -10 0
v -15 -10 0
v -15 -9 0
v -14 -9 0
v -15 -10 0
v -16 -10 0
v -16 -9 0
v -15 -9 0
v -16 -10 0
v -17 -10 0
v -17 -9 0
v -16 -9 0
v -17 -10 0
v -18 -10 0
v -18 -9 0
v -17 -9 0
v -18 -10 0
v -19 -10 0
v -19 -9 0
v -18 -9 0
v -19 -10 0
v -20 -10 0
v -20 -9 0
v -19 -9 0
v -20 -10 0
v -21 -10 0
v -21 -9 0
v -20 -9 0
v -21 -10 0
v -22 -10 0
v -22 -9 0
v -21 -9 0
v -22 -10 0
v -23 -10 0
v -23 -9 0
v -22 -9 0
v -8 -11 0
v -9 -11 0
v -9 -10 0
v -8 -10 0
v -9 -11 0
v -10 -11 0
v -10 -10 0
v -9 -10 0
v -10 -11 0
v -11 -11 0
v -11 -10 0
v -10 -10 0
v -11 -11 0
v -12 -11 0
v -12 -10 0
v -11 -10 0
v -12 -11 0
v -13 -11 0
v -13 -10 0
v -12 -10 0
v -13 -11 0
v -14 -11 0
v -14 -10 0
v -13 -10 0
v -14 -11 0
v -15 -11 0
v -15 -10 0
v -14 -10 0
v -15 -11 0
v -16 -11 0
v -16 -10 0
v -15 -10 0
v -16 -11 0
v -17 -11 0
v -17 -10 0
v -16 -10 0
v -17 -11 0
v -18 -11 0
v -18 -10 0
v -17 -10 0
v -18 -11 0
v -19 -11 0
v -19 -10 0
v -18 -10 0
v -19 -11 0
v -20 -11 0
v -20 -10 0
v -19 -10 0
v -20 -11 0
v -21 -11 0
v -21 -10 0
v -20 -10 0
v -21 -11 0
v -22 -11 0
v -22 -10 0
v -21 -10 0
v -22 -11 0
v -23 -11 0
v -23 -10 0
v -22 -10 0
v -8 -12 0
v -9 -12 0
v -9 -11 0
v -8 -11 0
v -9 -12 0
v -10 -12 0
v -10 -11 0
v -9 -11 0
v -10 -12 0
v -11 -12 0
v -11 -11 0
v -10 -11 0
v -11 -12 0
v -12 -12 0
v -12 -11 0
v -11 -11 0
v -12 -12 0
v -13 -12 0
v -13 -11 0
v -12 -11 0
v -13 -12 0
v -14 -12 0
v -14 -11 0
v -13 -11 0
v -14 -12 0
v -15 -12 0
v -15 -11 0
v -14 -11 0
v -15 -12 0
v -16 -12 0
v -16 -11 0
v -15 -11 0
v -16 -12 0
v -17 -12 0
v -17 -11 0
v -16 -11 0
v -17 -12 0
v -18 -12 0
v -18 -11 0
v -17 -11 0
v -18 -12 0
v -19 -12 0
v -19 -11 0
v -18 -11 0
v -19 -12 0
v -20 -12 0
v -20 -11 0
v -19 -11 0
v -20 -12 0
v -21 -12 0
v -21 -11 0
v -20 -11 0
v -21 -12 0
v -22 -12 0
v -22 -11 0
v -21 -11 0
v -8 -13 0
v -9 -13 0
v -9 -12 0
v -8 -12 0
v -9 -13 0
v -10 -13 0
v -10 -12 0
v -9 -12 0
v -10 -13 0
v -11 -13 0
v -11 -12 0
v -10 -12 0
v -11 -13 0
v -12 -13 0
v -12 -12 0
v -11 -12 0
v -12 -13 0
v -13 -13 0
v -13 -12 0
v -12 -12 0
v -13 -13 0
v -14 -13 0
v -14 -12 0
v -13 -12 0
v -14 -13 0
v -15 -13 0
v -15 -12 0
v -14 -12 0
v -15 -13 0
v -16 -13 0
v -16 -12 0
v -15 -12 0
v -16 -13 0
v -17 -13 0
v -17 -12 0
v -16 -12 0
v -17 -13 0
v -18 -13 0
v -18 -12 0
v -17 -12 0
v -18 -13 0
v -19 -13 0
v -19 -12 0
v -18 -12 0
v -19 -13 0
v -20 -13 0
v -20 -12 0
v -19 -12 0
v -20 -13 0
v -21 -13 0
v -21 -12 0
v -20 -12 0
v -21 -13 0
v -22 -13 0
v -22 -12 0
v -21 -12 0

# Texture cooridinates (Count = 195)
vt 0 0.9219512
vt 0.07017544 0.9219512
vt 0.07017544 1
vt 0 1
vt 0.1403509 0.9219512
vt 0.1403509 1
vt 0.2105263 0.9219512
vt 0.2105263 1
vt 0.2807018 0.9219512
vt 0.2807018 1
vt 0.3508772 0.9219512
vt 0.3508772 1
vt 0.4210526 0.9219512
vt 0.4210526 1
vt 0.4912281 0.9219512
vt 0.4912281 1
vt 0.5614035 0.9219512
vt 0.5614035 1
vt 0.6315789 0.9219512
vt 0.6315789 1
vt 0.7017544 0.9219512
vt 0.7017544 1
vt 0.7719298 0.9219512
vt 0.7719298 1
vt 0.8421053 0.9219512
vt 0.8421053 1
vt 0.9122807 0.9219512
vt 0.9122807 1
vt 0.9824561 0.9219512
vt 0.9824561 1
vt 0 0.8439025
vt 0.07017544 0.8439025
vt 0.1403509 0.8439025
vt 0.2105263 0.8439025
vt 0.2807018 0.8439025
vt 0.3508772 0.8439025
vt 0.4210526 0.8439025
vt 0.4912281 0.8439025
vt 0.5614035 0.8439025
vt 0.6315789 0.8439025
vt 0.7017544 0.8439025
vt 0.7719298 0.8439025
vt 0.8421053 0.8439025
vt 0.9122807 0.8439025
vt 0.9824561 0.8439025
vt 0 0.7658536
vt 0.07017544 0.7658536
vt 0.1403509 0.7658536
vt 0.2105263 0.7658536
vt 0.2807018 0.7658536
vt 0.3508772 0.7658536
vt 0.4210526 0.7658536
vt 0.4912281 0.7658536
vt 0.5614035 0.7658536
vt 0.6315789 0.7658536
vt 0.7017544 0.7658536
vt 0.7719298 0.7658536
vt 0.8421053 0.7658536
vt 0.9122807 0.7658536
vt 0.9824561 0.7658536
vt 0 0.6878049
vt 0.07017544 0.6878049
vt 0.1403509 0.6878049
vt 0.2105263 0.6878049
vt 0.2807018 0.6878049
vt 0.3508772 0.6878049
vt 0.4210526 0.6878049
vt 0.4912281 0.6878049
vt 0.5614035 0.6878049
vt 0.6315789 0.6878049
vt 0.7017544 0.6878049
vt 0.7719298 0.6878049
vt 0.8421053 0.6878049
vt 0.9122807 0.6878049
vt 0.9824561 0.6878049
vt 0 0.6097561
vt 0.07017544 0.6097561
vt 0.1403509 0.6097561
vt 0.2105263 0.6097561
vt 0.2807018 0.6097561
vt 0.3508772 0.6097561
vt 0.4210526 0.6097561
vt 0.4912281 0.6097561
vt 0.5614035 0.6097561
vt 0.6315789 0.6097561
vt 0.7017544 0.6097561
vt 0.7719298 0.6097561
vt 0.8421053 0.6097561
vt 0.9122807 0.6097561
vt 0.9824561 0.6097561
vt 0 0.5317073
vt 0.07017544 0.5317073
vt 0.1403509 0.5317073
vt 0.2105263 0.5317073
vt 0.2807018 0.5317073
vt 0.3508772 0.5317073
vt 0.4210526 0.5317073
vt 0.4912281 0.5317073
vt 0.5614035 0.5317073
vt 0.6315789 0.5317073
vt 0.7017544 0.5317073
vt 0.7719298 0.5317073
vt 0.8421053 0.5317073
vt 0.9122807 0.5317073
vt 0.9824561 0.5317073
vt 0 0.4536585
vt 0.07017544 0.4536585
vt 0.1403509 0.4536585
vt 0.2105263 0.4536585
vt 0.2807018 0.4536585
vt 0.3508772 0.4536585
vt 0.4210526 0.4536585
vt 0.4912281 0.4536585
vt 0.5614035 0.4536585
vt 0.6315789 0.4536585
vt 0.7017544 0.4536585
vt 0.7719298 0.4536585
vt 0.8421053 0.4536585
vt 0.9122807 0.4536585
vt 0.9824561 0.4536585
vt 0 0.3756098
vt 0.07017544 0.3756098
vt 0.1403509 0.3756098
vt 0.2105263 0.3756098
vt 0.2807018 0.3756098
vt 0.3508772 0.3756098
vt 0.4210526 0.3756098
vt 0.4912281 0.3756098
vt 0.5614035 0.3756098
vt 0.6315789 0.3756098
vt 0.7017544 0.3756098
vt 0.7719298 0.3756098
vt 0.8421053 0.3756098
vt 0.9122807 0.3756098
vt 0.9824561 0.3756098
vt 0 0.297561
vt 0.07017544 0.297561
vt 0.1403509 0.297561
vt 0.2105263 0.297561
vt 0.2807018 0.297561
vt 0.3508772 0.297561
vt 0.4210526 0.297561
vt 0.4912281 0.297561
vt 0.5614035 0.297561
vt 0.6315789 0.297561
vt 0.7017544 0.297561
vt 0.7719298 0.297561
vt 0.8421053 0.297561
vt 0.9122807 0.297561
vt 0.9824561 0.297561
vt 0 0.2195122
vt 0.07017544 0.2195122
vt 0.1403509 0.2195122
vt 0.2105263 0.2195122
vt 0.2807018 0.2195122
vt 0.3508772 0.2195122
vt 0.4210526 0.2195122
vt 0.4912281 0.2195122
vt 0.5614035 0.2195122
vt 0.6315789 0.2195122
vt 0.7017544 0.2195122
vt 0.7719298 0.2195122
vt 0.8421053 0.2195122
vt 0.9122807 0.2195122
vt 0.9824561 0.2195122
vt 0 0.1414634
vt 0.07017544 0.1414634
vt 0.1403509 0.1414634
vt 0.2105263 0.1414634
vt 0.2807018 0.1414634
vt 0.3508772 0.1414634
vt 0.4210526 0.1414634
vt 0.4912281 0.1414634
vt 0.5614035 0.1414634
vt 0.6315789 0.1414634
vt 0.7017544 0.1414634
vt 0.7719298 0.1414634
vt 0.8421053 0.1414634
vt 0.9122807 0.1414634
vt 0.9824561 0.1414634
vt 0 0.06341463
vt 0.07017544 0.06341463
vt 0.1403509 0.06341463
vt 0.2105263 0.06341463
vt 0.2807018 0.06341463
vt 0.3508772 0.06341463
vt 0.4210526 0.06341463
vt 0.4912281 0.06341463
vt 0.5614035 0.06341463
vt 0.6315789 0.06341463
vt 0.7017544 0.06341463
vt 0.7719298 0.06341463
vt 0.8421053 0.06341463
vt 0.9122807 0.06341463
vt 0.9824561 0.06341463

# Normal
vn 0 0 -1

# Mesh description
g TraffickerCave_mesh_0005

# Faces
f 1/1/1 2/2/1 3/3/1 4/4/1
f 5/1/1 6/2/1 7/3/1 8/4/1
f 9/2/1 10/5/1 11/6/1 12/3/1
f 13/5/1 14/7/1 15/8/1 16/6/1
f 17/7/1 18/9/1 19/10/1 20/8/1
f 21/9/1 22/11/1 23/12/1 24/10/1
f 25/11/1 26/13/1 27/14/1 28/12/1
f 29/13/1 30/15/1 31/16/1 32/14/1
f 33/15/1 34/17/1 35/18/1 36/16/1
f 37/17/1 38/19/1 39/20/1 40/18/1
f 41/19/1 42/21/1 43/22/1 44/20/1
f 45/21/1 46/23/1 47/24/1 48/22/1
f 49/23/1 50/25/1 51/26/1 52/24/1
f 53/25/1 54/27/1 55/28/1 56/26/1
f 57/27/1 58/29/1 59/30/1 60/28/1
f 61/31/1 62/32/1 63/2/1 64/1/1
f 65/32/1 66/33/1 67/5/1 68/2/1
f 69/33/1 70/34/1 71/7/1 72/5/1
f 73/34/1 74/35/1 75/9/1 76/7/1
f 77/35/1 78/36/1 79/11/1 80/9/1
f 81/36/1 82/37/1 83/13/1 84/11/1
f 85/37/1 86/38/1 87/15/1 88/13/1
f 89/38/1 90/39/1 91/17/1 92/15/1
f 93/39/1 94/40/1 95/19/1 96/17/1
f 97/40/1 98/41/1 99/21/1 100/19/1
f 101/41/1 102/42/1 103/23/1 104/21/1
f 105/42/1 106/43/1 107/25/1 108/23/1
f 109/43/1 110/44/1 111/27/1 112/25/1
f 113/44/1 114/45/1 115/29/1 116/27/1
f 117/46/1 118/47/1 119/32/1 120/31/1
f 121/47/1 122/48/1 123/33/1 124/32/1
f 125/48/1 126/49/1 127/34/1 128/33/1
f 129/49/1 130/50/1 131/35/1 132/34/1
f 133/50/1 134/51/1 135/36/1 136/35/1
f 137/51/1 138/52/1 139/37/1 140/36/1
f 141/52/1 142/53/1 143/38/1 144/37/1
f 145/53/1 146/54/1 147/39/1 148/38/1
f 149/54/1 150/55/1 151/40/1 152/39/1
f 153/55/1 154/56/1 155/41/1 156/40/1
f 157/56/1 158/57/1 159/42/1 160/41/1
f 161/57/1 162/58/1 163/43/1 164/42/1
f 165/58/1 166/59/1 167/44/1 168/43/1
f 169/59/1 170/60/1 171/45/1 172/44/1
f 173/59/1 174/60/1 175/45/1 176/44/1
f 177/61/1 178/62/1 179/47/1 180/46/1
f 181/62/1 182/63/1 183/48/1 184/47/1
f 185/63/1 186/64/1 187/49/1 188/48/1
f 189/64/1 190/65/1 191/50/1 192/49/1
f 193/65/1 194/66/1 195/51/1 196/50/1
f 197/66/1 198/67/1 199/52/1 200/51/1
f 201/67/1 202/68/1 203/53/1 204/52/1
f 205/68/1 206/69/1 207/54/1 208/53/1
f 209/69/1 210/70/1 211/55/1 212/54/1
f 213/70/1 214/71/1 215/56/1 216/55/1
f 217/71/1 218/72/1 219/57/1 220/56/1
f 221/72/1 222/73/1 223/58/1 224/57/1
f 225/73/1 226/74/1 227/59/1 228/58/1
f 229/74/1 230/75/1 231/60/1 232/59/1
f 233/74/1 234/75/1 235/60/1 236/59/1
f 237/76/1 238/77/1 239/62/1 240/61/1
f 241/77/1 242/78/1 243/63/1 244/62/1
f 245/78/1 246/79/1 247/64/1 248/63/1
f 249/79/1 250/80/1 251/65/1 252/64/1
f 253/80/1 254/81/1 255/66/1 256/65/1
f 257/81/1 258/82/1 259/67/1 260/66/1
f 261/82/1 262/83/1 263/68/1 264/67/1
f 265/83/1 266/84/1 267/69/1 268/68/1
f 269/84/1 270/85/1 271/70/1 272/69/1
f 273/85/1 274/86/1 275/71/1 276/70/1
f 277/86/1 278/87/1 279/72/1 280/71/1
f 281/87/1 282/88/1 283/73/1 284/72/1
f 285/88/1 286/89/1 287/74/1 288/73/1
f 289/89/1 290/90/1 291/75/1 292/74/1
f 293/89/1 294/90/1 295/75/1 296/74/1
f 297/91/1 298/92/1 299/77/1 300/76/1
f 301/92/1 302/93/1 303/78/1 304/77/1
f 305/93/1 306/94/1 307/79/1 308/78/1
f 309/94/1 310/95/1 311/80/1 312/79/1
f 313/95/1 314/96/1 315/81/1 316/80/1
f 317/96/1 318/97/1 319/82/1 320/81/1
f 321/97/1 322/98/1 323/83/1 324/82/1
f 325/98/1 326/99/1 327/84/1 328/83/1
f 329/99/1 330/100/1 331/85/1 332/84/1
f 333/100/1 334/101/1 335/86/1 336/85/1
f 337/101/1 338/102/1 339/87/1 340/86/1
f 341/102/1 342/103/1 343/88/1 344/87/1
f 345/103/1 346/104/1 347/89/1 348/88/1
f 349/104/1 350/105/1 351/90/1 352/89/1
f 353/104/1 354/105/1 355/90/1 356/89/1
f 357/106/1 358/107/1 359/92/1 360/91/1
f 361/107/1 362/108/1 363/93/1 364/92/1
f 365/108/1 366/109/1 367/94/1 368/93/1
f 369/109/1 370/110/1 371/95/1 372/94/1
f 373/110/1 374/111/1 375/96/1 376/95/1
f 377/111/1 378/112/1 379/97/1 380/96/1
f 381/112/1 382/113/1 383/98/1 384/97/1
f 385/113/1 386/114/1 387/99/1 388/98/1
f 389/114/1 390/115/1 391/100/1 392/99/1
f 393/115/1 394/116/1 395/101/1 396/100/1
f 397/116/1 398/117/1 399/102/1 400/101/1
f 401/117/1 402/118/1 403/103/1 404/102/1
f 405/118/1 406/119/1 407/104/1 408/103/1
f 409/119/1 410/120/1 411/105/1 412/104/1
f 413/119/1 414/120/1 415/105/1 416/104/1
f 417/121/1 418/122/1 419/107/1 420/106/1
f 421/122/1 422/123/1 423/108/1 424/107/1
f 425/123/1 426/124/1 427/109/1 428/108/1
f 429/124/1 430/125/1 431/110/1 432/109/1
f 433/125/1 434/126/1 435/111/1 436/110/1
f 437/126/1 438/127/1 439/112/1 440/111/1
f 441/127/1 442/128/1 443/113/1 444/112/1
f 445/128/1 446/129/1 447/114/1 448/113/1
f 449/129/1 450/130/1 451/115/1 452/114/1
f 453/130/1 454/131/1 455/116/1 456/115/1
f 457/131/1 458/132/1 459/117/1 460/116/1
f 461/132/1 462/133/1 463/118/1 464/117/1
f 465/133/1 466/134/1 467/119/1 468/118/1
f 469/134/1 470/135/1 471/120/1 472/119/1
f 473/134/1 474/135/1 475/120/1 476/119/1
f 477/136/1 478/137/1 479/122/1 480/121/1
f 481/137/1 482/138/1 483/123/1 484/122/1
f 485/138/1 486/139/1 487/124/1 488/123/1
f 489/139/1 490/140/1 491/125/1 492/124/1
f 493/140/1 494/141/1 495/126/1 496/125/1
f 497/141/1 498/142/1 499/127/1 500/126/1
f 501/142/1 502/143/1 503/128/1 504/127/1
f 505/143/1 506/144/1 507/129/1 508/128/1
f 509/144/1 510/145/1 511/130/1 512/129/1
f 513/145/1 514/146/1 515/131/1 516/130/1
f 517/146/1 518/147/1 519/132/1 520/131/1
f 521/147/1 522/148/1 523/133/1 524/132/1
f 525/148/1 526/149/1 527/134/1 528/133/1
f 529/149/1 530/150/1 531/135/1 532/134/1
f 533/149/1 534/150/1 535/135/1 536/134/1
f 537/151/1 538/152/1 539/137/1 540/136/1
f 541/152/1 542/153/1 543/138/1 544/137/1
f 545/153/1 546/154/1 547/139/1 548/138/1
f 549/154/1 550/155/1 551/140/1 552/139/1
f 553/155/1 554/156/1 555/141/1 556/140/1
f 557/156/1 558/157/1 559/142/1 560/141/1
f 561/157/1 562/158/1 563/143/1 564/142/1
f 565/158/1 566/159/1 567/144/1 568/143/1
f 569/159/1 570/160/1 571/145/1 572/144/1
f 573/160/1 574/161/1 575/146/1 576/145/1
f 577/161/1 578/162/1 579/147/1 580/146/1
f 581/162/1 582/163/1 583/148/1 584/147/1
f 585/163/1 586/164/1 587/149/1 588/148/1
f 589/164/1 590/165/1 591/150/1 592/149/1
f 593/164/1 594/165/1 595/150/1 596/149/1
f 597/166/1 598/167/1 599/152/1 600/151/1
f 601/167/1 602/168/1 603/153/1 604/152/1
f 605/168/1 606/169/1 607/154/1 608/153/1
f 609/169/1 610/170/1 611/155/1 612/154/1
f 613/170/1 614/171/1 615/156/1 616/155/1
f 617/171/1 618/172/1 619/157/1 620/156/1
f 621/172/1 622/173/1 623/158/1 624/157/1
f 625/173/1 626/174/1 627/159/1 628/158/1
f 629/174/1 630/175/1 631/160/1 632/159/1
f 633/175/1 634/176/1 635/161/1 636/160/1
f 637/176/1 638/177/1 639/162/1 640/161/1
f 641/177/1 642/178/1 643/163/1 644/162/1
f 645/178/1 646/179/1 647/164/1 648/163/1
f 649/179/1 650/180/1 651/165/1 652/164/1
f 653/181/1 654/182/1 655/167/1 656/166/1
f 657/182/1 658/183/1 659/168/1 660/167/1
f 661/183/1 662/184/1 663/169/1 664/168/1
f 665/184/1 666/185/1 667/170/1 668/169/1
f 669/185/1 670/186/1 671/171/1 672/170/1
f 673/186/1 674/187/1 675/172/1 676/171/1
f 677/187/1 678/188/1 679/173/1 680/172/1
f 681/188/1 682/189/1 683/174/1 684/173/1
f 685/189/1 686/190/1 687/175/1 688/174/1
f 689/190/1 690/191/1 691/176/1 692/175/1
f 693/191/1 694/192/1 695/177/1 696/176/1
f 697/192/1 698/193/1 699/178/1 700/177/1
f 701/193/1 702/194/1 703/179/1 704/178/1
f 705/194/1 706/195/1 707/180/1 708/179/1

