# Tiled2Unity generated file. Do not modify by hand.
# Wavefront file for 'TraffickerCave_mesh_0007.obj'

# Vertices (Count = 80)
v -6 -28 0
v -7 -28 0
v -7 -27 0
v -6 -27 0
v -7 -28 0
v -8 -28 0
v -8 -27 0
v -7 -27 0
v -24 -28 0
v -25 -28 0
v -25 -27 0
v -24 -27 0
v -25 -28 0
v -26 -28 0
v -26 -27 0
v -25 -27 0
v -6 -29 0
v -7 -29 0
v -7 -28 0
v -6 -28 0
v -7 -29 0
v -8 -29 0
v -8 -28 0
v -7 -28 0
v -24 -29 0
v -25 -29 0
v -25 -28 0
v -24 -28 0
v -25 -29 0
v -26 -29 0
v -26 -28 0
v -25 -28 0
v -6 -30 0
v -7 -30 0
v -7 -29 0
v -6 -29 0
v -7 -30 0
v -8 -30 0
v -8 -29 0
v -7 -29 0
v -24 -30 0
v -25 -30 0
v -25 -29 0
v -24 -29 0
v -25 -30 0
v -26 -30 0
v -26 -29 0
v -25 -29 0
v -6 -31 0
v -7 -31 0
v -7 -30 0
v -6 -30 0
v -7 -31 0
v -8 -31 0
v -8 -30 0
v -7 -30 0
v -24 -31 0
v -25 -31 0
v -25 -30 0
v -24 -30 0
v -25 -31 0
v -26 -31 0
v -26 -30 0
v -25 -30 0
v -27 -37 0
v -28 -37 0
v -28 -36 0
v -27 -36 0
v -28 -37 0
v -29 -37 0
v -29 -36 0
v -28 -36 0
v -27 -38 0
v -28 -38 0
v -28 -37 0
v -27 -37 0
v -28 -38 0
v -29 -38 0
v -29 -37 0
v -28 -37 0

# Texture cooridinates (Count = 24)
vt 0.5 0.96875
vt 0.53125 0.96875
vt 0.53125 1
vt 0.5 1
vt 0.5625 0.96875
vt 0.5625 1
vt 0.5 0.9375
vt 0.53125 0.9375
vt 0.5625 0.9375
vt 0.5 0.90625
vt 0.53125 0.90625
vt 0.5625 0.90625
vt 0.5 0.875
vt 0.53125 0.875
vt 0.5625 0.875
vt 0.75 0.71875
vt 0.78125 0.71875
vt 0.78125 0.75
vt 0.75 0.75
vt 0.8125 0.71875
vt 0.8125 0.75
vt 0.75 0.6875
vt 0.78125 0.6875
vt 0.8125 0.6875

# Normal
vn 0 0 -1

# Mesh description
g TraffickerCave_mesh_0007

# Faces
f 1/1/1 2/2/1 3/3/1 4/4/1
f 5/2/1 6/5/1 7/6/1 8/3/1
f 9/1/1 10/2/1 11/3/1 12/4/1
f 13/2/1 14/5/1 15/6/1 16/3/1
f 17/7/1 18/8/1 19/2/1 20/1/1
f 21/8/1 22/9/1 23/5/1 24/2/1
f 25/7/1 26/8/1 27/2/1 28/1/1
f 29/8/1 30/9/1 31/5/1 32/2/1
f 33/10/1 34/11/1 35/8/1 36/7/1
f 37/11/1 38/12/1 39/9/1 40/8/1
f 41/10/1 42/11/1 43/8/1 44/7/1
f 45/11/1 46/12/1 47/9/1 48/8/1
f 49/13/1 50/14/1 51/11/1 52/10/1
f 53/14/1 54/15/1 55/12/1 56/11/1
f 57/13/1 58/14/1 59/11/1 60/10/1
f 61/14/1 62/15/1 63/12/1 64/11/1
f 65/16/1 66/17/1 67/18/1 68/19/1
f 69/17/1 70/20/1 71/21/1 72/18/1
f 73/22/1 74/23/1 75/17/1 76/16/1
f 77/23/1 78/24/1 79/20/1 80/17/1

