# Tiled2Unity generated file. Do not modify by hand.
# Wavefront file for 'Market_mesh_0013.obj'

# Vertices (Count = 224)
v -17 -12 0
v -18 -12 0
v -18 -11 0
v -17 -11 0
v -18 -12 0
v -19 -12 0
v -19 -11 0
v -18 -11 0
v -19 -12 0
v -20 -12 0
v -20 -11 0
v -19 -11 0
v -20 -12 0
v -21 -12 0
v -21 -11 0
v -20 -11 0
v -17 -13 0
v -18 -13 0
v -18 -12 0
v -17 -12 0
v -18 -13 0
v -19 -13 0
v -19 -12 0
v -18 -12 0
v -19 -13 0
v -20 -13 0
v -20 -12 0
v -19 -12 0
v -20 -13 0
v -21 -13 0
v -21 -12 0
v -20 -12 0
v -27 -13 0
v -28 -13 0
v -28 -12 0
v -27 -12 0
v -28 -13 0
v -29 -13 0
v -29 -12 0
v -28 -12 0
v -37 -13 0
v -38 -13 0
v -38 -12 0
v -37 -12 0
v -38 -13 0
v -39 -13 0
v -39 -12 0
v -38 -12 0
v -46 -13 0
v -47 -13 0
v -47 -12 0
v -46 -12 0
v -47 -13 0
v -48 -13 0
v -48 -12 0
v -47 -12 0
v -48 -13 0
v -49 -13 0
v -49 -12 0
v -48 -12 0
v -49 -13 0
v -50 -13 0
v -50 -12 0
v -49 -12 0
v -17 -14 0
v -18 -14 0
v -18 -13 0
v -17 -13 0
v -18 -14 0
v -19 -14 0
v -19 -13 0
v -18 -13 0
v -19 -14 0
v -20 -14 0
v -20 -13 0
v -19 -13 0
v -20 -14 0
v -21 -14 0
v -21 -13 0
v -20 -13 0
v -23 -14 0
v -24 -14 0
v -24 -13 0
v -23 -13 0
v -24 -14 0
v -25 -14 0
v -25 -13 0
v -24 -13 0
v -27 -14 0
v -28 -14 0
v -28 -13 0
v -27 -13 0
v -28 -14 0
v -29 -14 0
v -29 -13 0
v -28 -13 0
v -34 -14 0
v -35 -14 0
v -35 -13 0
v -34 -13 0
v -35 -14 0
v -36 -14 0
v -36 -13 0
v -35 -13 0
v -37 -14 0
v -38 -14 0
v -38 -13 0
v -37 -13 0
v -38 -14 0
v -39 -14 0
v -39 -13 0
v -38 -13 0
v -46 -14 0
v -47 -14 0
v -47 -13 0
v -46 -13 0
v -47 -14 0
v -48 -14 0
v -48 -13 0
v -47 -13 0
v -48 -14 0
v -49 -14 0
v -49 -13 0
v -48 -13 0
v -49 -14 0
v -50 -14 0
v -50 -13 0
v -49 -13 0
v -17 -15 0
v -18 -15 0
v -18 -14 0
v -17 -14 0
v -18 -15 0
v -19 -15 0
v -19 -14 0
v -18 -14 0
v -19 -15 0
v -20 -15 0
v -20 -14 0
v -19 -14 0
v -20 -15 0
v -21 -15 0
v -21 -14 0
v -20 -14 0
v -23 -15 0
v -24 -15 0
v -24 -14 0
v -23 -14 0
v -24 -15 0
v -25 -15 0
v -25 -14 0
v -24 -14 0
v -27 -15 0
v -28 -15 0
v -28 -14 0
v -27 -14 0
v -28 -15 0
v -29 -15 0
v -29 -14 0
v -28 -14 0
v -34 -15 0
v -35 -15 0
v -35 -14 0
v -34 -14 0
v -35 -15 0
v -36 -15 0
v -36 -14 0
v -35 -14 0
v -37 -15 0
v -38 -15 0
v -38 -14 0
v -37 -14 0
v -38 -15 0
v -39 -15 0
v -39 -14 0
v -38 -14 0
v -46 -15 0
v -47 -15 0
v -47 -14 0
v -46 -14 0
v -47 -15 0
v -48 -15 0
v -48 -14 0
v -47 -14 0
v -48 -15 0
v -49 -15 0
v -49 -14 0
v -48 -14 0
v -49 -15 0
v -50 -15 0
v -50 -14 0
v -49 -14 0
v -27 -16 0
v -28 -16 0
v -28 -15 0
v -27 -15 0
v -28 -16 0
v -29 -16 0
v -29 -15 0
v -28 -15 0
v -37 -16 0
v -38 -16 0
v -38 -15 0
v -37 -15 0
v -38 -16 0
v -39 -16 0
v -39 -15 0
v -38 -15 0
v -46 -16 0
v -47 -16 0
v -47 -15 0
v -46 -15 0
v -47 -16 0
v -48 -16 0
v -48 -15 0
v -47 -15 0
v -48 -16 0
v -49 -16 0
v -49 -15 0
v -48 -15 0
v -49 -16 0
v -50 -16 0
v -50 -15 0
v -49 -15 0

# Texture cooridinates (Count = 98)
vt 0.1875 0.96875
vt 0.21875 0.96875
vt 0.21875 1
vt 0.1875 1
vt 0.25 0.96875
vt 0.25 1
vt 0.28125 0.96875
vt 0.28125 1
vt 0.3125 0.96875
vt 0.3125 1
vt 0.1875 0.9375
vt 0.21875 0.9375
vt 0.25 0.9375
vt 0.28125 0.9375
vt 0.3125 0.9375
vt 0.1875 0.46875
vt 0.21875 0.46875
vt 0.21875 0.5
vt 0.1875 0.5
vt 0.25 0.46875
vt 0.25 0.5
vt 0.4375 0.15625
vt 0.46875 0.15625
vt 0.46875 0.1875
vt 0.4375 0.1875
vt 0.5 0.15625
vt 0.5 0.1875
vt 0.75 0.09375
vt 0.78125 0.09375
vt 0.78125 0.125
vt 0.75 0.125
vt 0.8125 0.09375
vt 0.8125 0.125
vt 0.84375 0.09375
vt 0.84375 0.125
vt 0.875 0.09375
vt 0.875 0.125
vt 0.1875 0.90625
vt 0.21875 0.90625
vt 0.25 0.90625
vt 0.28125 0.90625
vt 0.3125 0.90625
vt 0.9375 0.90625
vt 0.96875 0.90625
vt 0.96875 0.9375
vt 0.9375 0.9375
vt 1 0.90625
vt 1 0.9375
vt 0.1875 0.4375
vt 0.21875 0.4375
vt 0.25 0.4375
vt 0.9375 0.96875
vt 0.96875 0.96875
vt 0.96875 1
vt 0.9375 1
vt 1 0.96875
vt 1 1
vt 0.4375 0.125
vt 0.46875 0.125
vt 0.5 0.125
vt 0.75 0.0625
vt 0.78125 0.0625
vt 0.8125 0.0625
vt 0.84375 0.0625
vt 0.875 0.0625
vt 0.1875 0.875
vt 0.21875 0.875
vt 0.25 0.875
vt 0.28125 0.875
vt 0.3125 0.875
vt 0.9375 0.875
vt 0.96875 0.875
vt 1 0.875
vt 0.1875 0.40625
vt 0.21875 0.40625
vt 0.25 0.40625
vt 0.3125 0.15625
vt 0.34375 0.15625
vt 0.34375 0.1875
vt 0.3125 0.1875
vt 0.375 0.15625
vt 0.375 0.1875
vt 0.75 0.03125
vt 0.78125 0.03125
vt 0.8125 0.03125
vt 0.84375 0.03125
vt 0.875 0.03125
vt 0.1875 0.375
vt 0.21875 0.375
vt 0.25 0.375
vt 0.3125 0.125
vt 0.34375 0.125
vt 0.375 0.125
vt 0.75 0
vt 0.78125 0
vt 0.8125 0
vt 0.84375 0
vt 0.875 0

# Normal
vn 0 0 -1

# Mesh description
g Market_mesh_0013

# Faces
f 1/1/1 2/2/1 3/3/1 4/4/1
f 5/2/1 6/5/1 7/6/1 8/3/1
f 9/5/1 10/7/1 11/8/1 12/6/1
f 13/7/1 14/9/1 15/10/1 16/8/1
f 17/11/1 18/12/1 19/2/1 20/1/1
f 21/12/1 22/13/1 23/5/1 24/2/1
f 25/13/1 26/14/1 27/7/1 28/5/1
f 29/14/1 30/15/1 31/9/1 32/7/1
f 33/16/1 34/17/1 35/18/1 36/19/1
f 37/17/1 38/20/1 39/21/1 40/18/1
f 41/22/1 42/23/1 43/24/1 44/25/1
f 45/23/1 46/26/1 47/27/1 48/24/1
f 49/28/1 50/29/1 51/30/1 52/31/1
f 53/29/1 54/32/1 55/33/1 56/30/1
f 57/32/1 58/34/1 59/35/1 60/33/1
f 61/34/1 62/36/1 63/37/1 64/35/1
f 65/38/1 66/39/1 67/12/1 68/11/1
f 69/39/1 70/40/1 71/13/1 72/12/1
f 73/40/1 74/41/1 75/14/1 76/13/1
f 77/41/1 78/42/1 79/15/1 80/14/1
f 81/43/1 82/44/1 83/45/1 84/46/1
f 85/44/1 86/47/1 87/48/1 88/45/1
f 89/49/1 90/50/1 91/17/1 92/16/1
f 93/50/1 94/51/1 95/20/1 96/17/1
f 97/52/1 98/53/1 99/54/1 100/55/1
f 101/53/1 102/56/1 103/57/1 104/54/1
f 105/58/1 106/59/1 107/23/1 108/22/1
f 109/59/1 110/60/1 111/26/1 112/23/1
f 113/61/1 114/62/1 115/29/1 116/28/1
f 117/62/1 118/63/1 119/32/1 120/29/1
f 121/63/1 122/64/1 123/34/1 124/32/1
f 125/64/1 126/65/1 127/36/1 128/34/1
f 129/66/1 130/67/1 131/39/1 132/38/1
f 133/67/1 134/68/1 135/40/1 136/39/1
f 137/68/1 138/69/1 139/41/1 140/40/1
f 141/69/1 142/70/1 143/42/1 144/41/1
f 145/71/1 146/72/1 147/44/1 148/43/1
f 149/72/1 150/73/1 151/47/1 152/44/1
f 153/74/1 154/75/1 155/50/1 156/49/1
f 157/75/1 158/76/1 159/51/1 160/50/1
f 161/46/1 162/45/1 163/53/1 164/52/1
f 165/45/1 166/48/1 167/56/1 168/53/1
f 169/77/1 170/78/1 171/79/1 172/80/1
f 173/78/1 174/81/1 175/82/1 176/79/1
f 177/83/1 178/84/1 179/62/1 180/61/1
f 181/84/1 182/85/1 183/63/1 184/62/1
f 185/85/1 186/86/1 187/64/1 188/63/1
f 189/86/1 190/87/1 191/65/1 192/64/1
f 193/88/1 194/89/1 195/75/1 196/74/1
f 197/89/1 198/90/1 199/76/1 200/75/1
f 201/91/1 202/92/1 203/78/1 204/77/1
f 205/92/1 206/93/1 207/81/1 208/78/1
f 209/94/1 210/95/1 211/84/1 212/83/1
f 213/95/1 214/96/1 215/85/1 216/84/1
f 217/96/1 218/97/1 219/86/1 220/85/1
f 221/97/1 222/98/1 223/87/1 224/86/1

