# Tiled2Unity generated file. Do not modify by hand.
# Wavefront file for 'Market_mesh_0022.obj'

# Vertices (Count = 32)
v -13 -20 0
v -14 -20 0
v -14 -19 0
v -13 -19 0
v -14 -20 0
v -15 -20 0
v -15 -19 0
v -14 -19 0
v -15 -20 0
v -16 -20 0
v -16 -19 0
v -15 -19 0
v -16 -20 0
v -17 -20 0
v -17 -19 0
v -16 -19 0
v -13 -21 0
v -14 -21 0
v -14 -20 0
v -13 -20 0
v -14 -21 0
v -15 -21 0
v -15 -20 0
v -14 -20 0
v -15 -21 0
v -16 -21 0
v -16 -20 0
v -15 -20 0
v -16 -21 0
v -17 -21 0
v -17 -20 0
v -16 -20 0

# Texture cooridinates (Count = 15)
vt 0.625 0.71875
vt 0.65625 0.71875
vt 0.65625 0.75
vt 0.625 0.75
vt 0.6875 0.71875
vt 0.6875 0.75
vt 0.71875 0.71875
vt 0.71875 0.75
vt 0.75 0.71875
vt 0.75 0.75
vt 0.625 0.6875
vt 0.65625 0.6875
vt 0.6875 0.6875
vt 0.71875 0.6875
vt 0.75 0.6875

# Normal
vn 0 0 -1

# Mesh description
g Market_mesh_0022

# Faces
f 1/1/1 2/2/1 3/3/1 4/4/1
f 5/2/1 6/5/1 7/6/1 8/3/1
f 9/5/1 10/7/1 11/8/1 12/6/1
f 13/7/1 14/9/1 15/10/1 16/8/1
f 17/11/1 18/12/1 19/2/1 20/1/1
f 21/12/1 22/13/1 23/5/1 24/2/1
f 25/13/1 26/14/1 27/7/1 28/5/1
f 29/14/1 30/15/1 31/9/1 32/7/1

