# Tiled2Unity generated file. Do not modify by hand.
# Wavefront file for 'Market_mesh_0028.obj'

# Vertices (Count = 844)
v -51 -27 0
v -52 -27 0
v -52 -26 0
v -51 -26 0
v -52 -27 0
v -53 -27 0
v -53 -26 0
v -52 -26 0
v -53 -27 0
v -54 -27 0
v -54 -26 0
v -53 -26 0
v -54 -27 0
v -55 -27 0
v -55 -26 0
v -54 -26 0
v -55 -27 0
v -56 -27 0
v -56 -26 0
v -55 -26 0
v -56 -27 0
v -57 -27 0
v -57 -26 0
v -56 -26 0
v -51 -28 0
v -52 -28 0
v -52 -27 0
v -51 -27 0
v -52 -28 0
v -53 -28 0
v -53 -27 0
v -52 -27 0
v -53 -28 0
v -54 -28 0
v -54 -27 0
v -53 -27 0
v -54 -28 0
v -55 -28 0
v -55 -27 0
v -54 -27 0
v -55 -28 0
v -56 -28 0
v -56 -27 0
v -55 -27 0
v -56 -28 0
v -57 -28 0
v -57 -27 0
v -56 -27 0
v -51 -29 0
v -52 -29 0
v -52 -28 0
v -51 -28 0
v -52 -29 0
v -53 -29 0
v -53 -28 0
v -52 -28 0
v -53 -29 0
v -54 -29 0
v -54 -28 0
v -53 -28 0
v -54 -29 0
v -55 -29 0
v -55 -28 0
v -54 -28 0
v -55 -29 0
v -56 -29 0
v -56 -28 0
v -55 -28 0
v -56 -29 0
v -57 -29 0
v -57 -28 0
v -56 -28 0
v -12 -30 0
v -13 -30 0
v -13 -29 0
v -12 -29 0
v -13 -30 0
v -14 -30 0
v -14 -29 0
v -13 -29 0
v -14 -30 0
v -15 -30 0
v -15 -29 0
v -14 -29 0
v -15 -30 0
v -16 -30 0
v -16 -29 0
v -15 -29 0
v -16 -30 0
v -17 -30 0
v -17 -29 0
v -16 -29 0
v -17 -30 0
v -18 -30 0
v -18 -29 0
v -17 -29 0
v -18 -30 0
v -19 -30 0
v -19 -29 0
v -18 -29 0
v -51 -30 0
v -52 -30 0
v -52 -29 0
v -51 -29 0
v -52 -30 0
v -53 -30 0
v -53 -29 0
v -52 -29 0
v -53 -30 0
v -54 -30 0
v -54 -29 0
v -53 -29 0
v -54 -30 0
v -55 -30 0
v -55 -29 0
v -54 -29 0
v -55 -30 0
v -56 -30 0
v -56 -29 0
v -55 -29 0
v -56 -30 0
v -57 -30 0
v -57 -29 0
v -56 -29 0
v -12 -31 0
v -13 -31 0
v -13 -30 0
v -12 -30 0
v -13 -31 0
v -14 -31 0
v -14 -30 0
v -13 -30 0
v -14 -31 0
v -15 -31 0
v -15 -30 0
v -14 -30 0
v -15 -31 0
v -16 -31 0
v -16 -30 0
v -15 -30 0
v -16 -31 0
v -17 -31 0
v -17 -30 0
v -16 -30 0
v -17 -31 0
v -18 -31 0
v -18 -30 0
v -17 -30 0
v -18 -31 0
v -19 -31 0
v -19 -30 0
v -18 -30 0
v -33 -31 0
v -34 -31 0
v -34 -30 0
v -33 -30 0
v -34 -31 0
v -35 -31 0
v -35 -30 0
v -34 -30 0
v -35 -31 0
v -36 -31 0
v -36 -30 0
v -35 -30 0
v -36 -31 0
v -37 -31 0
v -37 -30 0
v -36 -30 0
v -37 -31 0
v -38 -31 0
v -38 -30 0
v -37 -30 0
v -51 -31 0
v -52 -31 0
v -52 -30 0
v -51 -30 0
v -52 -31 0
v -53 -31 0
v -53 -30 0
v -52 -30 0
v -53 -31 0
v -54 -31 0
v -54 -30 0
v -53 -30 0
v -54 -31 0
v -55 -31 0
v -55 -30 0
v -54 -30 0
v -55 -31 0
v -56 -31 0
v -56 -30 0
v -55 -30 0
v -56 -31 0
v -57 -31 0
v -57 -30 0
v -56 -30 0
v -12 -32 0
v -13 -32 0
v -13 -31 0
v -12 -31 0
v -13 -32 0
v -14 -32 0
v -14 -31 0
v -13 -31 0
v -14 -32 0
v -15 -32 0
v -15 -31 0
v -14 -31 0
v -15 -32 0
v -16 -32 0
v -16 -31 0
v -15 -31 0
v -16 -32 0
v -17 -32 0
v -17 -31 0
v -16 -31 0
v -17 -32 0
v -18 -32 0
v -18 -31 0
v -17 -31 0
v -18 -32 0
v -19 -32 0
v -19 -31 0
v -18 -31 0
v -33 -32 0
v -34 -32 0
v -34 -31 0
v -33 -31 0
v -34 -32 0
v -35 -32 0
v -35 -31 0
v -34 -31 0
v -35 -32 0
v -36 -32 0
v -36 -31 0
v -35 -31 0
v -36 -32 0
v -37 -32 0
v -37 -31 0
v -36 -31 0
v -37 -32 0
v -38 -32 0
v -38 -31 0
v -37 -31 0
v -51 -32 0
v -52 -32 0
v -52 -31 0
v -51 -31 0
v -52 -32 0
v -53 -32 0
v -53 -31 0
v -52 -31 0
v -53 -32 0
v -54 -32 0
v -54 -31 0
v -53 -31 0
v -54 -32 0
v -55 -32 0
v -55 -31 0
v -54 -31 0
v -55 -32 0
v -56 -32 0
v -56 -31 0
v -55 -31 0
v -56 -32 0
v -57 -32 0
v -57 -31 0
v -56 -31 0
v -12 -33 0
v -13 -33 0
v -13 -32 0
v -12 -32 0
v -13 -33 0
v -14 -33 0
v -14 -32 0
v -13 -32 0
v -14 -33 0
v -15 -33 0
v -15 -32 0
v -14 -32 0
v -15 -33 0
v -16 -33 0
v -16 -32 0
v -15 -32 0
v -16 -33 0
v -17 -33 0
v -17 -32 0
v -16 -32 0
v -17 -33 0
v -18 -33 0
v -18 -32 0
v -17 -32 0
v -18 -33 0
v -19 -33 0
v -19 -32 0
v -18 -32 0
v -33 -33 0
v -34 -33 0
v -34 -32 0
v -33 -32 0
v -34 -33 0
v -35 -33 0
v -35 -32 0
v -34 -32 0
v -35 -33 0
v -36 -33 0
v -36 -32 0
v -35 -32 0
v -36 -33 0
v -37 -33 0
v -37 -32 0
v -36 -32 0
v -37 -33 0
v -38 -33 0
v -38 -32 0
v -37 -32 0
v -51 -33 0
v -52 -33 0
v -52 -32 0
v -51 -32 0
v -52 -33 0
v -53 -33 0
v -53 -32 0
v -52 -32 0
v -53 -33 0
v -54 -33 0
v -54 -32 0
v -53 -32 0
v -54 -33 0
v -55 -33 0
v -55 -32 0
v -54 -32 0
v -55 -33 0
v -56 -33 0
v -56 -32 0
v -55 -32 0
v -56 -33 0
v -57 -33 0
v -57 -32 0
v -56 -32 0
v -12 -34 0
v -13 -34 0
v -13 -33 0
v -12 -33 0
v -13 -34 0
v -14 -34 0
v -14 -33 0
v -13 -33 0
v -14 -34 0
v -15 -34 0
v -15 -33 0
v -14 -33 0
v -15 -34 0
v -16 -34 0
v -16 -33 0
v -15 -33 0
v -16 -34 0
v -17 -34 0
v -17 -33 0
v -16 -33 0
v -17 -34 0
v -18 -34 0
v -18 -33 0
v -17 -33 0
v -18 -34 0
v -19 -34 0
v -19 -33 0
v -18 -33 0
v -33 -34 0
v -34 -34 0
v -34 -33 0
v -33 -33 0
v -34 -34 0
v -35 -34 0
v -35 -33 0
v -34 -33 0
v -35 -34 0
v -36 -34 0
v -36 -33 0
v -35 -33 0
v -36 -34 0
v -37 -34 0
v -37 -33 0
v -36 -33 0
v -37 -34 0
v -38 -34 0
v -38 -33 0
v -37 -33 0
v -50 -34 0
v -51 -34 0
v -51 -33 0
v -50 -33 0
v -51 -34 0
v -52 -34 0
v -52 -33 0
v -51 -33 0
v -52 -34 0
v -53 -34 0
v -53 -33 0
v -52 -33 0
v -53 -34 0
v -54 -34 0
v -54 -33 0
v -53 -33 0
v -54 -34 0
v -55 -34 0
v -55 -33 0
v -54 -33 0
v -55 -34 0
v -56 -34 0
v -56 -33 0
v -55 -33 0
v -56 -34 0
v -57 -34 0
v -57 -33 0
v -56 -33 0
v -1 -35 0
v -2 -35 0
v -2 -34 0
v -1 -34 0
v -2 -35 0
v -3 -35 0
v -3 -34 0
v -2 -34 0
v -3 -35 0
v -4 -35 0
v -4 -34 0
v -3 -34 0
v -4 -35 0
v -5 -35 0
v -5 -34 0
v -4 -34 0
v -7 -35 0
v -8 -35 0
v -8 -34 0
v -7 -34 0
v -8 -35 0
v -9 -35 0
v -9 -34 0
v -8 -34 0
v -12 -35 0
v -13 -35 0
v -13 -34 0
v -12 -34 0
v -13 -35 0
v -14 -35 0
v -14 -34 0
v -13 -34 0
v -14 -35 0
v -15 -35 0
v -15 -34 0
v -14 -34 0
v -15 -35 0
v -16 -35 0
v -16 -34 0
v -15 -34 0
v -16 -35 0
v -17 -35 0
v -17 -34 0
v -16 -34 0
v -17 -35 0
v -18 -35 0
v -18 -34 0
v -17 -34 0
v -18 -35 0
v -19 -35 0
v -19 -34 0
v -18 -34 0
v -19 -35 0
v -20 -35 0
v -20 -34 0
v -19 -34 0
v -20 -35 0
v -21 -35 0
v -21 -34 0
v -20 -34 0
v -21 -35 0
v -22 -35 0
v -22 -34 0
v -21 -34 0
v -23 -35 0
v -24 -35 0
v -24 -34 0
v -23 -34 0
v -24 -35 0
v -25 -35 0
v -25 -34 0
v -24 -34 0
v -28 -35 0
v -29 -35 0
v -29 -34 0
v -28 -34 0
v -29 -35 0
v -30 -35 0
v -30 -34 0
v -29 -34 0
v -30 -35 0
v -31 -35 0
v -31 -34 0
v -30 -34 0
v -31 -35 0
v -32 -35 0
v -32 -34 0
v -31 -34 0
v -33 -35 0
v -34 -35 0
v -34 -34 0
v -33 -34 0
v -34 -35 0
v -35 -35 0
v -35 -34 0
v -34 -34 0
v -35 -35 0
v -36 -35 0
v -36 -34 0
v -35 -34 0
v -36 -35 0
v -37 -35 0
v -37 -34 0
v -36 -34 0
v -40 -35 0
v -41 -35 0
v -41 -34 0
v -40 -34 0
v -41 -35 0
v -42 -35 0
v -42 -34 0
v -41 -34 0
v -42 -35 0
v -43 -35 0
v -43 -34 0
v -42 -34 0
v -43 -35 0
v -44 -35 0
v -44 -34 0
v -43 -34 0
v -47 -35 0
v -48 -35 0
v -48 -34 0
v -47 -34 0
v -48 -35 0
v -49 -35 0
v -49 -34 0
v -48 -34 0
v -50 -35 0
v -51 -35 0
v -51 -34 0
v -50 -34 0
v -51 -35 0
v -52 -35 0
v -52 -34 0
v -51 -34 0
v -52 -35 0
v -53 -35 0
v -53 -34 0
v -52 -34 0
v -53 -35 0
v -54 -35 0
v -54 -34 0
v -53 -34 0
v -54 -35 0
v -55 -35 0
v -55 -34 0
v -54 -34 0
v -1 -36 0
v -2 -36 0
v -2 -35 0
v -1 -35 0
v -2 -36 0
v -3 -36 0
v -3 -35 0
v -2 -35 0
v -3 -36 0
v -4 -36 0
v -4 -35 0
v -3 -35 0
v -4 -36 0
v -5 -36 0
v -5 -35 0
v -4 -35 0
v -7 -36 0
v -8 -36 0
v -8 -35 0
v -7 -35 0
v -8 -36 0
v -9 -36 0
v -9 -35 0
v -8 -35 0
v -12 -36 0
v -13 -36 0
v -13 -35 0
v -12 -35 0
v -13 -36 0
v -14 -36 0
v -14 -35 0
v -13 -35 0
v -14 -36 0
v -15 -36 0
v -15 -35 0
v -14 -35 0
v -15 -36 0
v -16 -36 0
v -16 -35 0
v -15 -35 0
v -16 -36 0
v -17 -36 0
v -17 -35 0
v -16 -35 0
v -17 -36 0
v -18 -36 0
v -18 -35 0
v -17 -35 0
v -18 -36 0
v -19 -36 0
v -19 -35 0
v -18 -35 0
v -19 -36 0
v -20 -36 0
v -20 -35 0
v -19 -35 0
v -20 -36 0
v -21 -36 0
v -21 -35 0
v -20 -35 0
v -21 -36 0
v -22 -36 0
v -22 -35 0
v -21 -35 0
v -23 -36 0
v -24 -36 0
v -24 -35 0
v -23 -35 0
v -24 -36 0
v -25 -36 0
v -25 -35 0
v -24 -35 0
v -28 -36 0
v -29 -36 0
v -29 -35 0
v -28 -35 0
v -29 -36 0
v -30 -36 0
v -30 -35 0
v -29 -35 0
v -30 -36 0
v -31 -36 0
v -31 -35 0
v -30 -35 0
v -31 -36 0
v -32 -36 0
v -32 -35 0
v -31 -35 0
v -33 -36 0
v -34 -36 0
v -34 -35 0
v -33 -35 0
v -34 -36 0
v -35 -36 0
v -35 -35 0
v -34 -35 0
v -35 -36 0
v -36 -36 0
v -36 -35 0
v -35 -35 0
v -36 -36 0
v -37 -36 0
v -37 -35 0
v -36 -35 0
v -40 -36 0
v -41 -36 0
v -41 -35 0
v -40 -35 0
v -41 -36 0
v -42 -36 0
v -42 -35 0
v -41 -35 0
v -42 -36 0
v -43 -36 0
v -43 -35 0
v -42 -35 0
v -43 -36 0
v -44 -36 0
v -44 -35 0
v -43 -35 0
v -47 -36 0
v -48 -36 0
v -48 -35 0
v -47 -35 0
v -48 -36 0
v -49 -36 0
v -49 -35 0
v -48 -35 0
v -50 -36 0
v -51 -36 0
v -51 -35 0
v -50 -35 0
v -51 -36 0
v -52 -36 0
v -52 -35 0
v -51 -35 0
v -52 -36 0
v -53 -36 0
v -53 -35 0
v -52 -35 0
v -53 -36 0
v -54 -36 0
v -54 -35 0
v -53 -35 0
v -54 -36 0
v -55 -36 0
v -55 -35 0
v -54 -35 0
v -1 -37 0
v -2 -37 0
v -2 -36 0
v -1 -36 0
v -2 -37 0
v -3 -37 0
v -3 -36 0
v -2 -36 0
v -3 -37 0
v -4 -37 0
v -4 -36 0
v -3 -36 0
v -4 -37 0
v -5 -37 0
v -5 -36 0
v -4 -36 0
v -7 -37 0
v -8 -37 0
v -8 -36 0
v -7 -36 0
v -8 -37 0
v -9 -37 0
v -9 -36 0
v -8 -36 0
v -11 -37 0
v -12 -37 0
v -12 -36 0
v -11 -36 0
v -18 -37 0
v -19 -37 0
v -19 -36 0
v -18 -36 0
v -19 -37 0
v -20 -37 0
v -20 -36 0
v -19 -36 0
v -20 -37 0
v -21 -37 0
v -21 -36 0
v -20 -36 0
v -21 -37 0
v -22 -37 0
v -22 -36 0
v -21 -36 0
v -23 -37 0
v -24 -37 0
v -24 -36 0
v -23 -36 0
v -24 -37 0
v -25 -37 0
v -25 -36 0
v -24 -36 0
v -28 -37 0
v -29 -37 0
v -29 -36 0
v -28 -36 0
v -29 -37 0
v -30 -37 0
v -30 -36 0
v -29 -36 0
v -30 -37 0
v -31 -37 0
v -31 -36 0
v -30 -36 0
v -31 -37 0
v -32 -37 0
v -32 -36 0
v -31 -36 0
v -33 -37 0
v -34 -37 0
v -34 -36 0
v -33 -36 0
v -34 -37 0
v -35 -37 0
v -35 -36 0
v -34 -36 0
v -35 -37 0
v -36 -37 0
v -36 -36 0
v -35 -36 0
v -36 -37 0
v -37 -37 0
v -37 -36 0
v -36 -36 0
v -37 -37 0
v -38 -37 0
v -38 -36 0
v -37 -36 0
v -40 -37 0
v -41 -37 0
v -41 -36 0
v -40 -36 0
v -41 -37 0
v -42 -37 0
v -42 -36 0
v -41 -36 0
v -42 -37 0
v -43 -37 0
v -43 -36 0
v -42 -36 0
v -43 -37 0
v -44 -37 0
v -44 -36 0
v -43 -36 0
v -47 -37 0
v -48 -37 0
v -48 -36 0
v -47 -36 0
v -48 -37 0
v -49 -37 0
v -49 -36 0
v -48 -36 0
v -50 -37 0
v -51 -37 0
v -51 -36 0
v -50 -36 0
v -51 -37 0
v -52 -37 0
v -52 -36 0
v -51 -36 0
v -52 -37 0
v -53 -37 0
v -53 -36 0
v -52 -36 0
v -53 -37 0
v -54 -37 0
v -54 -36 0
v -53 -36 0
v -54 -37 0
v -55 -37 0
v -55 -36 0
v -54 -36 0

# Texture cooridinates (Count = 200)
vt 0 0.9708029
vt 0.01934704 0.9708029
vt 0.01934704 1
vt 0 1
vt 0.03869408 0.9708029
vt 0.03869408 1
vt 0.05804111 0.9708029
vt 0.05804111 1
vt 0.07738815 0.9708029
vt 0.07738815 1
vt 0.09673519 0.9708029
vt 0.09673519 1
vt 0.1160822 0.9708029
vt 0.1160822 1
vt 0 0.9416059
vt 0.01934704 0.9416059
vt 0.03869408 0.9416059
vt 0.05804111 0.9416059
vt 0.07738815 0.9416059
vt 0.09673519 0.9416059
vt 0.1160822 0.9416059
vt 0 0.9124088
vt 0.01934704 0.9124088
vt 0.03869408 0.9124088
vt 0.05804111 0.9124088
vt 0.07738815 0.9124088
vt 0.09673519 0.9124088
vt 0.1160822 0.9124088
vt 0.1160822 0.1824818
vt 0.1354293 0.1824818
vt 0.1354293 0.2116788
vt 0.1160822 0.2116788
vt 0.1547763 0.1824818
vt 0.1547763 0.2116788
vt 0.1741233 0.1824818
vt 0.1741233 0.2116788
vt 0.1934704 0.1824818
vt 0.1934704 0.2116788
vt 0.2128174 0.1824818
vt 0.2128174 0.2116788
vt 0.2321644 0.1824818
vt 0.2321644 0.2116788
vt 0.2515115 0.1824818
vt 0.2515115 0.2116788
vt 0 0.8832117
vt 0.01934704 0.8832117
vt 0.03869408 0.8832117
vt 0.05804111 0.8832117
vt 0.07738815 0.8832117
vt 0.09673519 0.8832117
vt 0.1160822 0.8832117
vt 0.1160822 0.1532847
vt 0.1354293 0.1532847
vt 0.1547763 0.1532847
vt 0.1741233 0.1532847
vt 0.1934704 0.1532847
vt 0.2128174 0.1532847
vt 0.2321644 0.1532847
vt 0.2515115 0.1532847
vt 0 0.1824818
vt 0.01934704 0.1824818
vt 0.01934704 0.2116788
vt 0 0.2116788
vt 0.03869408 0.1824818
vt 0.03869408 0.2116788
vt 0.05804111 0.1824818
vt 0.05804111 0.2116788
vt 0.07738815 0.1824818
vt 0.07738815 0.2116788
vt 0.09673519 0.1824818
vt 0.09673519 0.2116788
vt 0 0.8540146
vt 0.01934704 0.8540146
vt 0.03869408 0.8540146
vt 0.05804111 0.8540146
vt 0.07738815 0.8540146
vt 0.09673519 0.8540146
vt 0.1160822 0.8540146
vt 0.1160822 0.1240876
vt 0.1354293 0.1240876
vt 0.1547763 0.1240876
vt 0.1741233 0.1240876
vt 0.1934704 0.1240876
vt 0.2128174 0.1240876
vt 0.2321644 0.1240876
vt 0.2515115 0.1240876
vt 0 0.1532847
vt 0.01934704 0.1532847
vt 0.03869408 0.1532847
vt 0.05804111 0.1532847
vt 0.07738815 0.1532847
vt 0.09673519 0.1532847
vt 0 0.8248175
vt 0.01934704 0.8248175
vt 0.03869408 0.8248175
vt 0.05804111 0.8248175
vt 0.07738815 0.8248175
vt 0.09673519 0.8248175
vt 0.1160822 0.8248175
vt 0.1160822 0.09489053
vt 0.1354293 0.09489053
vt 0.1547763 0.09489053
vt 0.1741233 0.09489053
vt 0.1934704 0.09489053
vt 0.2128174 0.09489053
vt 0.2321644 0.09489053
vt 0.2515115 0.09489053
vt 0 0.1240876
vt 0.01934704 0.1240876
vt 0.03869408 0.1240876
vt 0.05804111 0.1240876
vt 0.07738815 0.1240876
vt 0.09673519 0.1240876
vt 0 0.7956204
vt 0.01934704 0.7956204
vt 0.03869408 0.7956204
vt 0.05804111 0.7956204
vt 0.07738815 0.7956204
vt 0.09673519 0.7956204
vt 0.1160822 0.7956204
vt 0.1160822 0.06569344
vt 0.1354293 0.06569344
vt 0.1547763 0.06569344
vt 0.1741233 0.06569344
vt 0.1934704 0.06569344
vt 0.2128174 0.06569344
vt 0.2321644 0.06569344
vt 0.2515115 0.06569344
vt 0 0.09489053
vt 0.01934704 0.09489053
vt 0.03869408 0.09489053
vt 0.05804111 0.09489053
vt 0.07738815 0.09489053
vt 0.09673519 0.09489053
vt 0 0.7664233
vt 0.01934704 0.7664233
vt 0.03869408 0.7664233
vt 0.05804111 0.7664233
vt 0.07738815 0.7664233
vt 0.09673519 0.7664233
vt 0.1160822 0.7664233
vt 0.1160822 0.5036496
vt 0.1354293 0.5036496
vt 0.1354293 0.5328467
vt 0.1160822 0.5328467
vt 0.1547763 0.5036496
vt 0.1547763 0.5328467
vt 0.1741233 0.5036496
vt 0.1741233 0.5328467
vt 0.1934704 0.5036496
vt 0.1934704 0.5328467
vt 0.2128174 0.5036496
vt 0.2128174 0.5328467
vt 0.2321644 0.5036496
vt 0.2321644 0.5328467
vt 0.1160822 0.03649634
vt 0.1354293 0.03649634
vt 0.1547763 0.03649634
vt 0.1741233 0.03649634
vt 0.1934704 0.03649634
vt 0.2128174 0.03649634
vt 0.2321644 0.03649634
vt 0 0.06569344
vt 0.01934704 0.06569344
vt 0.03869408 0.06569344
vt 0.05804111 0.06569344
vt 0.07738815 0.06569344
vt 0.1160822 0.4744526
vt 0.1354293 0.4744526
vt 0.1547763 0.4744526
vt 0.1741233 0.4744526
vt 0.1934704 0.4744526
vt 0.2128174 0.4744526
vt 0.2321644 0.4744526
vt 0.1160822 0.007299244
vt 0.1354293 0.007299244
vt 0.1547763 0.007299244
vt 0.1741233 0.007299244
vt 0.1934704 0.007299244
vt 0.2128174 0.007299244
vt 0.2321644 0.007299244
vt 0 0.03649634
vt 0.01934704 0.03649634
vt 0.03869408 0.03649634
vt 0.05804111 0.03649634
vt 0.07738815 0.03649634
vt 0.1160822 0.4452555
vt 0.1354293 0.4452555
vt 0.1547763 0.4452555
vt 0.1741233 0.4452555
vt 0.1934704 0.4452555
vt 0.2128174 0.4452555
vt 0.2321644 0.4452555
vt 0 0.007299244
vt 0.01934704 0.007299244
vt 0.03869408 0.007299244
vt 0.05804111 0.007299244
vt 0.07738815 0.007299244
vt 0.09673519 0.007299244
vt 0.09673519 0.03649634

# Normal
vn 0 0 -1

# Mesh description
g Market_mesh_0028

# Faces
f 1/1/1 2/2/1 3/3/1 4/4/1
f 5/2/1 6/5/1 7/6/1 8/3/1
f 9/5/1 10/7/1 11/8/1 12/6/1
f 13/7/1 14/9/1 15/10/1 16/8/1
f 17/9/1 18/11/1 19/12/1 20/10/1
f 21/11/1 22/13/1 23/14/1 24/12/1
f 25/15/1 26/16/1 27/2/1 28/1/1
f 29/16/1 30/17/1 31/5/1 32/2/1
f 33/17/1 34/18/1 35/7/1 36/5/1
f 37/18/1 38/19/1 39/9/1 40/7/1
f 41/19/1 42/20/1 43/11/1 44/9/1
f 45/20/1 46/21/1 47/13/1 48/11/1
f 49/22/1 50/23/1 51/16/1 52/15/1
f 53/23/1 54/24/1 55/17/1 56/16/1
f 57/24/1 58/25/1 59/18/1 60/17/1
f 61/25/1 62/26/1 63/19/1 64/18/1
f 65/26/1 66/27/1 67/20/1 68/19/1
f 69/27/1 70/28/1 71/21/1 72/20/1
f 73/29/1 74/30/1 75/31/1 76/32/1
f 77/30/1 78/33/1 79/34/1 80/31/1
f 81/33/1 82/35/1 83/36/1 84/34/1
f 85/35/1 86/37/1 87/38/1 88/36/1
f 89/37/1 90/39/1 91/40/1 92/38/1
f 93/39/1 94/41/1 95/42/1 96/40/1
f 97/41/1 98/43/1 99/44/1 100/42/1
f 101/45/1 102/46/1 103/23/1 104/22/1
f 105/46/1 106/47/1 107/24/1 108/23/1
f 109/47/1 110/48/1 111/25/1 112/24/1
f 113/48/1 114/49/1 115/26/1 116/25/1
f 117/49/1 118/50/1 119/27/1 120/26/1
f 121/50/1 122/51/1 123/28/1 124/27/1
f 125/52/1 126/53/1 127/30/1 128/29/1
f 129/53/1 130/54/1 131/33/1 132/30/1
f 133/54/1 134/55/1 135/35/1 136/33/1
f 137/55/1 138/56/1 139/37/1 140/35/1
f 141/56/1 142/57/1 143/39/1 144/37/1
f 145/57/1 146/58/1 147/41/1 148/39/1
f 149/58/1 150/59/1 151/43/1 152/41/1
f 153/60/1 154/61/1 155/62/1 156/63/1
f 157/61/1 158/64/1 159/65/1 160/62/1
f 161/64/1 162/66/1 163/67/1 164/65/1
f 165/66/1 166/68/1 167/69/1 168/67/1
f 169/68/1 170/70/1 171/71/1 172/69/1
f 173/72/1 174/73/1 175/46/1 176/45/1
f 177/73/1 178/74/1 179/47/1 180/46/1
f 181/74/1 182/75/1 183/48/1 184/47/1
f 185/75/1 186/76/1 187/49/1 188/48/1
f 189/76/1 190/77/1 191/50/1 192/49/1
f 193/77/1 194/78/1 195/51/1 196/50/1
f 197/79/1 198/80/1 199/53/1 200/52/1
f 201/80/1 202/81/1 203/54/1 204/53/1
f 205/81/1 206/82/1 207/55/1 208/54/1
f 209/82/1 210/83/1 211/56/1 212/55/1
f 213/83/1 214/84/1 215/57/1 216/56/1
f 217/84/1 218/85/1 219/58/1 220/57/1
f 221/85/1 222/86/1 223/59/1 224/58/1
f 225/87/1 226/88/1 227/61/1 228/60/1
f 229/88/1 230/89/1 231/64/1 232/61/1
f 233/89/1 234/90/1 235/66/1 236/64/1
f 237/90/1 238/91/1 239/68/1 240/66/1
f 241/91/1 242/92/1 243/70/1 244/68/1
f 245/93/1 246/94/1 247/73/1 248/72/1
f 249/94/1 250/95/1 251/74/1 252/73/1
f 253/95/1 254/96/1 255/75/1 256/74/1
f 257/96/1 258/97/1 259/76/1 260/75/1
f 261/97/1 262/98/1 263/77/1 264/76/1
f 265/98/1 266/99/1 267/78/1 268/77/1
f 269/100/1 270/101/1 271/80/1 272/79/1
f 273/101/1 274/102/1 275/81/1 276/80/1
f 277/102/1 278/103/1 279/82/1 280/81/1
f 281/103/1 282/104/1 283/83/1 284/82/1
f 285/104/1 286/105/1 287/84/1 288/83/1
f 289/105/1 290/106/1 291/85/1 292/84/1
f 293/106/1 294/107/1 295/86/1 296/85/1
f 297/108/1 298/109/1 299/88/1 300/87/1
f 301/109/1 302/110/1 303/89/1 304/88/1
f 305/110/1 306/111/1 307/90/1 308/89/1
f 309/111/1 310/112/1 311/91/1 312/90/1
f 313/112/1 314/113/1 315/92/1 316/91/1
f 317/114/1 318/115/1 319/94/1 320/93/1
f 321/115/1 322/116/1 323/95/1 324/94/1
f 325/116/1 326/117/1 327/96/1 328/95/1
f 329/117/1 330/118/1 331/97/1 332/96/1
f 333/118/1 334/119/1 335/98/1 336/97/1
f 337/119/1 338/120/1 339/99/1 340/98/1
f 341/121/1 342/122/1 343/101/1 344/100/1
f 345/122/1 346/123/1 347/102/1 348/101/1
f 349/123/1 350/124/1 351/103/1 352/102/1
f 353/124/1 354/125/1 355/104/1 356/103/1
f 357/125/1 358/126/1 359/105/1 360/104/1
f 361/126/1 362/127/1 363/106/1 364/105/1
f 365/127/1 366/128/1 367/107/1 368/106/1
f 369/129/1 370/130/1 371/109/1 372/108/1
f 373/130/1 374/131/1 375/110/1 376/109/1
f 377/131/1 378/132/1 379/111/1 380/110/1
f 381/132/1 382/133/1 383/112/1 384/111/1
f 385/133/1 386/134/1 387/113/1 388/112/1
f 389/100/1 390/101/1 391/80/1 392/79/1
f 393/135/1 394/136/1 395/115/1 396/114/1
f 397/136/1 398/137/1 399/116/1 400/115/1
f 401/137/1 402/138/1 403/117/1 404/116/1
f 405/138/1 406/139/1 407/118/1 408/117/1
f 409/139/1 410/140/1 411/119/1 412/118/1
f 413/140/1 414/141/1 415/120/1 416/119/1
f 417/142/1 418/143/1 419/144/1 420/145/1
f 421/143/1 422/146/1 423/147/1 424/144/1
f 425/146/1 426/148/1 427/149/1 428/147/1
f 429/148/1 430/150/1 431/151/1 432/149/1
f 433/150/1 434/152/1 435/153/1 436/151/1
f 437/152/1 438/154/1 439/155/1 440/153/1
f 441/156/1 442/157/1 443/122/1 444/121/1
f 445/157/1 446/158/1 447/123/1 448/122/1
f 449/158/1 450/159/1 451/124/1 452/123/1
f 453/159/1 454/160/1 455/125/1 456/124/1
f 457/160/1 458/161/1 459/126/1 460/125/1
f 461/161/1 462/162/1 463/127/1 464/126/1
f 465/142/1 466/143/1 467/144/1 468/145/1
f 469/143/1 470/146/1 471/147/1 472/144/1
f 473/146/1 474/148/1 475/149/1 476/147/1
f 477/148/1 478/150/1 479/151/1 480/149/1
f 481/150/1 482/152/1 483/153/1 484/151/1
f 485/152/1 486/154/1 487/155/1 488/153/1
f 489/142/1 490/143/1 491/144/1 492/145/1
f 493/143/1 494/146/1 495/147/1 496/144/1
f 497/146/1 498/148/1 499/149/1 500/147/1
f 501/148/1 502/150/1 503/151/1 504/149/1
f 505/163/1 506/164/1 507/130/1 508/129/1
f 509/164/1 510/165/1 511/131/1 512/130/1
f 513/165/1 514/166/1 515/132/1 516/131/1
f 517/166/1 518/167/1 519/133/1 520/132/1
f 521/142/1 522/143/1 523/144/1 524/145/1
f 525/143/1 526/146/1 527/147/1 528/144/1
f 529/146/1 530/148/1 531/149/1 532/147/1
f 533/148/1 534/150/1 535/151/1 536/149/1
f 537/150/1 538/152/1 539/153/1 540/151/1
f 541/152/1 542/154/1 543/155/1 544/153/1
f 545/121/1 546/122/1 547/101/1 548/100/1
f 549/142/1 550/143/1 551/144/1 552/145/1
f 553/143/1 554/146/1 555/147/1 556/144/1
f 557/146/1 558/148/1 559/149/1 560/147/1
f 561/148/1 562/150/1 563/151/1 564/149/1
f 565/168/1 566/169/1 567/143/1 568/142/1
f 569/169/1 570/170/1 571/146/1 572/143/1
f 573/170/1 574/171/1 575/148/1 576/146/1
f 577/171/1 578/172/1 579/150/1 580/148/1
f 581/172/1 582/173/1 583/152/1 584/150/1
f 585/173/1 586/174/1 587/154/1 588/152/1
f 589/175/1 590/176/1 591/157/1 592/156/1
f 593/176/1 594/177/1 595/158/1 596/157/1
f 597/177/1 598/178/1 599/159/1 600/158/1
f 601/178/1 602/179/1 603/160/1 604/159/1
f 605/179/1 606/180/1 607/161/1 608/160/1
f 609/180/1 610/181/1 611/162/1 612/161/1
f 613/168/1 614/169/1 615/143/1 616/142/1
f 617/169/1 618/170/1 619/146/1 620/143/1
f 621/170/1 622/171/1 623/148/1 624/146/1
f 625/171/1 626/172/1 627/150/1 628/148/1
f 629/172/1 630/173/1 631/152/1 632/150/1
f 633/173/1 634/174/1 635/154/1 636/152/1
f 637/168/1 638/169/1 639/143/1 640/142/1
f 641/169/1 642/170/1 643/146/1 644/143/1
f 645/170/1 646/171/1 647/148/1 648/146/1
f 649/171/1 650/172/1 651/150/1 652/148/1
f 653/182/1 654/183/1 655/164/1 656/163/1
f 657/183/1 658/184/1 659/165/1 660/164/1
f 661/184/1 662/185/1 663/166/1 664/165/1
f 665/185/1 666/186/1 667/167/1 668/166/1
f 669/168/1 670/169/1 671/143/1 672/142/1
f 673/169/1 674/170/1 675/146/1 676/143/1
f 677/170/1 678/171/1 679/148/1 680/146/1
f 681/171/1 682/172/1 683/150/1 684/148/1
f 685/172/1 686/173/1 687/152/1 688/150/1
f 689/173/1 690/174/1 691/154/1 692/152/1
f 693/156/1 694/157/1 695/122/1 696/121/1
f 697/168/1 698/169/1 699/143/1 700/142/1
f 701/169/1 702/170/1 703/146/1 704/143/1
f 705/170/1 706/171/1 707/148/1 708/146/1
f 709/171/1 710/172/1 711/150/1 712/148/1
f 713/187/1 714/188/1 715/169/1 716/168/1
f 717/188/1 718/189/1 719/170/1 720/169/1
f 721/189/1 722/190/1 723/171/1 724/170/1
f 725/190/1 726/191/1 727/172/1 728/171/1
f 729/191/1 730/192/1 731/173/1 732/172/1
f 733/192/1 734/193/1 735/174/1 736/173/1
f 737/175/1 738/176/1 739/157/1 740/156/1
f 741/187/1 742/188/1 743/169/1 744/168/1
f 745/188/1 746/189/1 747/170/1 748/169/1
f 749/189/1 750/190/1 751/171/1 752/170/1
f 753/190/1 754/191/1 755/172/1 756/171/1
f 757/191/1 758/192/1 759/173/1 760/172/1
f 761/192/1 762/193/1 763/174/1 764/173/1
f 765/187/1 766/188/1 767/169/1 768/168/1
f 769/188/1 770/189/1 771/170/1 772/169/1
f 773/189/1 774/190/1 775/171/1 776/170/1
f 777/190/1 778/191/1 779/172/1 780/171/1
f 781/194/1 782/195/1 783/183/1 784/182/1
f 785/195/1 786/196/1 787/184/1 788/183/1
f 789/196/1 790/197/1 791/185/1 792/184/1
f 793/197/1 794/198/1 795/186/1 796/185/1
f 797/198/1 798/199/1 799/200/1 800/186/1
f 801/187/1 802/188/1 803/169/1 804/168/1
f 805/188/1 806/189/1 807/170/1 808/169/1
f 809/189/1 810/190/1 811/171/1 812/170/1
f 813/190/1 814/191/1 815/172/1 816/171/1
f 817/191/1 818/192/1 819/173/1 820/172/1
f 821/192/1 822/193/1 823/174/1 824/173/1
f 825/175/1 826/176/1 827/157/1 828/156/1
f 829/187/1 830/188/1 831/169/1 832/168/1
f 833/188/1 834/189/1 835/170/1 836/169/1
f 837/189/1 838/190/1 839/171/1 840/170/1
f 841/190/1 842/191/1 843/172/1 844/171/1

