# Tiled2Unity generated file. Do not modify by hand.
# Wavefront file for 'Market_mesh_0015.obj'

# Vertices (Count = 16)
v -3 -11 0
v -4 -11 0
v -4 -10 0
v -3 -10 0
v -4 -11 0
v -5 -11 0
v -5 -10 0
v -4 -10 0
v -3 -12 0
v -4 -12 0
v -4 -11 0
v -3 -11 0
v -4 -12 0
v -5 -12 0
v -5 -11 0
v -4 -11 0

# Texture cooridinates (Count = 9)
vt 0.175 0.8
vt 0.2 0.8
vt 0.2 0.84
vt 0.175 0.84
vt 0.225 0.8
vt 0.225 0.84
vt 0.175 0.76
vt 0.2 0.76
vt 0.225 0.76

# Normal
vn 0 0 -1

# Mesh description
g Market_mesh_0015

# Faces
f 1/1/1 2/2/1 3/3/1 4/4/1
f 5/2/1 6/5/1 7/6/1 8/3/1
f 9/7/1 10/8/1 11/2/1 12/1/1
f 13/8/1 14/9/1 15/5/1 16/2/1

