# Tiled2Unity generated file. Do not modify by hand.
# Wavefront file for 'Spawn-House-First-Floor_mesh_0003.obj'

# Vertices (Count = 152)
v -3 -1 0
v -4 -1 0
v -4 0 0
v -3 0 0
v -4 -1 0
v -5 -1 0
v -5 0 0
v -4 0 0
v -6 -1 0
v -7 -1 0
v -7 0 0
v -6 0 0
v -7 -1 0
v -8 -1 0
v -8 0 0
v -7 0 0
v -3 -2 0
v -4 -2 0
v -4 -1 0
v -3 -1 0
v -4 -2 0
v -5 -2 0
v -5 -1 0
v -4 -1 0
v -9 -2 0
v -10 -2 0
v -10 -1 0
v -9 -1 0
v -10 -2 0
v -11 -2 0
v -11 -1 0
v -10 -1 0
v -11 -2 0
v -12 -2 0
v -12 -1 0
v -11 -1 0
v -14 -2 0
v -15 -2 0
v -15 -1 0
v -14 -1 0
v -3 -3 0
v -4 -3 0
v -4 -2 0
v -3 -2 0
v -4 -3 0
v -5 -3 0
v -5 -2 0
v -4 -2 0
v -9 -3 0
v -10 -3 0
v -10 -2 0
v -9 -2 0
v -10 -3 0
v -11 -3 0
v -11 -2 0
v -10 -2 0
v -11 -3 0
v -12 -3 0
v -12 -2 0
v -11 -2 0
v -14 -3 0
v -15 -3 0
v -15 -2 0
v -14 -2 0
v 0 -5 0
v -1 -5 0
v -1 -4 0
v 0 -4 0
v -1 -5 0
v -2 -5 0
v -2 -4 0
v -1 -4 0
v -2 -5 0
v -3 -5 0
v -3 -4 0
v -2 -4 0
v 0 -6 0
v -1 -6 0
v -1 -5 0
v 0 -5 0
v -1 -6 0
v -2 -6 0
v -2 -5 0
v -1 -5 0
v -2 -6 0
v -3 -6 0
v -3 -5 0
v -2 -5 0
v -16 -6 0
v -17 -6 0
v -17 -5 0
v -16 -5 0
v -17 -6 0
v -18 -6 0
v -18 -5 0
v -17 -5 0
v 0 -7 0
v -1 -7 0
v -1 -6 0
v 0 -6 0
v -1 -7 0
v -2 -7 0
v -2 -6 0
v -1 -6 0
v -2 -7 0
v -3 -7 0
v -3 -6 0
v -2 -6 0
v -16 -7 0
v -17 -7 0
v -17 -6 0
v -16 -6 0
v -17 -7 0
v -18 -7 0
v -18 -6 0
v -17 -6 0
v 0 -10 0
v -1 -10 0
v -1 -9 0
v 0 -9 0
v -1 -10 0
v -2 -10 0
v -2 -9 0
v -1 -9 0
v -2 -10 0
v -3 -10 0
v -3 -9 0
v -2 -9 0
v 0 -11 0
v -1 -11 0
v -1 -10 0
v 0 -10 0
v -1 -11 0
v -2 -11 0
v -2 -10 0
v -1 -10 0
v -2 -11 0
v -3 -11 0
v -3 -10 0
v -2 -10 0
v 0 -12 0
v -1 -12 0
v -1 -11 0
v 0 -11 0
v -1 -12 0
v -2 -12 0
v -2 -11 0
v -1 -11 0
v -2 -12 0
v -3 -12 0
v -3 -11 0
v -2 -11 0

# Texture cooridinates (Count = 74)
vt 0.3 0.56
vt 0.325 0.56
vt 0.325 0.6
vt 0.3 0.6
vt 0.35 0.56
vt 0.35 0.6
vt 0.4 0.96
vt 0.425 0.96
vt 0.425 1
vt 0.4 1
vt 0.45 0.96
vt 0.45 1
vt 0.3 0.52
vt 0.325 0.52
vt 0.35 0.52
vt 0.075 0.48
vt 0.1 0.48
vt 0.1 0.52
vt 0.075 0.52
vt 0.125 0.48
vt 0.125 0.52
vt 0.15 0.48
vt 0.15 0.52
vt 0.2 0.48
vt 0.225 0.48
vt 0.225 0.52
vt 0.2 0.52
vt 0.25 0.48
vt 0.275 0.48
vt 0.275 0.52
vt 0.25 0.52
vt 0.3 0.48
vt 0.075 0.44
vt 0.1 0.44
vt 0.125 0.44
vt 0.15 0.44
vt 0.2 0.44
vt 0.225 0.44
vt 0.05 0.52
vt 0.05 0.48
vt 0.05 0.44
vt 0.05 0.4
vt 0.075 0.4
vt 0.025 0.52
vt 0.025 0.48
vt 0.025 0.44
vt 0.025 0.4
vt 0.05 0.32
vt 0.075 0.32
vt 0.075 0.36
vt 0.05 0.36
vt 0.1 0.32
vt 0.1 0.36
vt 0 0.52
vt 0 0.48
vt 0 0.44
vt 0 0.4
vt 0.05 0.28
vt 0.075 0.28
vt 0.1 0.28
vt 0.3 0.72
vt 0.3 0.68
vt 0.325 0.68
vt 0.325 0.72
vt 0.3 0.64
vt 0.325 0.64
vt 0.275 0.72
vt 0.275 0.68
vt 0.275 0.64
vt 0.275 0.6
vt 0.25 0.72
vt 0.25 0.68
vt 0.25 0.64
vt 0.25 0.6

# Normal
vn 0 0 -1

# Mesh description
g Spawn-House-First-Floor_mesh_0003

# Faces
f 1/1/1 2/2/1 3/3/1 4/4/1
f 5/2/1 6/5/1 7/6/1 8/3/1
f 9/7/1 10/8/1 11/9/1 12/10/1
f 13/8/1 14/11/1 15/12/1 16/9/1
f 17/13/1 18/14/1 19/2/1 20/1/1
f 21/14/1 22/15/1 23/5/1 24/2/1
f 25/16/1 26/17/1 27/18/1 28/19/1
f 29/17/1 30/20/1 31/21/1 32/18/1
f 33/20/1 34/22/1 35/23/1 36/21/1
f 37/24/1 38/25/1 39/26/1 40/27/1
f 41/28/1 42/29/1 43/30/1 44/31/1
f 45/29/1 46/32/1 47/13/1 48/30/1
f 49/33/1 50/34/1 51/17/1 52/16/1
f 53/34/1 54/35/1 55/20/1 56/17/1
f 57/35/1 58/36/1 59/22/1 60/20/1
f 61/37/1 62/38/1 63/25/1 64/24/1
f 65/39/1 66/40/1 67/16/1 68/19/1
f 69/40/1 70/41/1 71/33/1 72/16/1
f 73/41/1 74/42/1 75/43/1 76/33/1
f 77/44/1 78/45/1 79/40/1 80/39/1
f 81/45/1 82/46/1 83/41/1 84/40/1
f 85/46/1 86/47/1 87/42/1 88/41/1
f 89/48/1 90/49/1 91/50/1 92/51/1
f 93/49/1 94/52/1 95/53/1 96/50/1
f 97/54/1 98/55/1 99/45/1 100/44/1
f 101/55/1 102/56/1 103/46/1 104/45/1
f 105/56/1 106/57/1 107/47/1 108/46/1
f 109/58/1 110/59/1 111/49/1 112/48/1
f 113/59/1 114/60/1 115/52/1 116/49/1
f 117/61/1 118/62/1 119/63/1 120/64/1
f 121/62/1 122/65/1 123/66/1 124/63/1
f 125/65/1 126/4/1 127/3/1 128/66/1
f 129/67/1 130/68/1 131/62/1 132/61/1
f 133/68/1 134/69/1 135/65/1 136/62/1
f 137/69/1 138/70/1 139/4/1 140/65/1
f 141/71/1 142/72/1 143/68/1 144/67/1
f 145/72/1 146/73/1 147/69/1 148/68/1
f 149/73/1 150/74/1 151/70/1 152/69/1

