# Tiled2Unity generated file. Do not modify by hand.
# Wavefront file for 'Spawn-House-First-Floor_mesh_0008.obj'

# Vertices (Count = 40)
v -9 -13 0
v -10 -13 0
v -10 -12 0
v -9 -12 0
v -10 -13 0
v -11 -13 0
v -11 -12 0
v -10 -12 0
v -8 -14 0
v -9 -14 0
v -9 -13 0
v -8 -13 0
v -9 -14 0
v -10 -14 0
v -10 -13 0
v -9 -13 0
v -10 -14 0
v -11 -14 0
v -11 -13 0
v -10 -13 0
v -11 -14 0
v -12 -14 0
v -12 -13 0
v -11 -13 0
v -8 -15 0
v -9 -15 0
v -9 -14 0
v -8 -14 0
v -9 -15 0
v -10 -15 0
v -10 -14 0
v -9 -14 0
v -10 -15 0
v -11 -15 0
v -11 -14 0
v -10 -14 0
v -11 -15 0
v -12 -15 0
v -12 -14 0
v -11 -14 0

# Texture cooridinates (Count = 17)
vt 0 0.68
vt 0.025 0.68
vt 0.025 0.72
vt 0 0.72
vt 0.05 0.68
vt 0.075 0.68
vt 0.075 0.72
vt 0.05 0.72
vt 0.025 0.52
vt 0.05 0.52
vt 0.05 0.56
vt 0.025 0.56
vt 0 0.52
vt 0 0.56
vt 0 0.64
vt 0.025 0.64
vt 0.05 0.64

# Normal
vn 0 0 -1

# Mesh description
g Spawn-House-First-Floor_mesh_0008

# Faces
f 1/1/1 2/2/1 3/3/1 4/4/1
f 5/5/1 6/6/1 7/7/1 8/8/1
f 9/1/1 10/2/1 11/3/1 12/4/1
f 13/9/1 14/10/1 15/11/1 16/12/1
f 17/13/1 18/9/1 19/12/1 20/14/1
f 21/5/1 22/6/1 23/7/1 24/8/1
f 25/15/1 26/16/1 27/2/1 28/1/1
f 29/16/1 30/17/1 31/5/1 32/2/1
f 33/16/1 34/17/1 35/5/1 36/2/1
f 37/2/1 38/1/1 39/15/1 40/16/1

