# Tiled2Unity generated file. Do not modify by hand.
# Wavefront file for 'Dojo-House_mesh_0002.obj'

# Vertices (Count = 160)
v -9 -1 0
v -10 -1 0
v -10 0 0
v -9 0 0
v -10 -1 0
v -11 -1 0
v -11 0 0
v -10 0 0
v -9 -2 0
v -10 -2 0
v -10 -1 0
v -9 -1 0
v -10 -2 0
v -11 -2 0
v -11 -1 0
v -10 -1 0
v -9 -3 0
v -10 -3 0
v -10 -2 0
v -9 -2 0
v -10 -3 0
v -11 -3 0
v -11 -2 0
v -10 -2 0
v -12 -3 0
v -13 -3 0
v -13 -2 0
v -12 -2 0
v -13 -3 0
v -14 -3 0
v -14 -2 0
v -13 -2 0
v -12 -4 0
v -13 -4 0
v -13 -3 0
v -12 -3 0
v -13 -4 0
v -14 -4 0
v -14 -3 0
v -13 -3 0
v 0 -5 0
v -1 -5 0
v -1 -4 0
v 0 -4 0
v -1 -5 0
v -2 -5 0
v -2 -4 0
v -1 -4 0
v -2 -5 0
v -3 -5 0
v -3 -4 0
v -2 -4 0
v -12 -5 0
v -13 -5 0
v -13 -4 0
v -12 -4 0
v -13 -5 0
v -14 -5 0
v -14 -4 0
v -13 -4 0
v 0 -6 0
v -1 -6 0
v -1 -5 0
v 0 -5 0
v -1 -6 0
v -2 -6 0
v -2 -5 0
v -1 -5 0
v -2 -6 0
v -3 -6 0
v -3 -5 0
v -2 -5 0
v 0 -7 0
v -1 -7 0
v -1 -6 0
v 0 -6 0
v -1 -7 0
v -2 -7 0
v -2 -6 0
v -1 -6 0
v -2 -7 0
v -3 -7 0
v -3 -6 0
v -2 -6 0
v 0 -11 0
v -1 -11 0
v -1 -10 0
v 0 -10 0
v -1 -11 0
v -2 -11 0
v -2 -10 0
v -1 -10 0
v -2 -11 0
v -3 -11 0
v -3 -10 0
v -2 -10 0
v 0 -12 0
v -1 -12 0
v -1 -11 0
v 0 -11 0
v -1 -12 0
v -2 -12 0
v -2 -11 0
v -1 -11 0
v -2 -12 0
v -3 -12 0
v -3 -11 0
v -2 -11 0
v 0 -13 0
v -1 -13 0
v -1 -12 0
v 0 -12 0
v -1 -13 0
v -2 -13 0
v -2 -12 0
v -1 -12 0
v -2 -13 0
v -3 -13 0
v -3 -12 0
v -2 -12 0
v -7 -14 0
v -8 -14 0
v -8 -13 0
v -7 -13 0
v -8 -14 0
v -9 -14 0
v -9 -13 0
v -8 -13 0
v -6 -15 0
v -7 -15 0
v -7 -14 0
v -6 -14 0
v -7 -15 0
v -8 -15 0
v -8 -14 0
v -7 -14 0
v -8 -15 0
v -9 -15 0
v -9 -14 0
v -8 -14 0
v -9 -15 0
v -10 -15 0
v -10 -14 0
v -9 -14 0
v -6 -16 0
v -7 -16 0
v -7 -15 0
v -6 -15 0
v -7 -16 0
v -8 -16 0
v -8 -15 0
v -7 -15 0
v -8 -16 0
v -9 -16 0
v -9 -15 0
v -8 -15 0
v -9 -16 0
v -10 -16 0
v -10 -15 0
v -9 -15 0

# Texture cooridinates (Count = 72)
vt 0.3 0.56
vt 0.325 0.56
vt 0.325 0.6
vt 0.3 0.6
vt 0.35 0.56
vt 0.35 0.6
vt 0.3 0.52
vt 0.325 0.52
vt 0.35 0.52
vt 0.25 0.48
vt 0.275 0.48
vt 0.275 0.52
vt 0.25 0.52
vt 0.3 0.48
vt 0.5 0.92
vt 0.525 0.92
vt 0.525 0.96
vt 0.5 0.96
vt 0.55 0.92
vt 0.55 0.96
vt 0.5 0.88
vt 0.525 0.88
vt 0.55 0.88
vt 0.3 0.72
vt 0.3 0.68
vt 0.325 0.68
vt 0.325 0.72
vt 0.3 0.64
vt 0.325 0.64
vt 0.5 0.84
vt 0.525 0.84
vt 0.55 0.84
vt 0.275 0.72
vt 0.275 0.68
vt 0.275 0.64
vt 0.275 0.6
vt 0.25 0.72
vt 0.25 0.68
vt 0.25 0.64
vt 0.25 0.6
vt 0.05 0.52
vt 0.05 0.48
vt 0.075 0.48
vt 0.075 0.52
vt 0.125 0.52
vt 0.125 0.48
vt 0.15 0.48
vt 0.15 0.52
vt 0.125 0.44
vt 0.15 0.44
vt 0.025 0.52
vt 0.025 0.48
vt 0.1 0.52
vt 0.1 0.48
vt 0.1 0.44
vt 0 0.52
vt 0 0.48
vt 0.075 0.44
vt 0 0.68
vt 0.025 0.68
vt 0.025 0.72
vt 0 0.72
vt 0.05 0.68
vt 0.075 0.68
vt 0.075 0.72
vt 0.05 0.72
vt 0.05 0.56
vt 0.025 0.56
vt 0 0.56
vt 0 0.64
vt 0.025 0.64
vt 0.05 0.64

# Normal
vn 0 0 -1

# Mesh description
g Dojo-House_mesh_0002

# Faces
f 1/1/1 2/2/1 3/3/1 4/4/1
f 5/2/1 6/5/1 7/6/1 8/3/1
f 9/7/1 10/8/1 11/2/1 12/1/1
f 13/8/1 14/9/1 15/5/1 16/2/1
f 17/10/1 18/11/1 19/12/1 20/13/1
f 21/11/1 22/14/1 23/7/1 24/12/1
f 25/15/1 26/16/1 27/17/1 28/18/1
f 29/16/1 30/19/1 31/20/1 32/17/1
f 33/21/1 34/22/1 35/16/1 36/15/1
f 37/22/1 38/23/1 39/19/1 40/16/1
f 41/24/1 42/25/1 43/26/1 44/27/1
f 45/25/1 46/28/1 47/29/1 48/26/1
f 49/28/1 50/4/1 51/3/1 52/29/1
f 53/30/1 54/31/1 55/22/1 56/21/1
f 57/31/1 58/32/1 59/23/1 60/22/1
f 61/33/1 62/34/1 63/25/1 64/24/1
f 65/34/1 66/35/1 67/28/1 68/25/1
f 69/35/1 70/36/1 71/4/1 72/28/1
f 73/37/1 74/38/1 75/34/1 76/33/1
f 77/38/1 78/39/1 79/35/1 80/34/1
f 81/39/1 82/40/1 83/36/1 84/35/1
f 85/41/1 86/42/1 87/43/1 88/44/1
f 89/45/1 90/46/1 91/47/1 92/48/1
f 93/46/1 94/49/1 95/50/1 96/47/1
f 97/51/1 98/52/1 99/42/1 100/41/1
f 101/53/1 102/54/1 103/46/1 104/45/1
f 105/54/1 106/55/1 107/49/1 108/46/1
f 109/56/1 110/57/1 111/52/1 112/51/1
f 113/44/1 114/43/1 115/54/1 116/53/1
f 117/43/1 118/58/1 119/55/1 120/54/1
f 121/59/1 122/60/1 123/61/1 124/62/1
f 125/63/1 126/64/1 127/65/1 128/66/1
f 129/59/1 130/60/1 131/61/1 132/62/1
f 133/51/1 134/41/1 135/67/1 136/68/1
f 137/56/1 138/51/1 139/68/1 140/69/1
f 141/63/1 142/64/1 143/65/1 144/66/1
f 145/70/1 146/71/1 147/60/1 148/59/1
f 149/71/1 150/72/1 151/63/1 152/60/1
f 153/71/1 154/72/1 155/63/1 156/60/1
f 157/60/1 158/59/1 159/70/1 160/71/1

