# Tiled2Unity generated file. Do not modify by hand.
# Wavefront file for 'Spawn-House-Second-Floor_mesh_0001.obj'

# Vertices (Count = 384)
v 0 -1 0
v -1 -1 0
v -1 0 0
v 0 0 0
v -1 -1 0
v -2 -1 0
v -2 0 0
v -1 0 0
v -2 -1 0
v -3 -1 0
v -3 0 0
v -2 0 0
v -3 -1 0
v -4 -1 0
v -4 0 0
v -3 0 0
v -4 -1 0
v -5 -1 0
v -5 0 0
v -4 0 0
v -5 -1 0
v -6 -1 0
v -6 0 0
v -5 0 0
v -6 -1 0
v -7 -1 0
v -7 0 0
v -6 0 0
v -7 -1 0
v -8 -1 0
v -8 0 0
v -7 0 0
v -8 -1 0
v -9 -1 0
v -9 0 0
v -8 0 0
v -9 -1 0
v -10 -1 0
v -10 0 0
v -9 0 0
v 0 -2 0
v -1 -2 0
v -1 -1 0
v 0 -1 0
v -1 -2 0
v -2 -2 0
v -2 -1 0
v -1 -1 0
v -2 -2 0
v -3 -2 0
v -3 -1 0
v -2 -1 0
v -3 -2 0
v -4 -2 0
v -4 -1 0
v -3 -1 0
v -4 -2 0
v -5 -2 0
v -5 -1 0
v -4 -1 0
v -5 -2 0
v -6 -2 0
v -6 -1 0
v -5 -1 0
v -6 -2 0
v -7 -2 0
v -7 -1 0
v -6 -1 0
v -7 -2 0
v -8 -2 0
v -8 -1 0
v -7 -1 0
v -8 -2 0
v -9 -2 0
v -9 -1 0
v -8 -1 0
v -9 -2 0
v -10 -2 0
v -10 -1 0
v -9 -1 0
v 0 -3 0
v -1 -3 0
v -1 -2 0
v 0 -2 0
v -1 -3 0
v -2 -3 0
v -2 -2 0
v -1 -2 0
v -2 -3 0
v -3 -3 0
v -3 -2 0
v -2 -2 0
v -3 -3 0
v -4 -3 0
v -4 -2 0
v -3 -2 0
v -4 -3 0
v -5 -3 0
v -5 -2 0
v -4 -2 0
v -5 -3 0
v -6 -3 0
v -6 -2 0
v -5 -2 0
v -6 -3 0
v -7 -3 0
v -7 -2 0
v -6 -2 0
v -7 -3 0
v -8 -3 0
v -8 -2 0
v -7 -2 0
v -8 -3 0
v -9 -3 0
v -9 -2 0
v -8 -2 0
v -9 -3 0
v -10 -3 0
v -10 -2 0
v -9 -2 0
v 0 -4 0
v -1 -4 0
v -1 -3 0
v 0 -3 0
v -1 -4 0
v -2 -4 0
v -2 -3 0
v -1 -3 0
v -2 -4 0
v -3 -4 0
v -3 -3 0
v -2 -3 0
v -3 -4 0
v -4 -4 0
v -4 -3 0
v -3 -3 0
v -4 -4 0
v -5 -4 0
v -5 -3 0
v -4 -3 0
v -5 -4 0
v -6 -4 0
v -6 -3 0
v -5 -3 0
v -6 -4 0
v -7 -4 0
v -7 -3 0
v -6 -3 0
v -7 -4 0
v -8 -4 0
v -8 -3 0
v -7 -3 0
v -8 -4 0
v -9 -4 0
v -9 -3 0
v -8 -3 0
v -9 -4 0
v -10 -4 0
v -10 -3 0
v -9 -3 0
v 0 -5 0
v -1 -5 0
v -1 -4 0
v 0 -4 0
v -1 -5 0
v -2 -5 0
v -2 -4 0
v -1 -4 0
v -2 -5 0
v -3 -5 0
v -3 -4 0
v -2 -4 0
v -3 -5 0
v -4 -5 0
v -4 -4 0
v -3 -4 0
v -4 -5 0
v -5 -5 0
v -5 -4 0
v -4 -4 0
v -5 -5 0
v -6 -5 0
v -6 -4 0
v -5 -4 0
v -6 -5 0
v -7 -5 0
v -7 -4 0
v -6 -4 0
v -7 -5 0
v -8 -5 0
v -8 -4 0
v -7 -4 0
v -8 -5 0
v -9 -5 0
v -9 -4 0
v -8 -4 0
v -9 -5 0
v -10 -5 0
v -10 -4 0
v -9 -4 0
v 0 -6 0
v -1 -6 0
v -1 -5 0
v 0 -5 0
v -1 -6 0
v -2 -6 0
v -2 -5 0
v -1 -5 0
v -2 -6 0
v -3 -6 0
v -3 -5 0
v -2 -5 0
v -3 -6 0
v -4 -6 0
v -4 -5 0
v -3 -5 0
v -4 -6 0
v -5 -6 0
v -5 -5 0
v -4 -5 0
v -5 -6 0
v -6 -6 0
v -6 -5 0
v -5 -5 0
v -6 -6 0
v -7 -6 0
v -7 -5 0
v -6 -5 0
v -7 -6 0
v -8 -6 0
v -8 -5 0
v -7 -5 0
v -8 -6 0
v -9 -6 0
v -9 -5 0
v -8 -5 0
v -9 -6 0
v -10 -6 0
v -10 -5 0
v -9 -5 0
v 0 -7 0
v -1 -7 0
v -1 -6 0
v 0 -6 0
v -1 -7 0
v -2 -7 0
v -2 -6 0
v -1 -6 0
v -2 -7 0
v -3 -7 0
v -3 -6 0
v -2 -6 0
v -3 -7 0
v -4 -7 0
v -4 -6 0
v -3 -6 0
v -4 -7 0
v -5 -7 0
v -5 -6 0
v -4 -6 0
v -5 -7 0
v -6 -7 0
v -6 -6 0
v -5 -6 0
v -6 -7 0
v -7 -7 0
v -7 -6 0
v -6 -6 0
v -7 -7 0
v -8 -7 0
v -8 -6 0
v -7 -6 0
v -8 -7 0
v -9 -7 0
v -9 -6 0
v -8 -6 0
v -9 -7 0
v -10 -7 0
v -10 -6 0
v -9 -6 0
v 0 -8 0
v -1 -8 0
v -1 -7 0
v 0 -7 0
v -1 -8 0
v -2 -8 0
v -2 -7 0
v -1 -7 0
v -2 -8 0
v -3 -8 0
v -3 -7 0
v -2 -7 0
v -3 -8 0
v -4 -8 0
v -4 -7 0
v -3 -7 0
v -4 -8 0
v -5 -8 0
v -5 -7 0
v -4 -7 0
v -5 -8 0
v -6 -8 0
v -6 -7 0
v -5 -7 0
v -6 -8 0
v -7 -8 0
v -7 -7 0
v -6 -7 0
v -7 -8 0
v -8 -8 0
v -8 -7 0
v -7 -7 0
v -8 -8 0
v -9 -8 0
v -9 -7 0
v -8 -7 0
v -9 -8 0
v -10 -8 0
v -10 -7 0
v -9 -7 0
v 0 -9 0
v -1 -9 0
v -1 -8 0
v 0 -8 0
v -1 -9 0
v -2 -9 0
v -2 -8 0
v -1 -8 0
v -2 -9 0
v -3 -9 0
v -3 -8 0
v -2 -8 0
v -3 -9 0
v -4 -9 0
v -4 -8 0
v -3 -8 0
v -4 -9 0
v -5 -9 0
v -5 -8 0
v -4 -8 0
v -5 -9 0
v -6 -9 0
v -6 -8 0
v -5 -8 0
v -8 -9 0
v -9 -9 0
v -9 -8 0
v -8 -8 0
v -9 -9 0
v -10 -9 0
v -10 -8 0
v -9 -8 0
v 0 -10 0
v -1 -10 0
v -1 -9 0
v 0 -9 0
v -1 -10 0
v -2 -10 0
v -2 -9 0
v -1 -9 0
v -2 -10 0
v -3 -10 0
v -3 -9 0
v -2 -9 0
v -3 -10 0
v -4 -10 0
v -4 -9 0
v -3 -9 0
v -4 -10 0
v -5 -10 0
v -5 -9 0
v -4 -9 0
v -5 -10 0
v -6 -10 0
v -6 -9 0
v -5 -9 0
v -8 -10 0
v -9 -10 0
v -9 -9 0
v -8 -9 0
v -9 -10 0
v -10 -10 0
v -10 -9 0
v -9 -9 0

# Texture cooridinates (Count = 11)
vt 0.05 0.92
vt 0.075 0.92
vt 0.075 0.96
vt 0.05 0.96
vt 0.05 0.88
vt 0.025 0.92
vt 0.025 0.88
vt 0.075 0.88
vt 0 0.92
vt 0.025 0.96
vt 0 0.96

# Normal
vn 0 0 -1

# Mesh description
g Spawn-House-Second-Floor_mesh_0001

# Faces
f 1/1/1 2/2/1 3/3/1 4/4/1
f 5/1/1 6/2/1 7/3/1 8/4/1
f 9/1/1 10/2/1 11/3/1 12/4/1
f 13/1/1 14/2/1 15/3/1 16/4/1
f 17/1/1 18/2/1 19/3/1 20/4/1
f 21/1/1 22/2/1 23/3/1 24/4/1
f 25/1/1 26/2/1 27/3/1 28/4/1
f 29/1/1 30/2/1 31/3/1 32/4/1
f 33/1/1 34/2/1 35/3/1 36/4/1
f 37/1/1 38/2/1 39/3/1 40/4/1
f 41/1/1 42/2/1 43/3/1 44/4/1
f 45/5/1 46/1/1 47/6/1 48/7/1
f 49/2/1 50/1/1 51/5/1 52/8/1
f 53/2/1 54/1/1 55/5/1 56/8/1
f 57/2/1 58/1/1 59/5/1 60/8/1
f 61/2/1 62/1/1 63/5/1 64/8/1
f 65/2/1 66/1/1 67/5/1 68/8/1
f 69/2/1 70/1/1 71/5/1 72/8/1
f 73/1/1 74/6/1 75/7/1 76/5/1
f 77/1/1 78/2/1 79/3/1 80/4/1
f 81/1/1 82/2/1 83/3/1 84/4/1
f 85/8/1 86/2/1 87/1/1 88/5/1
f 89/9/1 90/6/1 91/10/1 92/11/1
f 93/9/1 94/6/1 95/10/1 96/11/1
f 97/9/1 98/6/1 99/10/1 100/11/1
f 101/9/1 102/6/1 103/10/1 104/11/1
f 105/9/1 106/6/1 107/10/1 108/11/1
f 109/9/1 110/6/1 111/10/1 112/11/1
f 113/1/1 114/5/1 115/8/1 116/2/1
f 117/1/1 118/2/1 119/3/1 120/4/1
f 121/1/1 122/2/1 123/3/1 124/4/1
f 125/8/1 126/2/1 127/1/1 128/5/1
f 129/9/1 130/6/1 131/10/1 132/11/1
f 133/9/1 134/6/1 135/10/1 136/11/1
f 137/9/1 138/6/1 139/10/1 140/11/1
f 141/9/1 142/6/1 143/10/1 144/11/1
f 145/9/1 146/6/1 147/10/1 148/11/1
f 149/9/1 150/6/1 151/10/1 152/11/1
f 153/1/1 154/5/1 155/8/1 156/2/1
f 157/1/1 158/2/1 159/3/1 160/4/1
f 161/1/1 162/2/1 163/3/1 164/4/1
f 165/8/1 166/2/1 167/1/1 168/5/1
f 169/9/1 170/6/1 171/10/1 172/11/1
f 173/9/1 174/6/1 175/10/1 176/11/1
f 177/9/1 178/6/1 179/10/1 180/11/1
f 181/9/1 182/6/1 183/10/1 184/11/1
f 185/9/1 186/6/1 187/10/1 188/11/1
f 189/9/1 190/6/1 191/10/1 192/11/1
f 193/1/1 194/5/1 195/8/1 196/2/1
f 197/1/1 198/2/1 199/3/1 200/4/1
f 201/1/1 202/2/1 203/3/1 204/4/1
f 205/8/1 206/2/1 207/1/1 208/5/1
f 209/9/1 210/6/1 211/10/1 212/11/1
f 213/9/1 214/6/1 215/10/1 216/11/1
f 217/9/1 218/6/1 219/10/1 220/11/1
f 221/9/1 222/6/1 223/10/1 224/11/1
f 225/9/1 226/6/1 227/10/1 228/11/1
f 229/9/1 230/6/1 231/10/1 232/11/1
f 233/1/1 234/5/1 235/8/1 236/2/1
f 237/1/1 238/2/1 239/3/1 240/4/1
f 241/1/1 242/2/1 243/3/1 244/4/1
f 245/8/1 246/2/1 247/1/1 248/5/1
f 249/9/1 250/6/1 251/10/1 252/11/1
f 253/9/1 254/6/1 255/10/1 256/11/1
f 257/9/1 258/6/1 259/10/1 260/11/1
f 261/9/1 262/6/1 263/10/1 264/11/1
f 265/9/1 266/6/1 267/10/1 268/11/1
f 269/9/1 270/6/1 271/10/1 272/11/1
f 273/1/1 274/5/1 275/8/1 276/2/1
f 277/1/1 278/2/1 279/3/1 280/4/1
f 281/1/1 282/2/1 283/3/1 284/4/1
f 285/8/1 286/2/1 287/1/1 288/5/1
f 289/9/1 290/6/1 291/10/1 292/11/1
f 293/9/1 294/6/1 295/10/1 296/11/1
f 297/9/1 298/6/1 299/10/1 300/11/1
f 301/9/1 302/6/1 303/10/1 304/11/1
f 305/9/1 306/6/1 307/10/1 308/11/1
f 309/9/1 310/6/1 311/10/1 312/11/1
f 313/1/1 314/5/1 315/8/1 316/2/1
f 317/1/1 318/2/1 319/3/1 320/4/1
f 321/3/1 322/4/1 323/1/1 324/2/1
f 325/7/1 326/5/1 327/1/1 328/6/1
f 329/9/1 330/6/1 331/10/1 332/11/1
f 333/9/1 334/6/1 335/10/1 336/11/1
f 337/9/1 338/6/1 339/10/1 340/11/1
f 341/9/1 342/6/1 343/10/1 344/11/1
f 345/6/1 346/7/1 347/5/1 348/1/1
f 349/2/1 350/3/1 351/4/1 352/1/1
f 353/3/1 354/4/1 355/1/1 356/2/1
f 357/3/1 358/4/1 359/1/1 360/2/1
f 361/9/1 362/6/1 363/10/1 364/11/1
f 365/9/1 366/6/1 367/10/1 368/11/1
f 369/9/1 370/6/1 371/10/1 372/11/1
f 373/9/1 374/6/1 375/10/1 376/11/1
f 377/2/1 378/3/1 379/4/1 380/1/1
f 381/2/1 382/3/1 383/4/1 384/1/1

