# Tiled2Unity generated file. Do not modify by hand.
# Wavefront file for 'Spawn-House-Second-Floor_mesh_0003.obj'

# Vertices (Count = 56)
v -6 -1 0
v -7 -1 0
v -7 0 0
v -6 0 0
v -7 -1 0
v -8 -1 0
v -8 0 0
v -7 0 0
v -6 -2 0
v -7 -2 0
v -7 -1 0
v -6 -1 0
v -7 -2 0
v -8 -2 0
v -8 -1 0
v -7 -1 0
v -2 -3 0
v -3 -3 0
v -3 -2 0
v -2 -2 0
v -3 -3 0
v -4 -3 0
v -4 -2 0
v -3 -2 0
v -6 -3 0
v -7 -3 0
v -7 -2 0
v -6 -2 0
v -7 -3 0
v -8 -3 0
v -8 -2 0
v -7 -2 0
v -2 -4 0
v -3 -4 0
v -3 -3 0
v -2 -3 0
v -3 -4 0
v -4 -4 0
v -4 -3 0
v -3 -3 0
v -2 -5 0
v -3 -5 0
v -3 -4 0
v -2 -4 0
v -3 -5 0
v -4 -5 0
v -4 -4 0
v -3 -4 0
v 0 -6 0
v -1 -6 0
v -1 -5 0
v 0 -5 0
v -1 -6 0
v -2 -6 0
v -2 -5 0
v -1 -5 0

# Texture cooridinates (Count = 34)
vt 0.15 0.6
vt 0.175 0.6
vt 0.175 0.64
vt 0.15 0.64
vt 0.2 0.6
vt 0.225 0.6
vt 0.225 0.64
vt 0.2 0.64
vt 0.15 0.56
vt 0.175 0.56
vt 0.2 0.56
vt 0.225 0.56
vt 0.5 0.92
vt 0.525 0.92
vt 0.525 0.96
vt 0.5 0.96
vt 0.55 0.92
vt 0.55 0.96
vt 0.15 0.52
vt 0.175 0.52
vt 0.2 0.52
vt 0.225 0.52
vt 0.5 0.88
vt 0.525 0.88
vt 0.55 0.88
vt 0.5 0.84
vt 0.525 0.84
vt 0.55 0.84
vt 0.1 0.4
vt 0.1 0.36
vt 0.125 0.36
vt 0.125 0.4
vt 0.1 0.32
vt 0.125 0.32

# Normal
vn 0 0 -1

# Mesh description
g Spawn-House-Second-Floor_mesh_0003

# Faces
f 1/1/1 2/2/1 3/3/1 4/4/1
f 5/5/1 6/6/1 7/7/1 8/8/1
f 9/9/1 10/10/1 11/2/1 12/1/1
f 13/11/1 14/12/1 15/6/1 16/5/1
f 17/13/1 18/14/1 19/15/1 20/16/1
f 21/14/1 22/17/1 23/18/1 24/15/1
f 25/19/1 26/20/1 27/10/1 28/9/1
f 29/21/1 30/22/1 31/12/1 32/11/1
f 33/23/1 34/24/1 35/14/1 36/13/1
f 37/24/1 38/25/1 39/17/1 40/14/1
f 41/26/1 42/27/1 43/24/1 44/23/1
f 45/27/1 46/28/1 47/25/1 48/24/1
f 49/29/1 50/30/1 51/31/1 52/32/1
f 53/30/1 54/33/1 55/34/1 56/31/1

