# Tiled2Unity generated file. Do not modify by hand.
# Wavefront file for 'Village-Wall_mesh_0012.obj'

# Vertices (Count = 360)
v 0 -4 0
v -1 -4 0
v -1 -3 0
v 0 -3 0
v -1 -4 0
v -2 -4 0
v -2 -3 0
v -1 -3 0
v -2 -4 0
v -3 -4 0
v -3 -3 0
v -2 -3 0
v -47 -4 0
v -48 -4 0
v -48 -3 0
v -47 -3 0
v -48 -4 0
v -49 -4 0
v -49 -3 0
v -48 -3 0
v -49 -4 0
v -50 -4 0
v -50 -3 0
v -49 -3 0
v 0 -5 0
v -1 -5 0
v -1 -4 0
v 0 -4 0
v -1 -5 0
v -2 -5 0
v -2 -4 0
v -1 -4 0
v -2 -5 0
v -3 -5 0
v -3 -4 0
v -2 -4 0
v -47 -5 0
v -48 -5 0
v -48 -4 0
v -47 -4 0
v -48 -5 0
v -49 -5 0
v -49 -4 0
v -48 -4 0
v -49 -5 0
v -50 -5 0
v -50 -4 0
v -49 -4 0
v 0 -6 0
v -1 -6 0
v -1 -5 0
v 0 -5 0
v -1 -6 0
v -2 -6 0
v -2 -5 0
v -1 -5 0
v -2 -6 0
v -3 -6 0
v -3 -5 0
v -2 -5 0
v -47 -6 0
v -48 -6 0
v -48 -5 0
v -47 -5 0
v -48 -6 0
v -49 -6 0
v -49 -5 0
v -48 -5 0
v -49 -6 0
v -50 -6 0
v -50 -5 0
v -49 -5 0
v 0 -7 0
v -1 -7 0
v -1 -6 0
v 0 -6 0
v -1 -7 0
v -2 -7 0
v -2 -6 0
v -1 -6 0
v -2 -7 0
v -3 -7 0
v -3 -6 0
v -2 -6 0
v -8 -7 0
v -9 -7 0
v -9 -6 0
v -8 -6 0
v -9 -7 0
v -10 -7 0
v -10 -6 0
v -9 -6 0
v -10 -7 0
v -11 -7 0
v -11 -6 0
v -10 -6 0
v -16 -7 0
v -17 -7 0
v -17 -6 0
v -16 -6 0
v -17 -7 0
v -18 -7 0
v -18 -6 0
v -17 -6 0
v -18 -7 0
v -19 -7 0
v -19 -6 0
v -18 -6 0
v -31 -7 0
v -32 -7 0
v -32 -6 0
v -31 -6 0
v -32 -7 0
v -33 -7 0
v -33 -6 0
v -32 -6 0
v -33 -7 0
v -34 -7 0
v -34 -6 0
v -33 -6 0
v -39 -7 0
v -40 -7 0
v -40 -6 0
v -39 -6 0
v -40 -7 0
v -41 -7 0
v -41 -6 0
v -40 -6 0
v -41 -7 0
v -42 -7 0
v -42 -6 0
v -41 -6 0
v -47 -7 0
v -48 -7 0
v -48 -6 0
v -47 -6 0
v -48 -7 0
v -49 -7 0
v -49 -6 0
v -48 -6 0
v -49 -7 0
v -50 -7 0
v -50 -6 0
v -49 -6 0
v 0 -8 0
v -1 -8 0
v -1 -7 0
v 0 -7 0
v -1 -8 0
v -2 -8 0
v -2 -7 0
v -1 -7 0
v -2 -8 0
v -3 -8 0
v -3 -7 0
v -2 -7 0
v -8 -8 0
v -9 -8 0
v -9 -7 0
v -8 -7 0
v -9 -8 0
v -10 -8 0
v -10 -7 0
v -9 -7 0
v -10 -8 0
v -11 -8 0
v -11 -7 0
v -10 -7 0
v -16 -8 0
v -17 -8 0
v -17 -7 0
v -16 -7 0
v -17 -8 0
v -18 -8 0
v -18 -7 0
v -17 -7 0
v -18 -8 0
v -19 -8 0
v -19 -7 0
v -18 -7 0
v -31 -8 0
v -32 -8 0
v -32 -7 0
v -31 -7 0
v -32 -8 0
v -33 -8 0
v -33 -7 0
v -32 -7 0
v -33 -8 0
v -34 -8 0
v -34 -7 0
v -33 -7 0
v -39 -8 0
v -40 -8 0
v -40 -7 0
v -39 -7 0
v -40 -8 0
v -41 -8 0
v -41 -7 0
v -40 -7 0
v -41 -8 0
v -42 -8 0
v -42 -7 0
v -41 -7 0
v -47 -8 0
v -48 -8 0
v -48 -7 0
v -47 -7 0
v -48 -8 0
v -49 -8 0
v -49 -7 0
v -48 -7 0
v -49 -8 0
v -50 -8 0
v -50 -7 0
v -49 -7 0
v 0 -9 0
v -1 -9 0
v -1 -8 0
v 0 -8 0
v -1 -9 0
v -2 -9 0
v -2 -8 0
v -1 -8 0
v -2 -9 0
v -3 -9 0
v -3 -8 0
v -2 -8 0
v -8 -9 0
v -9 -9 0
v -9 -8 0
v -8 -8 0
v -9 -9 0
v -10 -9 0
v -10 -8 0
v -9 -8 0
v -10 -9 0
v -11 -9 0
v -11 -8 0
v -10 -8 0
v -16 -9 0
v -17 -9 0
v -17 -8 0
v -16 -8 0
v -17 -9 0
v -18 -9 0
v -18 -8 0
v -17 -8 0
v -18 -9 0
v -19 -9 0
v -19 -8 0
v -18 -8 0
v -31 -9 0
v -32 -9 0
v -32 -8 0
v -31 -8 0
v -32 -9 0
v -33 -9 0
v -33 -8 0
v -32 -8 0
v -33 -9 0
v -34 -9 0
v -34 -8 0
v -33 -8 0
v -39 -9 0
v -40 -9 0
v -40 -8 0
v -39 -8 0
v -40 -9 0
v -41 -9 0
v -41 -8 0
v -40 -8 0
v -41 -9 0
v -42 -9 0
v -42 -8 0
v -41 -8 0
v -47 -9 0
v -48 -9 0
v -48 -8 0
v -47 -8 0
v -48 -9 0
v -49 -9 0
v -49 -8 0
v -48 -8 0
v -49 -9 0
v -50 -9 0
v -50 -8 0
v -49 -8 0
v 0 -10 0
v -1 -10 0
v -1 -9 0
v 0 -9 0
v -1 -10 0
v -2 -10 0
v -2 -9 0
v -1 -9 0
v -2 -10 0
v -3 -10 0
v -3 -9 0
v -2 -9 0
v -8 -10 0
v -9 -10 0
v -9 -9 0
v -8 -9 0
v -9 -10 0
v -10 -10 0
v -10 -9 0
v -9 -9 0
v -10 -10 0
v -11 -10 0
v -11 -9 0
v -10 -9 0
v -16 -10 0
v -17 -10 0
v -17 -9 0
v -16 -9 0
v -17 -10 0
v -18 -10 0
v -18 -9 0
v -17 -9 0
v -18 -10 0
v -19 -10 0
v -19 -9 0
v -18 -9 0
v -31 -10 0
v -32 -10 0
v -32 -9 0
v -31 -9 0
v -32 -10 0
v -33 -10 0
v -33 -9 0
v -32 -9 0
v -33 -10 0
v -34 -10 0
v -34 -9 0
v -33 -9 0
v -39 -10 0
v -40 -10 0
v -40 -9 0
v -39 -9 0
v -40 -10 0
v -41 -10 0
v -41 -9 0
v -40 -9 0
v -41 -10 0
v -42 -10 0
v -42 -9 0
v -41 -9 0
v -47 -10 0
v -48 -10 0
v -48 -9 0
v -47 -9 0
v -48 -10 0
v -49 -10 0
v -49 -9 0
v -48 -9 0
v -49 -10 0
v -50 -10 0
v -50 -9 0
v -49 -9 0

# Texture cooridinates (Count = 39)
vt 0.075 0.3611111
vt 0.1 0.3611111
vt 0.1 0.3888889
vt 0.075 0.3888889
vt 0.125 0.3611111
vt 0.125 0.3888889
vt 0.15 0.3611111
vt 0.15 0.3888889
vt 0.075 0.3333333
vt 0.1 0.3333333
vt 0.125 0.3333333
vt 0.15 0.3333333
vt 0.075 0.3055556
vt 0.1 0.3055556
vt 0.125 0.3055556
vt 0.15 0.3055556
vt 0.075 0.2777778
vt 0.1 0.2777778
vt 0.125 0.2777778
vt 0.15 0.2777778
vt 0 0.3888889
vt 0.025 0.3888889
vt 0.025 0.4166667
vt 0 0.4166667
vt 0.05 0.3888889
vt 0.05 0.4166667
vt 0.075 0.4166667
vt 0 0.2777778
vt 0.025 0.2777778
vt 0.025 0.3055556
vt 0 0.3055556
vt 0.05 0.2777778
vt 0.05 0.3055556
vt 0 0.3611111
vt 0.025 0.3611111
vt 0.05 0.3611111
vt 0 0.3333333
vt 0.025 0.3333333
vt 0.05 0.3333333

# Normal
vn 0 0 -1

# Mesh description
g Village-Wall_mesh_0012

# Faces
f 1/1/1 2/2/1 3/3/1 4/4/1
f 5/2/1 6/5/1 7/6/1 8/3/1
f 9/5/1 10/7/1 11/8/1 12/6/1
f 13/1/1 14/2/1 15/3/1 16/4/1
f 17/2/1 18/5/1 19/6/1 20/3/1
f 21/5/1 22/7/1 23/8/1 24/6/1
f 25/9/1 26/10/1 27/2/1 28/1/1
f 29/10/1 30/11/1 31/5/1 32/2/1
f 33/11/1 34/12/1 35/7/1 36/5/1
f 37/9/1 38/10/1 39/2/1 40/1/1
f 41/10/1 42/11/1 43/5/1 44/2/1
f 45/11/1 46/12/1 47/7/1 48/5/1
f 49/13/1 50/14/1 51/10/1 52/9/1
f 53/14/1 54/15/1 55/11/1 56/10/1
f 57/15/1 58/16/1 59/12/1 60/11/1
f 61/13/1 62/14/1 63/10/1 64/9/1
f 65/14/1 66/15/1 67/11/1 68/10/1
f 69/15/1 70/16/1 71/12/1 72/11/1
f 73/17/1 74/18/1 75/14/1 76/13/1
f 77/18/1 78/19/1 79/15/1 80/14/1
f 81/19/1 82/20/1 83/16/1 84/15/1
f 85/21/1 86/22/1 87/23/1 88/24/1
f 89/22/1 90/25/1 91/26/1 92/23/1
f 93/25/1 94/4/1 95/27/1 96/26/1
f 97/21/1 98/22/1 99/23/1 100/24/1
f 101/22/1 102/25/1 103/26/1 104/23/1
f 105/25/1 106/4/1 107/27/1 108/26/1
f 109/21/1 110/22/1 111/23/1 112/24/1
f 113/22/1 114/25/1 115/26/1 116/23/1
f 117/25/1 118/4/1 119/27/1 120/26/1
f 121/21/1 122/22/1 123/23/1 124/24/1
f 125/22/1 126/25/1 127/26/1 128/23/1
f 129/25/1 130/4/1 131/27/1 132/26/1
f 133/17/1 134/18/1 135/14/1 136/13/1
f 137/18/1 138/19/1 139/15/1 140/14/1
f 141/19/1 142/20/1 143/16/1 144/15/1
f 145/28/1 146/29/1 147/30/1 148/31/1
f 149/29/1 150/32/1 151/33/1 152/30/1
f 153/32/1 154/17/1 155/13/1 156/33/1
f 157/34/1 158/35/1 159/22/1 160/21/1
f 161/35/1 162/36/1 163/25/1 164/22/1
f 165/36/1 166/1/1 167/4/1 168/25/1
f 169/34/1 170/35/1 171/22/1 172/21/1
f 173/35/1 174/36/1 175/25/1 176/22/1
f 177/36/1 178/1/1 179/4/1 180/25/1
f 181/34/1 182/35/1 183/22/1 184/21/1
f 185/35/1 186/36/1 187/25/1 188/22/1
f 189/36/1 190/1/1 191/4/1 192/25/1
f 193/34/1 194/35/1 195/22/1 196/21/1
f 197/35/1 198/36/1 199/25/1 200/22/1
f 201/36/1 202/1/1 203/4/1 204/25/1
f 205/28/1 206/29/1 207/30/1 208/31/1
f 209/29/1 210/32/1 211/33/1 212/30/1
f 213/32/1 214/17/1 215/13/1 216/33/1
f 217/28/1 218/29/1 219/30/1 220/31/1
f 221/29/1 222/32/1 223/33/1 224/30/1
f 225/32/1 226/17/1 227/13/1 228/33/1
f 229/37/1 230/38/1 231/35/1 232/34/1
f 233/38/1 234/39/1 235/36/1 236/35/1
f 237/39/1 238/9/1 239/1/1 240/36/1
f 241/37/1 242/38/1 243/35/1 244/34/1
f 245/38/1 246/39/1 247/36/1 248/35/1
f 249/39/1 250/9/1 251/1/1 252/36/1
f 253/37/1 254/38/1 255/35/1 256/34/1
f 257/38/1 258/39/1 259/36/1 260/35/1
f 261/39/1 262/9/1 263/1/1 264/36/1
f 265/37/1 266/38/1 267/35/1 268/34/1
f 269/38/1 270/39/1 271/36/1 272/35/1
f 273/39/1 274/9/1 275/1/1 276/36/1
f 277/28/1 278/29/1 279/30/1 280/31/1
f 281/29/1 282/32/1 283/33/1 284/30/1
f 285/32/1 286/17/1 287/13/1 288/33/1
f 289/28/1 290/29/1 291/30/1 292/31/1
f 293/29/1 294/32/1 295/33/1 296/30/1
f 297/32/1 298/17/1 299/13/1 300/33/1
f 301/31/1 302/30/1 303/38/1 304/37/1
f 305/30/1 306/33/1 307/39/1 308/38/1
f 309/33/1 310/13/1 311/9/1 312/39/1
f 313/31/1 314/30/1 315/38/1 316/37/1
f 317/30/1 318/33/1 319/39/1 320/38/1
f 321/33/1 322/13/1 323/9/1 324/39/1
f 325/31/1 326/30/1 327/38/1 328/37/1
f 329/30/1 330/33/1 331/39/1 332/38/1
f 333/33/1 334/13/1 335/9/1 336/39/1
f 337/31/1 338/30/1 339/38/1 340/37/1
f 341/30/1 342/33/1 343/39/1 344/38/1
f 345/33/1 346/13/1 347/9/1 348/39/1
f 349/28/1 350/29/1 351/30/1 352/31/1
f 353/29/1 354/32/1 355/33/1 356/30/1
f 357/32/1 358/17/1 359/13/1 360/33/1

