# Tiled2Unity generated file. Do not modify by hand.
# Wavefront file for 'Village-Wall_mesh_0007.obj'

# Vertices (Count = 1184)
v 0 -8 0
v -1 -8 0
v -1 -7 0
v 0 -7 0
v -1 -8 0
v -2 -8 0
v -2 -7 0
v -1 -7 0
v -2 -8 0
v -3 -8 0
v -3 -7 0
v -2 -7 0
v -3 -8 0
v -4 -8 0
v -4 -7 0
v -3 -7 0
v -4 -8 0
v -5 -8 0
v -5 -7 0
v -4 -7 0
v -5 -8 0
v -6 -8 0
v -6 -7 0
v -5 -7 0
v -6 -8 0
v -7 -8 0
v -7 -7 0
v -6 -7 0
v -7 -8 0
v -8 -8 0
v -8 -7 0
v -7 -7 0
v -8 -8 0
v -9 -8 0
v -9 -7 0
v -8 -7 0
v -9 -8 0
v -10 -8 0
v -10 -7 0
v -9 -7 0
v -10 -8 0
v -11 -8 0
v -11 -7 0
v -10 -7 0
v -11 -8 0
v -12 -8 0
v -12 -7 0
v -11 -7 0
v -12 -8 0
v -13 -8 0
v -13 -7 0
v -12 -7 0
v -13 -8 0
v -14 -8 0
v -14 -7 0
v -13 -7 0
v -14 -8 0
v -15 -8 0
v -15 -7 0
v -14 -7 0
v -15 -8 0
v -16 -8 0
v -16 -7 0
v -15 -7 0
v -16 -8 0
v -17 -8 0
v -17 -7 0
v -16 -7 0
v -17 -8 0
v -18 -8 0
v -18 -7 0
v -17 -7 0
v -18 -8 0
v -19 -8 0
v -19 -7 0
v -18 -7 0
v -19 -8 0
v -20 -8 0
v -20 -7 0
v -19 -7 0
v -20 -8 0
v -21 -8 0
v -21 -7 0
v -20 -7 0
v -21 -8 0
v -22 -8 0
v -22 -7 0
v -21 -7 0
v -22 -8 0
v -23 -8 0
v -23 -7 0
v -22 -7 0
v -23 -8 0
v -24 -8 0
v -24 -7 0
v -23 -7 0
v -24 -8 0
v -25 -8 0
v -25 -7 0
v -24 -7 0
v -25 -8 0
v -26 -8 0
v -26 -7 0
v -25 -7 0
v -26 -8 0
v -27 -8 0
v -27 -7 0
v -26 -7 0
v -27 -8 0
v -28 -8 0
v -28 -7 0
v -27 -7 0
v -28 -8 0
v -29 -8 0
v -29 -7 0
v -28 -7 0
v -29 -8 0
v -30 -8 0
v -30 -7 0
v -29 -7 0
v -30 -8 0
v -31 -8 0
v -31 -7 0
v -30 -7 0
v -31 -8 0
v -32 -8 0
v -32 -7 0
v -31 -7 0
v -32 -8 0
v -33 -8 0
v -33 -7 0
v -32 -7 0
v -33 -8 0
v -34 -8 0
v -34 -7 0
v -33 -7 0
v -34 -8 0
v -35 -8 0
v -35 -7 0
v -34 -7 0
v -35 -8 0
v -36 -8 0
v -36 -7 0
v -35 -7 0
v -36 -8 0
v -37 -8 0
v -37 -7 0
v -36 -7 0
v -37 -8 0
v -38 -8 0
v -38 -7 0
v -37 -7 0
v -38 -8 0
v -39 -8 0
v -39 -7 0
v -38 -7 0
v -39 -8 0
v -40 -8 0
v -40 -7 0
v -39 -7 0
v -40 -8 0
v -41 -8 0
v -41 -7 0
v -40 -7 0
v -41 -8 0
v -42 -8 0
v -42 -7 0
v -41 -7 0
v -42 -8 0
v -43 -8 0
v -43 -7 0
v -42 -7 0
v -43 -8 0
v -44 -8 0
v -44 -7 0
v -43 -7 0
v -44 -8 0
v -45 -8 0
v -45 -7 0
v -44 -7 0
v -45 -8 0
v -46 -8 0
v -46 -7 0
v -45 -7 0
v -46 -8 0
v -47 -8 0
v -47 -7 0
v -46 -7 0
v -47 -8 0
v -48 -8 0
v -48 -7 0
v -47 -7 0
v -48 -8 0
v -49 -8 0
v -49 -7 0
v -48 -7 0
v -49 -8 0
v -50 -8 0
v -50 -7 0
v -49 -7 0
v 0 -9 0
v -1 -9 0
v -1 -8 0
v 0 -8 0
v -1 -9 0
v -2 -9 0
v -2 -8 0
v -1 -8 0
v -2 -9 0
v -3 -9 0
v -3 -8 0
v -2 -8 0
v -3 -9 0
v -4 -9 0
v -4 -8 0
v -3 -8 0
v -4 -9 0
v -5 -9 0
v -5 -8 0
v -4 -8 0
v -5 -9 0
v -6 -9 0
v -6 -8 0
v -5 -8 0
v -6 -9 0
v -7 -9 0
v -7 -8 0
v -6 -8 0
v -7 -9 0
v -8 -9 0
v -8 -8 0
v -7 -8 0
v -8 -9 0
v -9 -9 0
v -9 -8 0
v -8 -8 0
v -9 -9 0
v -10 -9 0
v -10 -8 0
v -9 -8 0
v -10 -9 0
v -11 -9 0
v -11 -8 0
v -10 -8 0
v -11 -9 0
v -12 -9 0
v -12 -8 0
v -11 -8 0
v -12 -9 0
v -13 -9 0
v -13 -8 0
v -12 -8 0
v -13 -9 0
v -14 -9 0
v -14 -8 0
v -13 -8 0
v -14 -9 0
v -15 -9 0
v -15 -8 0
v -14 -8 0
v -15 -9 0
v -16 -9 0
v -16 -8 0
v -15 -8 0
v -16 -9 0
v -17 -9 0
v -17 -8 0
v -16 -8 0
v -17 -9 0
v -18 -9 0
v -18 -8 0
v -17 -8 0
v -18 -9 0
v -19 -9 0
v -19 -8 0
v -18 -8 0
v -19 -9 0
v -20 -9 0
v -20 -8 0
v -19 -8 0
v -20 -9 0
v -21 -9 0
v -21 -8 0
v -20 -8 0
v -21 -9 0
v -22 -9 0
v -22 -8 0
v -21 -8 0
v -22 -9 0
v -23 -9 0
v -23 -8 0
v -22 -8 0
v -23 -9 0
v -24 -9 0
v -24 -8 0
v -23 -8 0
v -24 -9 0
v -25 -9 0
v -25 -8 0
v -24 -8 0
v -25 -9 0
v -26 -9 0
v -26 -8 0
v -25 -8 0
v -26 -9 0
v -27 -9 0
v -27 -8 0
v -26 -8 0
v -27 -9 0
v -28 -9 0
v -28 -8 0
v -27 -8 0
v -28 -9 0
v -29 -9 0
v -29 -8 0
v -28 -8 0
v -29 -9 0
v -30 -9 0
v -30 -8 0
v -29 -8 0
v -30 -9 0
v -31 -9 0
v -31 -8 0
v -30 -8 0
v -31 -9 0
v -32 -9 0
v -32 -8 0
v -31 -8 0
v -32 -9 0
v -33 -9 0
v -33 -8 0
v -32 -8 0
v -33 -9 0
v -34 -9 0
v -34 -8 0
v -33 -8 0
v -34 -9 0
v -35 -9 0
v -35 -8 0
v -34 -8 0
v -35 -9 0
v -36 -9 0
v -36 -8 0
v -35 -8 0
v -36 -9 0
v -37 -9 0
v -37 -8 0
v -36 -8 0
v -37 -9 0
v -38 -9 0
v -38 -8 0
v -37 -8 0
v -38 -9 0
v -39 -9 0
v -39 -8 0
v -38 -8 0
v -39 -9 0
v -40 -9 0
v -40 -8 0
v -39 -8 0
v -40 -9 0
v -41 -9 0
v -41 -8 0
v -40 -8 0
v -41 -9 0
v -42 -9 0
v -42 -8 0
v -41 -8 0
v -42 -9 0
v -43 -9 0
v -43 -8 0
v -42 -8 0
v -43 -9 0
v -44 -9 0
v -44 -8 0
v -43 -8 0
v -44 -9 0
v -45 -9 0
v -45 -8 0
v -44 -8 0
v -45 -9 0
v -46 -9 0
v -46 -8 0
v -45 -8 0
v -46 -9 0
v -47 -9 0
v -47 -8 0
v -46 -8 0
v -47 -9 0
v -48 -9 0
v -48 -8 0
v -47 -8 0
v -48 -9 0
v -49 -9 0
v -49 -8 0
v -48 -8 0
v -49 -9 0
v -50 -9 0
v -50 -8 0
v -49 -8 0
v 0 -10 0
v -1 -10 0
v -1 -9 0
v 0 -9 0
v -1 -10 0
v -2 -10 0
v -2 -9 0
v -1 -9 0
v -2 -10 0
v -3 -10 0
v -3 -9 0
v -2 -9 0
v -3 -10 0
v -4 -10 0
v -4 -9 0
v -3 -9 0
v -4 -10 0
v -5 -10 0
v -5 -9 0
v -4 -9 0
v -5 -10 0
v -6 -10 0
v -6 -9 0
v -5 -9 0
v -6 -10 0
v -7 -10 0
v -7 -9 0
v -6 -9 0
v -7 -10 0
v -8 -10 0
v -8 -9 0
v -7 -9 0
v -8 -10 0
v -9 -10 0
v -9 -9 0
v -8 -9 0
v -9 -10 0
v -10 -10 0
v -10 -9 0
v -9 -9 0
v -10 -10 0
v -11 -10 0
v -11 -9 0
v -10 -9 0
v -11 -10 0
v -12 -10 0
v -12 -9 0
v -11 -9 0
v -12 -10 0
v -13 -10 0
v -13 -9 0
v -12 -9 0
v -13 -10 0
v -14 -10 0
v -14 -9 0
v -13 -9 0
v -14 -10 0
v -15 -10 0
v -15 -9 0
v -14 -9 0
v -15 -10 0
v -16 -10 0
v -16 -9 0
v -15 -9 0
v -16 -10 0
v -17 -10 0
v -17 -9 0
v -16 -9 0
v -17 -10 0
v -18 -10 0
v -18 -9 0
v -17 -9 0
v -18 -10 0
v -19 -10 0
v -19 -9 0
v -18 -9 0
v -19 -10 0
v -20 -10 0
v -20 -9 0
v -19 -9 0
v -20 -10 0
v -21 -10 0
v -21 -9 0
v -20 -9 0
v -21 -10 0
v -22 -10 0
v -22 -9 0
v -21 -9 0
v -22 -10 0
v -23 -10 0
v -23 -9 0
v -22 -9 0
v -23 -10 0
v -24 -10 0
v -24 -9 0
v -23 -9 0
v -24 -10 0
v -25 -10 0
v -25 -9 0
v -24 -9 0
v -25 -10 0
v -26 -10 0
v -26 -9 0
v -25 -9 0
v -26 -10 0
v -27 -10 0
v -27 -9 0
v -26 -9 0
v -27 -10 0
v -28 -10 0
v -28 -9 0
v -27 -9 0
v -28 -10 0
v -29 -10 0
v -29 -9 0
v -28 -9 0
v -29 -10 0
v -30 -10 0
v -30 -9 0
v -29 -9 0
v -30 -10 0
v -31 -10 0
v -31 -9 0
v -30 -9 0
v -31 -10 0
v -32 -10 0
v -32 -9 0
v -31 -9 0
v -32 -10 0
v -33 -10 0
v -33 -9 0
v -32 -9 0
v -33 -10 0
v -34 -10 0
v -34 -9 0
v -33 -9 0
v -34 -10 0
v -35 -10 0
v -35 -9 0
v -34 -9 0
v -35 -10 0
v -36 -10 0
v -36 -9 0
v -35 -9 0
v -36 -10 0
v -37 -10 0
v -37 -9 0
v -36 -9 0
v -37 -10 0
v -38 -10 0
v -38 -9 0
v -37 -9 0
v -38 -10 0
v -39 -10 0
v -39 -9 0
v -38 -9 0
v -39 -10 0
v -40 -10 0
v -40 -9 0
v -39 -9 0
v -40 -10 0
v -41 -10 0
v -41 -9 0
v -40 -9 0
v -41 -10 0
v -42 -10 0
v -42 -9 0
v -41 -9 0
v -42 -10 0
v -43 -10 0
v -43 -9 0
v -42 -9 0
v -43 -10 0
v -44 -10 0
v -44 -9 0
v -43 -9 0
v -44 -10 0
v -45 -10 0
v -45 -9 0
v -44 -9 0
v -45 -10 0
v -46 -10 0
v -46 -9 0
v -45 -9 0
v -46 -10 0
v -47 -10 0
v -47 -9 0
v -46 -9 0
v -47 -10 0
v -48 -10 0
v -48 -9 0
v -47 -9 0
v -48 -10 0
v -49 -10 0
v -49 -9 0
v -48 -9 0
v -49 -10 0
v -50 -10 0
v -50 -9 0
v -49 -9 0
v 0 -17 0
v -1 -17 0
v -1 -16 0
v 0 -16 0
v -1 -17 0
v -2 -17 0
v -2 -16 0
v -1 -16 0
v -2 -17 0
v -3 -17 0
v -3 -16 0
v -2 -16 0
v -3 -17 0
v -4 -17 0
v -4 -16 0
v -3 -16 0
v -4 -17 0
v -5 -17 0
v -5 -16 0
v -4 -16 0
v -5 -17 0
v -6 -17 0
v -6 -16 0
v -5 -16 0
v -6 -17 0
v -7 -17 0
v -7 -16 0
v -6 -16 0
v -7 -17 0
v -8 -17 0
v -8 -16 0
v -7 -16 0
v -8 -17 0
v -9 -17 0
v -9 -16 0
v -8 -16 0
v -9 -17 0
v -10 -17 0
v -10 -16 0
v -9 -16 0
v -10 -17 0
v -11 -17 0
v -11 -16 0
v -10 -16 0
v -11 -17 0
v -12 -17 0
v -12 -16 0
v -11 -16 0
v -12 -17 0
v -13 -17 0
v -13 -16 0
v -12 -16 0
v -13 -17 0
v -14 -17 0
v -14 -16 0
v -13 -16 0
v -14 -17 0
v -15 -17 0
v -15 -16 0
v -14 -16 0
v -15 -17 0
v -16 -17 0
v -16 -16 0
v -15 -16 0
v -16 -17 0
v -17 -17 0
v -17 -16 0
v -16 -16 0
v -17 -17 0
v -18 -17 0
v -18 -16 0
v -17 -16 0
v -18 -17 0
v -19 -17 0
v -19 -16 0
v -18 -16 0
v -19 -17 0
v -20 -17 0
v -20 -16 0
v -19 -16 0
v -20 -17 0
v -21 -17 0
v -21 -16 0
v -20 -16 0
v -21 -17 0
v -22 -17 0
v -22 -16 0
v -21 -16 0
v -22 -17 0
v -23 -17 0
v -23 -16 0
v -22 -16 0
v -23 -17 0
v -24 -17 0
v -24 -16 0
v -23 -16 0
v -24 -17 0
v -25 -17 0
v -25 -16 0
v -24 -16 0
v -25 -17 0
v -26 -17 0
v -26 -16 0
v -25 -16 0
v -26 -17 0
v -27 -17 0
v -27 -16 0
v -26 -16 0
v -27 -17 0
v -28 -17 0
v -28 -16 0
v -27 -16 0
v -28 -17 0
v -29 -17 0
v -29 -16 0
v -28 -16 0
v -29 -17 0
v -30 -17 0
v -30 -16 0
v -29 -16 0
v -30 -17 0
v -31 -17 0
v -31 -16 0
v -30 -16 0
v -31 -17 0
v -32 -17 0
v -32 -16 0
v -31 -16 0
v -32 -17 0
v -33 -17 0
v -33 -16 0
v -32 -16 0
v -33 -17 0
v -34 -17 0
v -34 -16 0
v -33 -16 0
v -34 -17 0
v -35 -17 0
v -35 -16 0
v -34 -16 0
v -35 -17 0
v -36 -17 0
v -36 -16 0
v -35 -16 0
v -36 -17 0
v -37 -17 0
v -37 -16 0
v -36 -16 0
v -37 -17 0
v -38 -17 0
v -38 -16 0
v -37 -16 0
v -38 -17 0
v -39 -17 0
v -39 -16 0
v -38 -16 0
v -39 -17 0
v -40 -17 0
v -40 -16 0
v -39 -16 0
v -40 -17 0
v -41 -17 0
v -41 -16 0
v -40 -16 0
v -41 -17 0
v -42 -17 0
v -42 -16 0
v -41 -16 0
v -42 -17 0
v -43 -17 0
v -43 -16 0
v -42 -16 0
v -43 -17 0
v -44 -17 0
v -44 -16 0
v -43 -16 0
v -44 -17 0
v -45 -17 0
v -45 -16 0
v -44 -16 0
v -45 -17 0
v -46 -17 0
v -46 -16 0
v -45 -16 0
v -46 -17 0
v -47 -17 0
v -47 -16 0
v -46 -16 0
v -47 -17 0
v -48 -17 0
v -48 -16 0
v -47 -16 0
v -48 -17 0
v -49 -17 0
v -49 -16 0
v -48 -16 0
v -49 -17 0
v -50 -17 0
v -50 -16 0
v -49 -16 0
v 0 -18 0
v -1 -18 0
v -1 -17 0
v 0 -17 0
v -1 -18 0
v -2 -18 0
v -2 -17 0
v -1 -17 0
v -2 -18 0
v -3 -18 0
v -3 -17 0
v -2 -17 0
v -3 -18 0
v -4 -18 0
v -4 -17 0
v -3 -17 0
v -4 -18 0
v -5 -18 0
v -5 -17 0
v -4 -17 0
v -5 -18 0
v -6 -18 0
v -6 -17 0
v -5 -17 0
v -6 -18 0
v -7 -18 0
v -7 -17 0
v -6 -17 0
v -7 -18 0
v -8 -18 0
v -8 -17 0
v -7 -17 0
v -8 -18 0
v -9 -18 0
v -9 -17 0
v -8 -17 0
v -9 -18 0
v -10 -18 0
v -10 -17 0
v -9 -17 0
v -10 -18 0
v -11 -18 0
v -11 -17 0
v -10 -17 0
v -11 -18 0
v -12 -18 0
v -12 -17 0
v -11 -17 0
v -12 -18 0
v -13 -18 0
v -13 -17 0
v -12 -17 0
v -13 -18 0
v -14 -18 0
v -14 -17 0
v -13 -17 0
v -14 -18 0
v -15 -18 0
v -15 -17 0
v -14 -17 0
v -15 -18 0
v -16 -18 0
v -16 -17 0
v -15 -17 0
v -16 -18 0
v -17 -18 0
v -17 -17 0
v -16 -17 0
v -17 -18 0
v -18 -18 0
v -18 -17 0
v -17 -17 0
v -18 -18 0
v -19 -18 0
v -19 -17 0
v -18 -17 0
v -19 -18 0
v -20 -18 0
v -20 -17 0
v -19 -17 0
v -20 -18 0
v -21 -18 0
v -21 -17 0
v -20 -17 0
v -21 -18 0
v -22 -18 0
v -22 -17 0
v -21 -17 0
v -22 -18 0
v -23 -18 0
v -23 -17 0
v -22 -17 0
v -23 -18 0
v -24 -18 0
v -24 -17 0
v -23 -17 0
v -24 -18 0
v -25 -18 0
v -25 -17 0
v -24 -17 0
v -25 -18 0
v -26 -18 0
v -26 -17 0
v -25 -17 0
v -26 -18 0
v -27 -18 0
v -27 -17 0
v -26 -17 0
v -27 -18 0
v -28 -18 0
v -28 -17 0
v -27 -17 0
v -28 -18 0
v -29 -18 0
v -29 -17 0
v -28 -17 0
v -29 -18 0
v -30 -18 0
v -30 -17 0
v -29 -17 0
v -30 -18 0
v -31 -18 0
v -31 -17 0
v -30 -17 0
v -31 -18 0
v -32 -18 0
v -32 -17 0
v -31 -17 0
v -32 -18 0
v -33 -18 0
v -33 -17 0
v -32 -17 0
v -33 -18 0
v -34 -18 0
v -34 -17 0
v -33 -17 0
v -34 -18 0
v -35 -18 0
v -35 -17 0
v -34 -17 0
v -35 -18 0
v -36 -18 0
v -36 -17 0
v -35 -17 0
v -36 -18 0
v -37 -18 0
v -37 -17 0
v -36 -17 0
v -37 -18 0
v -38 -18 0
v -38 -17 0
v -37 -17 0
v -38 -18 0
v -39 -18 0
v -39 -17 0
v -38 -17 0
v -39 -18 0
v -40 -18 0
v -40 -17 0
v -39 -17 0
v -40 -18 0
v -41 -18 0
v -41 -17 0
v -40 -17 0
v -41 -18 0
v -42 -18 0
v -42 -17 0
v -41 -17 0
v -42 -18 0
v -43 -18 0
v -43 -17 0
v -42 -17 0
v -43 -18 0
v -44 -18 0
v -44 -17 0
v -43 -17 0
v -44 -18 0
v -45 -18 0
v -45 -17 0
v -44 -17 0
v -45 -18 0
v -46 -18 0
v -46 -17 0
v -45 -17 0
v -46 -18 0
v -47 -18 0
v -47 -17 0
v -46 -17 0
v -47 -18 0
v -48 -18 0
v -48 -17 0
v -47 -17 0
v -48 -18 0
v -49 -18 0
v -49 -17 0
v -48 -17 0
v -49 -18 0
v -50 -18 0
v -50 -17 0
v -49 -17 0
v 0 -19 0
v -1 -19 0
v -1 -18 0
v 0 -18 0
v -1 -19 0
v -2 -19 0
v -2 -18 0
v -1 -18 0
v -2 -19 0
v -3 -19 0
v -3 -18 0
v -2 -18 0
v -3 -19 0
v -4 -19 0
v -4 -18 0
v -3 -18 0
v -4 -19 0
v -5 -19 0
v -5 -18 0
v -4 -18 0
v -5 -19 0
v -6 -19 0
v -6 -18 0
v -5 -18 0
v -6 -19 0
v -7 -19 0
v -7 -18 0
v -6 -18 0
v -7 -19 0
v -8 -19 0
v -8 -18 0
v -7 -18 0
v -8 -19 0
v -9 -19 0
v -9 -18 0
v -8 -18 0
v -9 -19 0
v -10 -19 0
v -10 -18 0
v -9 -18 0
v -10 -19 0
v -11 -19 0
v -11 -18 0
v -10 -18 0
v -11 -19 0
v -12 -19 0
v -12 -18 0
v -11 -18 0
v -12 -19 0
v -13 -19 0
v -13 -18 0
v -12 -18 0
v -13 -19 0
v -14 -19 0
v -14 -18 0
v -13 -18 0
v -14 -19 0
v -15 -19 0
v -15 -18 0
v -14 -18 0
v -15 -19 0
v -16 -19 0
v -16 -18 0
v -15 -18 0
v -16 -19 0
v -17 -19 0
v -17 -18 0
v -16 -18 0
v -17 -19 0
v -18 -19 0
v -18 -18 0
v -17 -18 0
v -18 -19 0
v -19 -19 0
v -19 -18 0
v -18 -18 0
v -19 -19 0
v -20 -19 0
v -20 -18 0
v -19 -18 0
v -20 -19 0
v -21 -19 0
v -21 -18 0
v -20 -18 0
v -21 -19 0
v -22 -19 0
v -22 -18 0
v -21 -18 0
v -22 -19 0
v -23 -19 0
v -23 -18 0
v -22 -18 0
v -27 -19 0
v -28 -19 0
v -28 -18 0
v -27 -18 0
v -28 -19 0
v -29 -19 0
v -29 -18 0
v -28 -18 0
v -29 -19 0
v -30 -19 0
v -30 -18 0
v -29 -18 0
v -30 -19 0
v -31 -19 0
v -31 -18 0
v -30 -18 0
v -31 -19 0
v -32 -19 0
v -32 -18 0
v -31 -18 0
v -32 -19 0
v -33 -19 0
v -33 -18 0
v -32 -18 0
v -33 -19 0
v -34 -19 0
v -34 -18 0
v -33 -18 0
v -34 -19 0
v -35 -19 0
v -35 -18 0
v -34 -18 0
v -35 -19 0
v -36 -19 0
v -36 -18 0
v -35 -18 0
v -36 -19 0
v -37 -19 0
v -37 -18 0
v -36 -18 0
v -37 -19 0
v -38 -19 0
v -38 -18 0
v -37 -18 0
v -38 -19 0
v -39 -19 0
v -39 -18 0
v -38 -18 0
v -39 -19 0
v -40 -19 0
v -40 -18 0
v -39 -18 0
v -40 -19 0
v -41 -19 0
v -41 -18 0
v -40 -18 0
v -41 -19 0
v -42 -19 0
v -42 -18 0
v -41 -18 0
v -42 -19 0
v -43 -19 0
v -43 -18 0
v -42 -18 0
v -43 -19 0
v -44 -19 0
v -44 -18 0
v -43 -18 0
v -44 -19 0
v -45 -19 0
v -45 -18 0
v -44 -18 0
v -45 -19 0
v -46 -19 0
v -46 -18 0
v -45 -18 0
v -46 -19 0
v -47 -19 0
v -47 -18 0
v -46 -18 0
v -47 -19 0
v -48 -19 0
v -48 -18 0
v -47 -18 0
v -48 -19 0
v -49 -19 0
v -49 -18 0
v -48 -18 0
v -49 -19 0
v -50 -19 0
v -50 -18 0
v -49 -18 0

# Texture cooridinates (Count = 29)
vt 0.55 0.9722222
vt 0.575 0.9722222
vt 0.575 1
vt 0.55 1
vt 0.6 0.9722222
vt 0.6 1
vt 0.625 0.9722222
vt 0.625 1
vt 0.55 0.9444444
vt 0.575 0.9444444
vt 0.6 0.9444444
vt 0.625 0.9444444
vt 0.55 0.9166667
vt 0.575 0.9166667
vt 0.6 0.9166667
vt 0.725 0.9722222
vt 0.75 0.9722222
vt 0.75 1
vt 0.725 1
vt 0.7 0.9722222
vt 0.7 1
vt 0.625 0.9166667
vt 0.725 0.9444444
vt 0.75 0.9444444
vt 0.7 0.9444444
vt 0.525 0.1111111
vt 0.55 0.1111111
vt 0.55 0.1388889
vt 0.525 0.1388889

# Normal
vn 0 0 -1

# Mesh description
g Village-Wall_mesh_0007

# Faces
f 1/1/1 2/2/1 3/3/1 4/4/1
f 5/2/1 6/5/1 7/6/1 8/3/1
f 9/2/1 10/5/1 11/6/1 12/3/1
f 13/2/1 14/5/1 15/6/1 16/3/1
f 17/2/1 18/5/1 19/6/1 20/3/1
f 21/2/1 22/5/1 23/6/1 24/3/1
f 25/2/1 26/5/1 27/6/1 28/3/1
f 29/2/1 30/5/1 31/6/1 32/3/1
f 33/2/1 34/5/1 35/6/1 36/3/1
f 37/2/1 38/5/1 39/6/1 40/3/1
f 41/2/1 42/5/1 43/6/1 44/3/1
f 45/2/1 46/5/1 47/6/1 48/3/1
f 49/2/1 50/5/1 51/6/1 52/3/1
f 53/2/1 54/5/1 55/6/1 56/3/1
f 57/2/1 58/5/1 59/6/1 60/3/1
f 61/2/1 62/5/1 63/6/1 64/3/1
f 65/2/1 66/5/1 67/6/1 68/3/1
f 69/2/1 70/5/1 71/6/1 72/3/1
f 73/2/1 74/5/1 75/6/1 76/3/1
f 77/2/1 78/5/1 79/6/1 80/3/1
f 81/2/1 82/5/1 83/6/1 84/3/1
f 85/2/1 86/5/1 87/6/1 88/3/1
f 89/2/1 90/5/1 91/6/1 92/3/1
f 93/2/1 94/5/1 95/6/1 96/3/1
f 97/2/1 98/5/1 99/6/1 100/3/1
f 101/2/1 102/5/1 103/6/1 104/3/1
f 105/2/1 106/5/1 107/6/1 108/3/1
f 109/2/1 110/5/1 111/6/1 112/3/1
f 113/2/1 114/5/1 115/6/1 116/3/1
f 117/2/1 118/5/1 119/6/1 120/3/1
f 121/2/1 122/5/1 123/6/1 124/3/1
f 125/2/1 126/5/1 127/6/1 128/3/1
f 129/2/1 130/5/1 131/6/1 132/3/1
f 133/2/1 134/5/1 135/6/1 136/3/1
f 137/2/1 138/5/1 139/6/1 140/3/1
f 141/2/1 142/5/1 143/6/1 144/3/1
f 145/2/1 146/5/1 147/6/1 148/3/1
f 149/2/1 150/5/1 151/6/1 152/3/1
f 153/2/1 154/5/1 155/6/1 156/3/1
f 157/2/1 158/5/1 159/6/1 160/3/1
f 161/2/1 162/5/1 163/6/1 164/3/1
f 165/2/1 166/5/1 167/6/1 168/3/1
f 169/2/1 170/5/1 171/6/1 172/3/1
f 173/2/1 174/5/1 175/6/1 176/3/1
f 177/2/1 178/5/1 179/6/1 180/3/1
f 181/2/1 182/5/1 183/6/1 184/3/1
f 185/2/1 186/5/1 187/6/1 188/3/1
f 189/2/1 190/5/1 191/6/1 192/3/1
f 193/2/1 194/5/1 195/6/1 196/3/1
f 197/5/1 198/7/1 199/8/1 200/6/1
f 201/9/1 202/10/1 203/2/1 204/1/1
f 205/10/1 206/11/1 207/5/1 208/2/1
f 209/10/1 210/11/1 211/5/1 212/2/1
f 213/10/1 214/11/1 215/5/1 216/2/1
f 217/10/1 218/11/1 219/5/1 220/2/1
f 221/10/1 222/11/1 223/5/1 224/2/1
f 225/10/1 226/11/1 227/5/1 228/2/1
f 229/10/1 230/11/1 231/5/1 232/2/1
f 233/10/1 234/11/1 235/5/1 236/2/1
f 237/10/1 238/11/1 239/5/1 240/2/1
f 241/10/1 242/11/1 243/5/1 244/2/1
f 245/10/1 246/11/1 247/5/1 248/2/1
f 249/10/1 250/11/1 251/5/1 252/2/1
f 253/10/1 254/11/1 255/5/1 256/2/1
f 257/10/1 258/11/1 259/5/1 260/2/1
f 261/10/1 262/11/1 263/5/1 264/2/1
f 265/10/1 266/11/1 267/5/1 268/2/1
f 269/10/1 270/11/1 271/5/1 272/2/1
f 273/10/1 274/11/1 275/5/1 276/2/1
f 277/10/1 278/11/1 279/5/1 280/2/1
f 281/10/1 282/11/1 283/5/1 284/2/1
f 285/10/1 286/11/1 287/5/1 288/2/1
f 289/10/1 290/11/1 291/5/1 292/2/1
f 293/10/1 294/11/1 295/5/1 296/2/1
f 297/10/1 298/11/1 299/5/1 300/2/1
f 301/10/1 302/11/1 303/5/1 304/2/1
f 305/10/1 306/11/1 307/5/1 308/2/1
f 309/10/1 310/11/1 311/5/1 312/2/1
f 313/10/1 314/11/1 315/5/1 316/2/1
f 317/10/1 318/11/1 319/5/1 320/2/1
f 321/10/1 322/11/1 323/5/1 324/2/1
f 325/10/1 326/11/1 327/5/1 328/2/1
f 329/10/1 330/11/1 331/5/1 332/2/1
f 333/10/1 334/11/1 335/5/1 336/2/1
f 337/10/1 338/11/1 339/5/1 340/2/1
f 341/10/1 342/11/1 343/5/1 344/2/1
f 345/10/1 346/11/1 347/5/1 348/2/1
f 349/10/1 350/11/1 351/5/1 352/2/1
f 353/10/1 354/11/1 355/5/1 356/2/1
f 357/10/1 358/11/1 359/5/1 360/2/1
f 361/10/1 362/11/1 363/5/1 364/2/1
f 365/10/1 366/11/1 367/5/1 368/2/1
f 369/10/1 370/11/1 371/5/1 372/2/1
f 373/10/1 374/11/1 375/5/1 376/2/1
f 377/10/1 378/11/1 379/5/1 380/2/1
f 381/10/1 382/11/1 383/5/1 384/2/1
f 385/10/1 386/11/1 387/5/1 388/2/1
f 389/10/1 390/11/1 391/5/1 392/2/1
f 393/10/1 394/11/1 395/5/1 396/2/1
f 397/11/1 398/12/1 399/7/1 400/5/1
f 401/13/1 402/14/1 403/10/1 404/9/1
f 405/14/1 406/15/1 407/11/1 408/10/1
f 409/14/1 410/15/1 411/11/1 412/10/1
f 413/14/1 414/15/1 415/11/1 416/10/1
f 417/14/1 418/15/1 419/11/1 420/10/1
f 421/14/1 422/15/1 423/11/1 424/10/1
f 425/14/1 426/15/1 427/11/1 428/10/1
f 429/14/1 430/15/1 431/11/1 432/10/1
f 433/14/1 434/15/1 435/11/1 436/10/1
f 437/14/1 438/15/1 439/11/1 440/10/1
f 441/14/1 442/15/1 443/11/1 444/10/1
f 445/14/1 446/15/1 447/11/1 448/10/1
f 449/16/1 450/17/1 451/18/1 452/19/1
f 453/10/1 454/11/1 455/5/1 456/2/1
f 457/20/1 458/16/1 459/19/1 460/21/1
f 461/14/1 462/15/1 463/11/1 464/10/1
f 465/14/1 466/15/1 467/11/1 468/10/1
f 469/14/1 470/15/1 471/11/1 472/10/1
f 473/14/1 474/15/1 475/11/1 476/10/1
f 477/14/1 478/15/1 479/11/1 480/10/1
f 481/14/1 482/15/1 483/11/1 484/10/1
f 485/14/1 486/15/1 487/11/1 488/10/1
f 489/14/1 490/15/1 491/11/1 492/10/1
f 493/14/1 494/15/1 495/11/1 496/10/1
f 497/14/1 498/15/1 499/11/1 500/10/1
f 501/14/1 502/15/1 503/11/1 504/10/1
f 505/14/1 506/15/1 507/11/1 508/10/1
f 509/14/1 510/15/1 511/11/1 512/10/1
f 513/14/1 514/15/1 515/11/1 516/10/1
f 517/14/1 518/15/1 519/11/1 520/10/1
f 521/14/1 522/15/1 523/11/1 524/10/1
f 525/14/1 526/15/1 527/11/1 528/10/1
f 529/14/1 530/15/1 531/11/1 532/10/1
f 533/14/1 534/15/1 535/11/1 536/10/1
f 537/14/1 538/15/1 539/11/1 540/10/1
f 541/16/1 542/17/1 543/18/1 544/19/1
f 545/10/1 546/11/1 547/5/1 548/2/1
f 549/20/1 550/16/1 551/19/1 552/21/1
f 553/14/1 554/15/1 555/11/1 556/10/1
f 557/14/1 558/15/1 559/11/1 560/10/1
f 561/14/1 562/15/1 563/11/1 564/10/1
f 565/14/1 566/15/1 567/11/1 568/10/1
f 569/14/1 570/15/1 571/11/1 572/10/1
f 573/14/1 574/15/1 575/11/1 576/10/1
f 577/14/1 578/15/1 579/11/1 580/10/1
f 581/14/1 582/15/1 583/11/1 584/10/1
f 585/14/1 586/15/1 587/11/1 588/10/1
f 589/14/1 590/15/1 591/11/1 592/10/1
f 593/14/1 594/15/1 595/11/1 596/10/1
f 597/15/1 598/22/1 599/12/1 600/11/1
f 601/1/1 602/2/1 603/3/1 604/4/1
f 605/2/1 606/5/1 607/6/1 608/3/1
f 609/2/1 610/5/1 611/6/1 612/3/1
f 613/2/1 614/5/1 615/6/1 616/3/1
f 617/2/1 618/5/1 619/6/1 620/3/1
f 621/2/1 622/5/1 623/6/1 624/3/1
f 625/2/1 626/5/1 627/6/1 628/3/1
f 629/2/1 630/5/1 631/6/1 632/3/1
f 633/2/1 634/5/1 635/6/1 636/3/1
f 637/2/1 638/5/1 639/6/1 640/3/1
f 641/2/1 642/5/1 643/6/1 644/3/1
f 645/2/1 646/5/1 647/6/1 648/3/1
f 649/23/1 650/24/1 651/17/1 652/16/1
f 653/10/1 654/11/1 655/5/1 656/2/1
f 657/25/1 658/23/1 659/16/1 660/20/1
f 661/2/1 662/5/1 663/6/1 664/3/1
f 665/2/1 666/5/1 667/6/1 668/3/1
f 669/2/1 670/5/1 671/6/1 672/3/1
f 673/2/1 674/5/1 675/6/1 676/3/1
f 677/2/1 678/5/1 679/6/1 680/3/1
f 681/2/1 682/5/1 683/6/1 684/3/1
f 685/2/1 686/5/1 687/6/1 688/3/1
f 689/2/1 690/5/1 691/6/1 692/3/1
f 693/2/1 694/5/1 695/6/1 696/3/1
f 697/2/1 698/5/1 699/6/1 700/3/1
f 701/2/1 702/5/1 703/6/1 704/3/1
f 705/2/1 706/5/1 707/6/1 708/3/1
f 709/2/1 710/5/1 711/6/1 712/3/1
f 713/2/1 714/5/1 715/6/1 716/3/1
f 717/2/1 718/5/1 719/6/1 720/3/1
f 721/2/1 722/5/1 723/6/1 724/3/1
f 725/2/1 726/5/1 727/6/1 728/3/1
f 729/2/1 730/5/1 731/6/1 732/3/1
f 733/2/1 734/5/1 735/6/1 736/3/1
f 737/2/1 738/5/1 739/6/1 740/3/1
f 741/23/1 742/24/1 743/17/1 744/16/1
f 745/10/1 746/11/1 747/5/1 748/2/1
f 749/25/1 750/23/1 751/16/1 752/20/1
f 753/2/1 754/5/1 755/6/1 756/3/1
f 757/2/1 758/5/1 759/6/1 760/3/1
f 761/2/1 762/5/1 763/6/1 764/3/1
f 765/2/1 766/5/1 767/6/1 768/3/1
f 769/2/1 770/5/1 771/6/1 772/3/1
f 773/2/1 774/5/1 775/6/1 776/3/1
f 777/2/1 778/5/1 779/6/1 780/3/1
f 781/2/1 782/5/1 783/6/1 784/3/1
f 785/2/1 786/5/1 787/6/1 788/3/1
f 789/2/1 790/5/1 791/6/1 792/3/1
f 793/2/1 794/5/1 795/6/1 796/3/1
f 797/5/1 798/7/1 799/8/1 800/6/1
f 801/9/1 802/10/1 803/2/1 804/1/1
f 805/10/1 806/11/1 807/5/1 808/2/1
f 809/10/1 810/11/1 811/5/1 812/2/1
f 813/10/1 814/11/1 815/5/1 816/2/1
f 817/10/1 818/11/1 819/5/1 820/2/1
f 821/10/1 822/11/1 823/5/1 824/2/1
f 825/10/1 826/11/1 827/5/1 828/2/1
f 829/10/1 830/11/1 831/5/1 832/2/1
f 833/10/1 834/11/1 835/5/1 836/2/1
f 837/10/1 838/11/1 839/5/1 840/2/1
f 841/10/1 842/11/1 843/5/1 844/2/1
f 845/10/1 846/11/1 847/5/1 848/2/1
f 849/10/1 850/11/1 851/5/1 852/2/1
f 853/10/1 854/11/1 855/5/1 856/2/1
f 857/10/1 858/11/1 859/5/1 860/2/1
f 861/10/1 862/11/1 863/5/1 864/2/1
f 865/10/1 866/11/1 867/5/1 868/2/1
f 869/10/1 870/11/1 871/5/1 872/2/1
f 873/10/1 874/11/1 875/5/1 876/2/1
f 877/10/1 878/11/1 879/5/1 880/2/1
f 881/10/1 882/11/1 883/5/1 884/2/1
f 885/10/1 886/11/1 887/5/1 888/2/1
f 889/10/1 890/11/1 891/5/1 892/2/1
f 893/10/1 894/11/1 895/5/1 896/2/1
f 897/10/1 898/11/1 899/5/1 900/2/1
f 901/10/1 902/11/1 903/5/1 904/2/1
f 905/10/1 906/11/1 907/5/1 908/2/1
f 909/10/1 910/11/1 911/5/1 912/2/1
f 913/10/1 914/11/1 915/5/1 916/2/1
f 917/10/1 918/11/1 919/5/1 920/2/1
f 921/10/1 922/11/1 923/5/1 924/2/1
f 925/10/1 926/11/1 927/5/1 928/2/1
f 929/10/1 930/11/1 931/5/1 932/2/1
f 933/10/1 934/11/1 935/5/1 936/2/1
f 937/10/1 938/11/1 939/5/1 940/2/1
f 941/10/1 942/11/1 943/5/1 944/2/1
f 945/10/1 946/11/1 947/5/1 948/2/1
f 949/10/1 950/11/1 951/5/1 952/2/1
f 953/10/1 954/11/1 955/5/1 956/2/1
f 957/10/1 958/11/1 959/5/1 960/2/1
f 961/10/1 962/11/1 963/5/1 964/2/1
f 965/10/1 966/11/1 967/5/1 968/2/1
f 969/10/1 970/11/1 971/5/1 972/2/1
f 973/10/1 974/11/1 975/5/1 976/2/1
f 977/10/1 978/11/1 979/5/1 980/2/1
f 981/10/1 982/11/1 983/5/1 984/2/1
f 985/10/1 986/11/1 987/5/1 988/2/1
f 989/10/1 990/11/1 991/5/1 992/2/1
f 993/10/1 994/11/1 995/5/1 996/2/1
f 997/11/1 998/12/1 999/7/1 1000/5/1
f 1001/13/1 1002/14/1 1003/10/1 1004/9/1
f 1005/14/1 1006/15/1 1007/11/1 1008/10/1
f 1009/14/1 1010/15/1 1011/11/1 1012/10/1
f 1013/16/1 1014/17/1 1015/18/1 1016/19/1
f 1017/20/1 1018/16/1 1019/19/1 1020/21/1
f 1021/14/1 1022/15/1 1023/11/1 1024/10/1
f 1025/14/1 1026/15/1 1027/11/1 1028/10/1
f 1029/14/1 1030/15/1 1031/11/1 1032/10/1
f 1033/14/1 1034/15/1 1035/11/1 1036/10/1
f 1037/14/1 1038/15/1 1039/11/1 1040/10/1
f 1041/14/1 1042/15/1 1043/11/1 1044/10/1
f 1045/14/1 1046/15/1 1047/11/1 1048/10/1
f 1049/14/1 1050/15/1 1051/11/1 1052/10/1
f 1053/14/1 1054/15/1 1055/11/1 1056/10/1
f 1057/14/1 1058/15/1 1059/11/1 1060/10/1
f 1061/14/1 1062/15/1 1063/11/1 1064/10/1
f 1065/14/1 1066/15/1 1067/11/1 1068/10/1
f 1069/14/1 1070/15/1 1071/11/1 1072/10/1
f 1073/14/1 1074/15/1 1075/11/1 1076/10/1
f 1077/14/1 1078/15/1 1079/11/1 1080/10/1
f 1081/14/1 1082/15/1 1083/11/1 1084/10/1
f 1085/14/1 1086/15/1 1087/11/1 1088/10/1
f 1089/26/1 1090/27/1 1091/28/1 1092/29/1
f 1093/10/1 1094/11/1 1095/5/1 1096/2/1
f 1097/14/1 1098/15/1 1099/11/1 1100/10/1
f 1101/14/1 1102/15/1 1103/11/1 1104/10/1
f 1105/14/1 1106/15/1 1107/11/1 1108/10/1
f 1109/14/1 1110/15/1 1111/11/1 1112/10/1
f 1113/14/1 1114/15/1 1115/11/1 1116/10/1
f 1117/14/1 1118/15/1 1119/11/1 1120/10/1
f 1121/14/1 1122/15/1 1123/11/1 1124/10/1
f 1125/14/1 1126/15/1 1127/11/1 1128/10/1
f 1129/14/1 1130/15/1 1131/11/1 1132/10/1
f 1133/14/1 1134/15/1 1135/11/1 1136/10/1
f 1137/14/1 1138/15/1 1139/11/1 1140/10/1
f 1141/14/1 1142/15/1 1143/11/1 1144/10/1
f 1145/14/1 1146/15/1 1147/11/1 1148/10/1
f 1149/14/1 1150/15/1 1151/11/1 1152/10/1
f 1153/14/1 1154/15/1 1155/11/1 1156/10/1
f 1157/14/1 1158/15/1 1159/11/1 1160/10/1
f 1161/14/1 1162/15/1 1163/11/1 1164/10/1
f 1165/16/1 1166/17/1 1167/18/1 1168/19/1
f 1169/20/1 1170/16/1 1171/19/1 1172/21/1
f 1173/14/1 1174/15/1 1175/11/1 1176/10/1
f 1177/14/1 1178/15/1 1179/11/1 1180/10/1
f 1181/15/1 1182/22/1 1183/12/1 1184/11/1

