# Tiled2Unity generated file. Do not modify by hand.
# Wavefront file for 'Village-Wall_mesh_0004.obj'

# Vertices (Count = 112)
v -3 -4 0
v -4 -4 0
v -4 -3 0
v -3 -3 0
v -46 -4 0
v -47 -4 0
v -47 -3 0
v -46 -3 0
v -2 -5 0
v -3 -5 0
v -3 -4 0
v -2 -4 0
v -3 -5 0
v -4 -5 0
v -4 -4 0
v -3 -4 0
v -4 -5 0
v -5 -5 0
v -5 -4 0
v -4 -4 0
v -9 -5 0
v -10 -5 0
v -10 -4 0
v -9 -4 0
v -10 -5 0
v -11 -5 0
v -11 -4 0
v -10 -4 0
v -39 -5 0
v -40 -5 0
v -40 -4 0
v -39 -4 0
v -40 -5 0
v -41 -5 0
v -41 -4 0
v -40 -4 0
v -45 -5 0
v -46 -5 0
v -46 -4 0
v -45 -4 0
v -46 -5 0
v -47 -5 0
v -47 -4 0
v -46 -4 0
v -47 -5 0
v -48 -5 0
v -48 -4 0
v -47 -4 0
v -2 -6 0
v -3 -6 0
v -3 -5 0
v -2 -5 0
v -3 -6 0
v -4 -6 0
v -4 -5 0
v -3 -5 0
v -4 -6 0
v -5 -6 0
v -5 -5 0
v -4 -5 0
v -9 -6 0
v -10 -6 0
v -10 -5 0
v -9 -5 0
v -10 -6 0
v -11 -6 0
v -11 -5 0
v -10 -5 0
v -39 -6 0
v -40 -6 0
v -40 -5 0
v -39 -5 0
v -40 -6 0
v -41 -6 0
v -41 -5 0
v -40 -5 0
v -45 -6 0
v -46 -6 0
v -46 -5 0
v -45 -5 0
v -46 -6 0
v -47 -6 0
v -47 -5 0
v -46 -5 0
v -47 -6 0
v -48 -6 0
v -48 -5 0
v -47 -5 0
v -2 -7 0
v -3 -7 0
v -3 -6 0
v -2 -6 0
v -3 -7 0
v -4 -7 0
v -4 -6 0
v -3 -6 0
v -4 -7 0
v -5 -7 0
v -5 -6 0
v -4 -6 0
v -45 -7 0
v -46 -7 0
v -46 -6 0
v -45 -6 0
v -46 -7 0
v -47 -7 0
v -47 -6 0
v -46 -6 0
v -47 -7 0
v -48 -7 0
v -48 -6 0
v -47 -6 0

# Texture cooridinates (Count = 27)
vt 0.2128174 0.8540146
vt 0.2321644 0.8540146
vt 0.2321644 0.8832117
vt 0.2128174 0.8832117
vt 0.1934704 0.8248175
vt 0.2128174 0.8248175
vt 0.1934704 0.8540146
vt 0.2321644 0.8248175
vt 0.2515115 0.8248175
vt 0.2515115 0.8540146
vt 0.7545345 0.7956204
vt 0.7738815 0.7956204
vt 0.7738815 0.8248175
vt 0.7545345 0.8248175
vt 0.7932286 0.7956204
vt 0.7932286 0.8248175
vt 0.1934704 0.7956204
vt 0.2128174 0.7956204
vt 0.2321644 0.7956204
vt 0.2515115 0.7956204
vt 0.7545345 0.7664233
vt 0.7738815 0.7664233
vt 0.7932286 0.7664233
vt 0.1934704 0.7664233
vt 0.2128174 0.7664233
vt 0.2321644 0.7664233
vt 0.2515115 0.7664233

# Normal
vn 0 0 -1

# Mesh description
g Village-Wall_mesh_0004

# Faces
f 1/1/1 2/2/1 3/3/1 4/4/1
f 5/1/1 6/2/1 7/3/1 8/4/1
f 9/5/1 10/6/1 11/1/1 12/7/1
f 13/6/1 14/8/1 15/2/1 16/1/1
f 17/8/1 18/9/1 19/10/1 20/2/1
f 21/11/1 22/12/1 23/13/1 24/14/1
f 25/12/1 26/15/1 27/16/1 28/13/1
f 29/11/1 30/12/1 31/13/1 32/14/1
f 33/12/1 34/15/1 35/16/1 36/13/1
f 37/5/1 38/6/1 39/1/1 40/7/1
f 41/6/1 42/8/1 43/2/1 44/1/1
f 45/8/1 46/9/1 47/10/1 48/2/1
f 49/17/1 50/18/1 51/6/1 52/5/1
f 53/18/1 54/19/1 55/8/1 56/6/1
f 57/19/1 58/20/1 59/9/1 60/8/1
f 61/21/1 62/22/1 63/12/1 64/11/1
f 65/22/1 66/23/1 67/15/1 68/12/1
f 69/21/1 70/22/1 71/12/1 72/11/1
f 73/22/1 74/23/1 75/15/1 76/12/1
f 77/17/1 78/18/1 79/6/1 80/5/1
f 81/18/1 82/19/1 83/8/1 84/6/1
f 85/19/1 86/20/1 87/9/1 88/8/1
f 89/24/1 90/25/1 91/18/1 92/17/1
f 93/25/1 94/26/1 95/19/1 96/18/1
f 97/26/1 98/27/1 99/20/1 100/19/1
f 101/24/1 102/25/1 103/18/1 104/17/1
f 105/25/1 106/26/1 107/19/1 108/18/1
f 109/26/1 110/27/1 111/20/1 112/19/1

