# Tiled2Unity generated file. Do not modify by hand.
# Wavefront file for 'Village-Wall_mesh_0016.obj'

# Vertices (Count = 40)
v -1 -11 0
v -2 -11 0
v -2 -10 0
v -1 -10 0
v -2 -11 0
v -3 -11 0
v -3 -10 0
v -2 -10 0
v -47 -11 0
v -48 -11 0
v -48 -10 0
v -47 -10 0
v -48 -11 0
v -49 -11 0
v -49 -10 0
v -48 -10 0
v -1 -12 0
v -2 -12 0
v -2 -11 0
v -1 -11 0
v -2 -12 0
v -3 -12 0
v -3 -11 0
v -2 -11 0
v -47 -12 0
v -48 -12 0
v -48 -11 0
v -47 -11 0
v -48 -12 0
v -49 -12 0
v -49 -11 0
v -48 -11 0
v -1 -13 0
v -2 -13 0
v -2 -12 0
v -1 -12 0
v -48 -13 0
v -49 -13 0
v -49 -12 0
v -48 -12 0

# Texture cooridinates (Count = 13)
vt 0.075 0.1666667
vt 0.1 0.1666667
vt 0.1 0.1944444
vt 0.075 0.1944444
vt 0.125 0.1666667
vt 0.125 0.1944444
vt 0.075 0.1388889
vt 0.1 0.1388889
vt 0.125 0.1388889
vt 0.075 0.08333331
vt 0.1 0.08333331
vt 0.1 0.1111111
vt 0.075 0.1111111

# Normal
vn 0 0 -1

# Mesh description
g Village-Wall_mesh_0016

# Faces
f 1/1/1 2/2/1 3/3/1 4/4/1
f 5/2/1 6/5/1 7/6/1 8/3/1
f 9/5/1 10/2/1 11/3/1 12/6/1
f 13/2/1 14/1/1 15/4/1 16/3/1
f 17/7/1 18/8/1 19/2/1 20/1/1
f 21/8/1 22/9/1 23/5/1 24/2/1
f 25/9/1 26/8/1 27/2/1 28/5/1
f 29/8/1 30/7/1 31/1/1 32/2/1
f 33/10/1 34/11/1 35/12/1 36/13/1
f 37/11/1 38/10/1 39/13/1 40/12/1

