# Tiled2Unity generated file. Do not modify by hand.
# Wavefront file for 'Village-Wall_mesh_0010.obj'

# Vertices (Count = 208)
v -12 -11 0
v -13 -11 0
v -13 -10 0
v -12 -10 0
v -13 -11 0
v -14 -11 0
v -14 -10 0
v -13 -10 0
v -14 -11 0
v -15 -11 0
v -15 -10 0
v -14 -10 0
v -35 -11 0
v -36 -11 0
v -36 -10 0
v -35 -10 0
v -36 -11 0
v -37 -11 0
v -37 -10 0
v -36 -10 0
v -37 -11 0
v -38 -11 0
v -38 -10 0
v -37 -10 0
v -12 -12 0
v -13 -12 0
v -13 -11 0
v -12 -11 0
v -13 -12 0
v -14 -12 0
v -14 -11 0
v -13 -11 0
v -14 -12 0
v -15 -12 0
v -15 -11 0
v -14 -11 0
v -35 -12 0
v -36 -12 0
v -36 -11 0
v -35 -11 0
v -36 -12 0
v -37 -12 0
v -37 -11 0
v -36 -11 0
v -37 -12 0
v -38 -12 0
v -38 -11 0
v -37 -11 0
v -12 -13 0
v -13 -13 0
v -13 -12 0
v -12 -12 0
v -13 -13 0
v -14 -13 0
v -14 -12 0
v -13 -12 0
v -14 -13 0
v -15 -13 0
v -15 -12 0
v -14 -12 0
v -35 -13 0
v -36 -13 0
v -36 -12 0
v -35 -12 0
v -36 -13 0
v -37 -13 0
v -37 -12 0
v -36 -12 0
v -37 -13 0
v -38 -13 0
v -38 -12 0
v -37 -12 0
v -12 -14 0
v -13 -14 0
v -13 -13 0
v -12 -13 0
v -13 -14 0
v -14 -14 0
v -14 -13 0
v -13 -13 0
v -14 -14 0
v -15 -14 0
v -15 -13 0
v -14 -13 0
v -35 -14 0
v -36 -14 0
v -36 -13 0
v -35 -13 0
v -36 -14 0
v -37 -14 0
v -37 -13 0
v -36 -13 0
v -37 -14 0
v -38 -14 0
v -38 -13 0
v -37 -13 0
v -12 -15 0
v -13 -15 0
v -13 -14 0
v -12 -14 0
v -13 -15 0
v -14 -15 0
v -14 -14 0
v -13 -14 0
v -14 -15 0
v -15 -15 0
v -15 -14 0
v -14 -14 0
v -35 -15 0
v -36 -15 0
v -36 -14 0
v -35 -14 0
v -36 -15 0
v -37 -15 0
v -37 -14 0
v -36 -14 0
v -37 -15 0
v -38 -15 0
v -38 -14 0
v -37 -14 0
v -12 -16 0
v -13 -16 0
v -13 -15 0
v -12 -15 0
v -13 -16 0
v -14 -16 0
v -14 -15 0
v -13 -15 0
v -14 -16 0
v -15 -16 0
v -15 -15 0
v -14 -15 0
v -35 -16 0
v -36 -16 0
v -36 -15 0
v -35 -15 0
v -36 -16 0
v -37 -16 0
v -37 -15 0
v -36 -15 0
v -37 -16 0
v -38 -16 0
v -38 -15 0
v -37 -15 0
v -21 -19 0
v -22 -19 0
v -22 -18 0
v -21 -18 0
v -22 -19 0
v -23 -19 0
v -23 -18 0
v -22 -18 0
v -23 -19 0
v -24 -19 0
v -24 -18 0
v -23 -18 0
v -24 -19 0
v -25 -19 0
v -25 -18 0
v -24 -18 0
v -25 -19 0
v -26 -19 0
v -26 -18 0
v -25 -18 0
v -26 -19 0
v -27 -19 0
v -27 -18 0
v -26 -18 0
v -27 -19 0
v -28 -19 0
v -28 -18 0
v -27 -18 0
v -28 -19 0
v -29 -19 0
v -29 -18 0
v -28 -18 0
v -22 -20 0
v -23 -20 0
v -23 -19 0
v -22 -19 0
v -23 -20 0
v -24 -20 0
v -24 -19 0
v -23 -19 0
v -24 -20 0
v -25 -20 0
v -25 -19 0
v -24 -19 0
v -25 -20 0
v -26 -20 0
v -26 -19 0
v -25 -19 0
v -26 -20 0
v -27 -20 0
v -27 -19 0
v -26 -19 0
v -27 -20 0
v -28 -20 0
v -28 -19 0
v -27 -19 0
v -22 -21 0
v -23 -21 0
v -23 -20 0
v -22 -20 0
v -27 -21 0
v -28 -21 0
v -28 -20 0
v -27 -20 0

# Texture cooridinates (Count = 40)
vt 0.55 0.9444444
vt 0.575 0.9444444
vt 0.575 0.9722222
vt 0.55 0.9722222
vt 0.525 0.1666667
vt 0.55 0.1666667
vt 0.55 0.1944444
vt 0.525 0.1944444
vt 0.6 0.9444444
vt 0.625 0.9444444
vt 0.625 0.9722222
vt 0.6 0.9722222
vt 0.5 0.1388889
vt 0.525 0.1388889
vt 0.5 0.1666667
vt 0.55 0.1388889
vt 0.575 0.1388889
vt 0.575 0.1666667
vt 0.625 0.2777778
vt 0.65 0.2777778
vt 0.65 0.3055556
vt 0.625 0.3055556
vt 0.675 0.2777778
vt 0.675 0.3055556
vt 0.7 0.2777778
vt 0.7 0.3055556
vt 0.725 0.2777778
vt 0.725 0.3055556
vt 0.75 0.2777778
vt 0.75 0.3055556
vt 0.65 0.25
vt 0.675 0.25
vt 0.7 0.25
vt 0.725 0.25
vt 0.875 0.2222222
vt 0.9 0.2222222
vt 0.9 0.25
vt 0.875 0.25
vt 0.85 0.2222222
vt 0.85 0.25

# Normal
vn 0 0 -1

# Mesh description
g Village-Wall_mesh_0010

# Faces
f 1/1/1 2/2/1 3/3/1 4/4/1
f 5/5/1 6/6/1 7/7/1 8/8/1
f 9/9/1 10/10/1 11/11/1 12/12/1
f 13/1/1 14/2/1 15/3/1 16/4/1
f 17/5/1 18/6/1 19/7/1 20/8/1
f 21/9/1 22/10/1 23/11/1 24/12/1
f 25/13/1 26/14/1 27/5/1 28/15/1
f 29/14/1 30/16/1 31/6/1 32/5/1
f 33/16/1 34/17/1 35/18/1 36/6/1
f 37/13/1 38/14/1 39/5/1 40/15/1
f 41/14/1 42/16/1 43/6/1 44/5/1
f 45/16/1 46/17/1 47/18/1 48/6/1
f 49/13/1 50/14/1 51/5/1 52/15/1
f 53/14/1 54/16/1 55/6/1 56/5/1
f 57/16/1 58/17/1 59/18/1 60/6/1
f 61/13/1 62/14/1 63/5/1 64/15/1
f 65/14/1 66/16/1 67/6/1 68/5/1
f 69/16/1 70/17/1 71/18/1 72/6/1
f 73/13/1 74/14/1 75/5/1 76/15/1
f 77/14/1 78/16/1 79/6/1 80/5/1
f 81/16/1 82/17/1 83/18/1 84/6/1
f 85/13/1 86/14/1 87/5/1 88/15/1
f 89/14/1 90/16/1 91/6/1 92/5/1
f 93/16/1 94/17/1 95/18/1 96/6/1
f 97/13/1 98/14/1 99/5/1 100/15/1
f 101/14/1 102/16/1 103/6/1 104/5/1
f 105/16/1 106/17/1 107/18/1 108/6/1
f 109/13/1 110/14/1 111/5/1 112/15/1
f 113/14/1 114/16/1 115/6/1 116/5/1
f 117/16/1 118/17/1 119/18/1 120/6/1
f 121/1/1 122/2/1 123/3/1 124/4/1
f 125/2/1 126/9/1 127/12/1 128/3/1
f 129/9/1 130/10/1 131/11/1 132/12/1
f 133/1/1 134/2/1 135/3/1 136/4/1
f 137/2/1 138/9/1 139/12/1 140/3/1
f 141/9/1 142/10/1 143/11/1 144/12/1
f 145/19/1 146/20/1 147/21/1 148/22/1
f 149/20/1 150/23/1 151/24/1 152/21/1
f 153/23/1 154/25/1 155/26/1 156/24/1
f 157/23/1 158/25/1 159/26/1 160/24/1
f 161/23/1 162/25/1 163/26/1 164/24/1
f 165/23/1 166/25/1 167/26/1 168/24/1
f 169/25/1 170/27/1 171/28/1 172/26/1
f 173/27/1 174/29/1 175/30/1 176/28/1
f 177/31/1 178/32/1 179/23/1 180/20/1
f 181/32/1 182/33/1 183/25/1 184/23/1
f 185/32/1 186/33/1 187/25/1 188/23/1
f 189/32/1 190/33/1 191/25/1 192/23/1
f 193/32/1 194/33/1 195/25/1 196/23/1
f 197/33/1 198/34/1 199/27/1 200/25/1
f 201/35/1 202/36/1 203/37/1 204/38/1
f 205/39/1 206/35/1 207/38/1 208/40/1

