# Tiled2Unity generated file. Do not modify by hand.
# Wavefront file for 'Village-Wall_mesh_0019.obj'

# Vertices (Count = 40)
v -2 -25 0
v -3 -25 0
v -3 -24 0
v -2 -24 0
v -48 -25 0
v -49 -25 0
v -49 -24 0
v -48 -24 0
v -1 -26 0
v -2 -26 0
v -2 -25 0
v -1 -25 0
v -2 -26 0
v -3 -26 0
v -3 -25 0
v -2 -25 0
v -47 -26 0
v -48 -26 0
v -48 -25 0
v -47 -25 0
v -48 -26 0
v -49 -26 0
v -49 -25 0
v -48 -25 0
v -1 -27 0
v -2 -27 0
v -2 -26 0
v -1 -26 0
v -2 -27 0
v -3 -27 0
v -3 -26 0
v -2 -26 0
v -47 -27 0
v -48 -27 0
v -48 -26 0
v -47 -26 0
v -48 -27 0
v -49 -27 0
v -49 -26 0
v -48 -26 0

# Texture cooridinates (Count = 11)
vt 0.05804111 0.2992701
vt 0.07738815 0.2992701
vt 0.07738815 0.3284671
vt 0.05804111 0.3284671
vt 0.03869408 0.270073
vt 0.05804111 0.270073
vt 0.03869408 0.2992701
vt 0.07738815 0.270073
vt 0.03869408 0.2408759
vt 0.05804111 0.2408759
vt 0.07738815 0.2408759

# Normal
vn 0 0 -1

# Mesh description
g Village-Wall_mesh_0019

# Faces
f 1/1/1 2/2/1 3/3/1 4/4/1
f 5/1/1 6/2/1 7/3/1 8/4/1
f 9/5/1 10/6/1 11/1/1 12/7/1
f 13/6/1 14/8/1 15/2/1 16/1/1
f 17/5/1 18/6/1 19/1/1 20/7/1
f 21/6/1 22/8/1 23/2/1 24/1/1
f 25/9/1 26/10/1 27/6/1 28/5/1
f 29/10/1 30/11/1 31/8/1 32/6/1
f 33/9/1 34/10/1 35/6/1 36/5/1
f 37/10/1 38/11/1 39/8/1 40/6/1

