# Tiled2Unity generated file. Do not modify by hand.
# Wavefront file for 'Village-Wall_mesh_0015.obj'

# Vertices (Count = 168)
v 0 -13 0
v -1 -13 0
v -1 -12 0
v 0 -12 0
v -1 -13 0
v -2 -13 0
v -2 -12 0
v -1 -12 0
v -2 -13 0
v -3 -13 0
v -3 -12 0
v -2 -12 0
v -47 -13 0
v -48 -13 0
v -48 -12 0
v -47 -12 0
v -48 -13 0
v -49 -13 0
v -49 -12 0
v -48 -12 0
v -49 -13 0
v -50 -13 0
v -50 -12 0
v -49 -12 0
v 0 -14 0
v -1 -14 0
v -1 -13 0
v 0 -13 0
v -1 -14 0
v -2 -14 0
v -2 -13 0
v -1 -13 0
v -2 -14 0
v -3 -14 0
v -3 -13 0
v -2 -13 0
v -47 -14 0
v -48 -14 0
v -48 -13 0
v -47 -13 0
v -48 -14 0
v -49 -14 0
v -49 -13 0
v -48 -13 0
v -49 -14 0
v -50 -14 0
v -50 -13 0
v -49 -13 0
v 0 -15 0
v -1 -15 0
v -1 -14 0
v 0 -14 0
v -1 -15 0
v -2 -15 0
v -2 -14 0
v -1 -14 0
v -2 -15 0
v -3 -15 0
v -3 -14 0
v -2 -14 0
v -47 -15 0
v -48 -15 0
v -48 -14 0
v -47 -14 0
v -48 -15 0
v -49 -15 0
v -49 -14 0
v -48 -14 0
v -49 -15 0
v -50 -15 0
v -50 -14 0
v -49 -14 0
v 0 -16 0
v -1 -16 0
v -1 -15 0
v 0 -15 0
v -1 -16 0
v -2 -16 0
v -2 -15 0
v -1 -15 0
v -2 -16 0
v -3 -16 0
v -3 -15 0
v -2 -15 0
v -47 -16 0
v -48 -16 0
v -48 -15 0
v -47 -15 0
v -48 -16 0
v -49 -16 0
v -49 -15 0
v -48 -15 0
v -49 -16 0
v -50 -16 0
v -50 -15 0
v -49 -15 0
v 0 -17 0
v -1 -17 0
v -1 -16 0
v 0 -16 0
v -1 -17 0
v -2 -17 0
v -2 -16 0
v -1 -16 0
v -2 -17 0
v -3 -17 0
v -3 -16 0
v -2 -16 0
v -47 -17 0
v -48 -17 0
v -48 -16 0
v -47 -16 0
v -48 -17 0
v -49 -17 0
v -49 -16 0
v -48 -16 0
v -49 -17 0
v -50 -17 0
v -50 -16 0
v -49 -16 0
v 0 -18 0
v -1 -18 0
v -1 -17 0
v 0 -17 0
v -1 -18 0
v -2 -18 0
v -2 -17 0
v -1 -17 0
v -2 -18 0
v -3 -18 0
v -3 -17 0
v -2 -17 0
v -47 -18 0
v -48 -18 0
v -48 -17 0
v -47 -17 0
v -48 -18 0
v -49 -18 0
v -49 -17 0
v -48 -17 0
v -49 -18 0
v -50 -18 0
v -50 -17 0
v -49 -17 0
v 0 -19 0
v -1 -19 0
v -1 -18 0
v 0 -18 0
v -1 -19 0
v -2 -19 0
v -2 -18 0
v -1 -18 0
v -2 -19 0
v -3 -19 0
v -3 -18 0
v -2 -18 0
v -47 -19 0
v -48 -19 0
v -48 -18 0
v -47 -18 0
v -48 -19 0
v -49 -19 0
v -49 -18 0
v -48 -18 0
v -49 -19 0
v -50 -19 0
v -50 -18 0
v -49 -18 0

# Texture cooridinates (Count = 26)
vt 0.075 0.3611111
vt 0.1 0.3611111
vt 0.1 0.3888889
vt 0.075 0.3888889
vt 0.125 0.3611111
vt 0.125 0.3888889
vt 0.15 0.3611111
vt 0.15 0.3888889
vt 0.075 0.3333333
vt 0.1 0.3333333
vt 0.125 0.3333333
vt 0.15 0.3333333
vt 0.075 0.3055556
vt 0.1 0.3055556
vt 0.125 0.3055556
vt 0.15 0.3055556
vt 0.075 0.2777778
vt 0.1 0.2777778
vt 0.125 0.2777778
vt 0.15 0.2777778
vt 0 0.2777778
vt 0.025 0.2777778
vt 0.025 0.3055556
vt 0 0.3055556
vt 0.05 0.2777778
vt 0.05 0.3055556

# Normal
vn 0 0 -1

# Mesh description
g Village-Wall_mesh_0015

# Faces
f 1/1/1 2/2/1 3/3/1 4/4/1
f 5/2/1 6/5/1 7/6/1 8/3/1
f 9/5/1 10/7/1 11/8/1 12/6/1
f 13/1/1 14/2/1 15/3/1 16/4/1
f 17/2/1 18/5/1 19/6/1 20/3/1
f 21/5/1 22/7/1 23/8/1 24/6/1
f 25/9/1 26/10/1 27/2/1 28/1/1
f 29/10/1 30/11/1 31/5/1 32/2/1
f 33/11/1 34/12/1 35/7/1 36/5/1
f 37/9/1 38/10/1 39/2/1 40/1/1
f 41/10/1 42/11/1 43/5/1 44/2/1
f 45/11/1 46/12/1 47/7/1 48/5/1
f 49/13/1 50/14/1 51/10/1 52/9/1
f 53/14/1 54/15/1 55/11/1 56/10/1
f 57/15/1 58/16/1 59/12/1 60/11/1
f 61/13/1 62/14/1 63/10/1 64/9/1
f 65/14/1 66/15/1 67/11/1 68/10/1
f 69/15/1 70/16/1 71/12/1 72/11/1
f 73/17/1 74/18/1 75/14/1 76/13/1
f 77/18/1 78/19/1 79/15/1 80/14/1
f 81/19/1 82/20/1 83/16/1 84/15/1
f 85/17/1 86/18/1 87/14/1 88/13/1
f 89/18/1 90/19/1 91/15/1 92/14/1
f 93/19/1 94/20/1 95/16/1 96/15/1
f 97/21/1 98/22/1 99/23/1 100/24/1
f 101/22/1 102/25/1 103/26/1 104/23/1
f 105/25/1 106/17/1 107/13/1 108/26/1
f 109/21/1 110/22/1 111/23/1 112/24/1
f 113/22/1 114/25/1 115/26/1 116/23/1
f 117/25/1 118/17/1 119/13/1 120/26/1
f 121/21/1 122/22/1 123/23/1 124/24/1
f 125/22/1 126/25/1 127/26/1 128/23/1
f 129/25/1 130/17/1 131/13/1 132/26/1
f 133/21/1 134/22/1 135/23/1 136/24/1
f 137/22/1 138/25/1 139/26/1 140/23/1
f 141/25/1 142/17/1 143/13/1 144/26/1
f 145/21/1 146/22/1 147/23/1 148/24/1
f 149/22/1 150/25/1 151/26/1 152/23/1
f 153/25/1 154/17/1 155/13/1 156/26/1
f 157/21/1 158/22/1 159/23/1 160/24/1
f 161/22/1 162/25/1 163/26/1 164/23/1
f 165/25/1 166/17/1 167/13/1 168/26/1

