# Tiled2Unity generated file. Do not modify by hand.
# Wavefront file for 'Market---copia_mesh_0015.obj'

# Vertices (Count = 20)
v -18 -15 0
v -19 -15 0
v -19 -14 0
v -18 -14 0
v -18 -16 0
v -19 -16 0
v -19 -15 0
v -18 -15 0
v -56 -16 0
v -57 -16 0
v -57 -15 0
v -56 -15 0
v -18 -17 0
v -19 -17 0
v -19 -16 0
v -18 -16 0
v -56 -17 0
v -57 -17 0
v -57 -16 0
v -56 -16 0

# Texture cooridinates (Count = 10)
vt 0 0.5
vt 0.025 0.5
vt 0.025 0.5277778
vt 0 0.5277778
vt 0.1 0.4722222
vt 0.125 0.4722222
vt 0.125 0.5
vt 0.1 0.5
vt 0 0.4722222
vt 0.025 0.4722222

# Normal
vn 0 0 -1

# Mesh description
g Market---copia_mesh_0015

# Faces
f 1/1/1 2/2/1 3/3/1 4/4/1
f 5/5/1 6/6/1 7/7/1 8/8/1
f 9/5/1 10/6/1 11/7/1 12/8/1
f 13/9/1 14/10/1 15/2/1 16/1/1
f 17/9/1 18/10/1 19/2/1 20/1/1

