# Tiled2Unity generated file. Do not modify by hand.
# Wavefront file for 'Market---copia_mesh_0008.obj'

# Vertices (Count = 404)
v 0 -20 0
v -1 -20 0
v -1 -19 0
v 0 -19 0
v -1 -20 0
v -2 -20 0
v -2 -19 0
v -1 -19 0
v -2 -20 0
v -3 -20 0
v -3 -19 0
v -2 -19 0
v -3 -20 0
v -4 -20 0
v -4 -19 0
v -3 -19 0
v -4 -20 0
v -5 -20 0
v -5 -19 0
v -4 -19 0
v -5 -20 0
v -6 -20 0
v -6 -19 0
v -5 -19 0
v -6 -20 0
v -7 -20 0
v -7 -19 0
v -6 -19 0
v -7 -20 0
v -8 -20 0
v -8 -19 0
v -7 -19 0
v -8 -20 0
v -9 -20 0
v -9 -19 0
v -8 -19 0
v -9 -20 0
v -10 -20 0
v -10 -19 0
v -9 -19 0
v -10 -20 0
v -11 -20 0
v -11 -19 0
v -10 -19 0
v -10 -21 0
v -11 -21 0
v -11 -20 0
v -10 -20 0
v -10 -22 0
v -11 -22 0
v -11 -21 0
v -10 -21 0
v -48 -22 0
v -49 -22 0
v -49 -21 0
v -48 -21 0
v -50 -22 0
v -51 -22 0
v -51 -21 0
v -50 -21 0
v 0 -23 0
v -1 -23 0
v -1 -22 0
v 0 -22 0
v -1 -23 0
v -2 -23 0
v -2 -22 0
v -1 -22 0
v -2 -23 0
v -3 -23 0
v -3 -22 0
v -2 -22 0
v -3 -23 0
v -4 -23 0
v -4 -22 0
v -3 -22 0
v -10 -23 0
v -11 -23 0
v -11 -22 0
v -10 -22 0
v -48 -23 0
v -49 -23 0
v -49 -22 0
v -48 -22 0
v -50 -23 0
v -51 -23 0
v -51 -22 0
v -50 -22 0
v -3 -24 0
v -4 -24 0
v -4 -23 0
v -3 -23 0
v -4 -24 0
v -5 -24 0
v -5 -23 0
v -4 -23 0
v -9 -24 0
v -10 -24 0
v -10 -23 0
v -9 -23 0
v -10 -24 0
v -11 -24 0
v -11 -23 0
v -10 -23 0
v -48 -24 0
v -49 -24 0
v -49 -23 0
v -48 -23 0
v -50 -24 0
v -51 -24 0
v -51 -23 0
v -50 -23 0
v -48 -25 0
v -49 -25 0
v -49 -24 0
v -48 -24 0
v -50 -25 0
v -51 -25 0
v -51 -24 0
v -50 -24 0
v -47 -26 0
v -48 -26 0
v -48 -25 0
v -47 -25 0
v -48 -26 0
v -49 -26 0
v -49 -25 0
v -48 -25 0
v -50 -26 0
v -51 -26 0
v -51 -25 0
v -50 -25 0
v -51 -26 0
v -52 -26 0
v -52 -25 0
v -51 -25 0
v -46 -27 0
v -47 -27 0
v -47 -26 0
v -46 -26 0
v -47 -27 0
v -48 -27 0
v -48 -26 0
v -47 -26 0
v -51 -27 0
v -52 -27 0
v -52 -26 0
v -51 -26 0
v -52 -27 0
v -53 -27 0
v -53 -26 0
v -52 -26 0
v -45 -28 0
v -46 -28 0
v -46 -27 0
v -45 -27 0
v -46 -28 0
v -47 -28 0
v -47 -27 0
v -46 -27 0
v -52 -28 0
v -53 -28 0
v -53 -27 0
v -52 -27 0
v -53 -28 0
v -54 -28 0
v -54 -27 0
v -53 -27 0
v -18 -29 0
v -19 -29 0
v -19 -28 0
v -18 -28 0
v -19 -29 0
v -20 -29 0
v -20 -28 0
v -19 -28 0
v -20 -29 0
v -21 -29 0
v -21 -28 0
v -20 -28 0
v -21 -29 0
v -22 -29 0
v -22 -28 0
v -21 -28 0
v -22 -29 0
v -23 -29 0
v -23 -28 0
v -22 -28 0
v -23 -29 0
v -24 -29 0
v -24 -28 0
v -23 -28 0
v -24 -29 0
v -25 -29 0
v -25 -28 0
v -24 -28 0
v -25 -29 0
v -26 -29 0
v -26 -28 0
v -25 -28 0
v -26 -29 0
v -27 -29 0
v -27 -28 0
v -26 -28 0
v -27 -29 0
v -28 -29 0
v -28 -28 0
v -27 -28 0
v -28 -29 0
v -29 -29 0
v -29 -28 0
v -28 -28 0
v -29 -29 0
v -30 -29 0
v -30 -28 0
v -29 -28 0
v -30 -29 0
v -31 -29 0
v -31 -28 0
v -30 -28 0
v -31 -29 0
v -32 -29 0
v -32 -28 0
v -31 -28 0
v -32 -29 0
v -33 -29 0
v -33 -28 0
v -32 -28 0
v -33 -29 0
v -34 -29 0
v -34 -28 0
v -33 -28 0
v -34 -29 0
v -35 -29 0
v -35 -28 0
v -34 -28 0
v -35 -29 0
v -36 -29 0
v -36 -28 0
v -35 -28 0
v -36 -29 0
v -37 -29 0
v -37 -28 0
v -36 -28 0
v -37 -29 0
v -38 -29 0
v -38 -28 0
v -37 -28 0
v -38 -29 0
v -39 -29 0
v -39 -28 0
v -38 -28 0
v -39 -29 0
v -40 -29 0
v -40 -28 0
v -39 -28 0
v -45 -29 0
v -46 -29 0
v -46 -28 0
v -45 -28 0
v -53 -29 0
v -54 -29 0
v -54 -28 0
v -53 -28 0
v -4 -30 0
v -5 -30 0
v -5 -29 0
v -4 -29 0
v -5 -30 0
v -6 -30 0
v -6 -29 0
v -5 -29 0
v -6 -30 0
v -7 -30 0
v -7 -29 0
v -6 -29 0
v -7 -30 0
v -8 -30 0
v -8 -29 0
v -7 -29 0
v -8 -30 0
v -9 -30 0
v -9 -29 0
v -8 -29 0
v -9 -30 0
v -10 -30 0
v -10 -29 0
v -9 -29 0
v -10 -30 0
v -11 -30 0
v -11 -29 0
v -10 -29 0
v -11 -30 0
v -12 -30 0
v -12 -29 0
v -11 -29 0
v -12 -30 0
v -13 -30 0
v -13 -29 0
v -12 -29 0
v -17 -30 0
v -18 -30 0
v -18 -29 0
v -17 -29 0
v -18 -30 0
v -19 -30 0
v -19 -29 0
v -18 -29 0
v -39 -30 0
v -40 -30 0
v -40 -29 0
v -39 -29 0
v -45 -30 0
v -46 -30 0
v -46 -29 0
v -45 -29 0
v -46 -30 0
v -47 -30 0
v -47 -29 0
v -46 -29 0
v -52 -30 0
v -53 -30 0
v -53 -29 0
v -52 -29 0
v -53 -30 0
v -54 -30 0
v -54 -29 0
v -53 -29 0
v -12 -31 0
v -13 -31 0
v -13 -30 0
v -12 -30 0
v -13 -31 0
v -14 -31 0
v -14 -30 0
v -13 -30 0
v -14 -31 0
v -15 -31 0
v -15 -30 0
v -14 -30 0
v -15 -31 0
v -16 -31 0
v -16 -30 0
v -15 -30 0
v -16 -31 0
v -17 -31 0
v -17 -30 0
v -16 -30 0
v -17 -31 0
v -18 -31 0
v -18 -30 0
v -17 -30 0
v -39 -31 0
v -40 -31 0
v -40 -30 0
v -39 -30 0
v -46 -31 0
v -47 -31 0
v -47 -30 0
v -46 -30 0
v -47 -31 0
v -48 -31 0
v -48 -30 0
v -47 -30 0
v -51 -31 0
v -52 -31 0
v -52 -30 0
v -51 -30 0
v -52 -31 0
v -53 -31 0
v -53 -30 0
v -52 -30 0
v -39 -32 0
v -40 -32 0
v -40 -31 0
v -39 -31 0
v -47 -32 0
v -48 -32 0
v -48 -31 0
v -47 -31 0
v -48 -32 0
v -49 -32 0
v -49 -31 0
v -48 -31 0
v -49 -32 0
v -50 -32 0
v -50 -31 0
v -49 -31 0
v -50 -32 0
v -51 -32 0
v -51 -31 0
v -50 -31 0
v -51 -32 0
v -52 -32 0
v -52 -31 0
v -51 -31 0
v -39 -33 0
v -40 -33 0
v -40 -32 0
v -39 -32 0
v -39 -34 0
v -40 -34 0
v -40 -33 0
v -39 -33 0

# Texture cooridinates (Count = 22)
vt 0.125 0.5625
vt 0.1875 0.5625
vt 0.1875 0.625
vt 0.125 0.625
vt 0.25 0.5625
vt 0.25 0.625
vt 0.1875 0.5
vt 0.25 0.5
vt 0.3125 0.5625
vt 0.375 0.5625
vt 0.375 0.625
vt 0.3125 0.625
vt 0.125 0.4375
vt 0.1875 0.4375
vt 0.125 0.5
vt 0.0625 0.5
vt 0.0625 0.5625
vt 0.0625 0.4375
vt 0.25 0.4375
vt 0.0625 0.625
vt 0.3125 0.5
vt 0.375 0.5

# Normal
vn 0 0 -1

# Mesh description
g Market---copia_mesh_0008

# Faces
f 1/1/1 2/2/1 3/3/1 4/4/1
f 5/1/1 6/2/1 7/3/1 8/4/1
f 9/1/1 10/2/1 11/3/1 12/4/1
f 13/1/1 14/2/1 15/3/1 16/4/1
f 17/1/1 18/2/1 19/3/1 20/4/1
f 21/1/1 22/2/1 23/3/1 24/4/1
f 25/1/1 26/2/1 27/3/1 28/4/1
f 29/1/1 30/2/1 31/3/1 32/4/1
f 33/1/1 34/2/1 35/3/1 36/4/1
f 37/1/1 38/2/1 39/3/1 40/4/1
f 41/2/1 42/5/1 43/6/1 44/3/1
f 45/7/1 46/8/1 47/5/1 48/2/1
f 49/7/1 50/8/1 51/5/1 52/2/1
f 53/9/1 54/10/1 55/11/1 56/12/1
f 57/5/1 58/9/1 59/12/1 60/6/1
f 61/13/1 62/14/1 63/7/1 64/15/1
f 65/13/1 66/14/1 67/7/1 68/15/1
f 69/13/1 70/14/1 71/7/1 72/15/1
f 73/9/1 74/10/1 75/11/1 76/12/1
f 77/7/1 78/8/1 79/5/1 80/2/1
f 81/16/1 82/15/1 83/1/1 84/17/1
f 85/7/1 86/8/1 87/5/1 88/2/1
f 89/18/1 90/13/1 91/15/1 92/16/1
f 93/9/1 94/10/1 95/11/1 96/12/1
f 97/5/1 98/9/1 99/12/1 100/6/1
f 101/14/1 102/19/1 103/8/1 104/7/1
f 105/16/1 106/15/1 107/1/1 108/17/1
f 109/7/1 110/8/1 111/5/1 112/2/1
f 113/16/1 114/15/1 115/1/1 116/17/1
f 117/7/1 118/8/1 119/5/1 120/2/1
f 121/17/1 122/1/1 123/4/1 124/20/1
f 125/21/1 126/22/1 127/10/1 128/9/1
f 129/8/1 130/21/1 131/9/1 132/5/1
f 133/2/1 134/5/1 135/6/1 136/3/1
f 137/17/1 138/1/1 139/4/1 140/20/1
f 141/21/1 142/22/1 143/10/1 144/9/1
f 145/8/1 146/21/1 147/9/1 148/5/1
f 149/2/1 150/5/1 151/6/1 152/3/1
f 153/17/1 154/1/1 155/4/1 156/20/1
f 157/21/1 158/22/1 159/10/1 160/9/1
f 161/8/1 162/21/1 163/9/1 164/5/1
f 165/2/1 166/5/1 167/6/1 168/3/1
f 169/17/1 170/1/1 171/4/1 172/20/1
f 173/1/1 174/2/1 175/3/1 176/4/1
f 177/1/1 178/2/1 179/3/1 180/4/1
f 181/1/1 182/2/1 183/3/1 184/4/1
f 185/1/1 186/2/1 187/3/1 188/4/1
f 189/1/1 190/2/1 191/3/1 192/4/1
f 193/1/1 194/2/1 195/3/1 196/4/1
f 197/1/1 198/2/1 199/3/1 200/4/1
f 201/1/1 202/2/1 203/3/1 204/4/1
f 205/1/1 206/2/1 207/3/1 208/4/1
f 209/1/1 210/2/1 211/3/1 212/4/1
f 213/1/1 214/2/1 215/3/1 216/4/1
f 217/1/1 218/2/1 219/3/1 220/4/1
f 221/1/1 222/2/1 223/3/1 224/4/1
f 225/1/1 226/2/1 227/3/1 228/4/1
f 229/1/1 230/2/1 231/3/1 232/4/1
f 233/1/1 234/2/1 235/3/1 236/4/1
f 237/1/1 238/2/1 239/3/1 240/4/1
f 241/1/1 242/2/1 243/3/1 244/4/1
f 245/1/1 246/2/1 247/3/1 248/4/1
f 249/1/1 250/2/1 251/3/1 252/4/1
f 253/2/1 254/5/1 255/6/1 256/3/1
f 257/16/1 258/15/1 259/1/1 260/17/1
f 261/7/1 262/8/1 263/5/1 264/2/1
f 265/1/1 266/2/1 267/3/1 268/4/1
f 269/1/1 270/2/1 271/3/1 272/4/1
f 273/1/1 274/2/1 275/3/1 276/4/1
f 277/1/1 278/2/1 279/3/1 280/4/1
f 281/1/1 282/2/1 283/3/1 284/4/1
f 285/1/1 286/2/1 287/3/1 288/4/1
f 289/1/1 290/2/1 291/3/1 292/4/1
f 293/1/1 294/2/1 295/3/1 296/4/1
f 297/2/1 298/5/1 299/6/1 300/3/1
f 301/17/1 302/1/1 303/4/1 304/20/1
f 305/21/1 306/22/1 307/10/1 308/9/1
f 309/7/1 310/8/1 311/5/1 312/2/1
f 313/18/1 314/13/1 315/15/1 316/16/1
f 317/9/1 318/10/1 319/11/1 320/12/1
f 321/5/1 322/9/1 323/12/1 324/6/1
f 325/14/1 326/19/1 327/8/1 328/7/1
f 329/8/1 330/21/1 331/9/1 332/5/1
f 333/1/1 334/2/1 335/3/1 336/4/1
f 337/1/1 338/2/1 339/3/1 340/4/1
f 341/1/1 342/2/1 343/3/1 344/4/1
f 345/1/1 346/2/1 347/3/1 348/4/1
f 349/21/1 350/22/1 351/10/1 352/9/1
f 353/7/1 354/8/1 355/5/1 356/2/1
f 357/18/1 358/13/1 359/15/1 360/16/1
f 361/9/1 362/10/1 363/11/1 364/12/1
f 365/5/1 366/9/1 367/12/1 368/6/1
f 369/14/1 370/19/1 371/8/1 372/7/1
f 373/7/1 374/8/1 375/5/1 376/2/1
f 377/18/1 378/13/1 379/15/1 380/16/1
f 381/13/1 382/14/1 383/7/1 384/15/1
f 385/13/1 386/14/1 387/7/1 388/15/1
f 389/13/1 390/14/1 391/7/1 392/15/1
f 393/14/1 394/19/1 395/8/1 396/7/1
f 397/7/1 398/8/1 399/5/1 400/2/1
f 401/7/1 402/8/1 403/5/1 404/2/1

