# Tiled2Unity generated file. Do not modify by hand.
# Wavefront file for 'Market---copia_mesh_0020.obj'

# Vertices (Count = 144)
v -19 -31 0
v -20 -31 0
v -20 -30 0
v -19 -30 0
v -20 -31 0
v -21 -31 0
v -21 -30 0
v -20 -30 0
v -21 -31 0
v -22 -31 0
v -22 -30 0
v -21 -30 0
v -29 -31 0
v -30 -31 0
v -30 -30 0
v -29 -30 0
v -30 -31 0
v -31 -31 0
v -31 -30 0
v -30 -30 0
v -31 -31 0
v -32 -31 0
v -32 -30 0
v -31 -30 0
v -19 -32 0
v -20 -32 0
v -20 -31 0
v -19 -31 0
v -20 -32 0
v -21 -32 0
v -21 -31 0
v -20 -31 0
v -21 -32 0
v -22 -32 0
v -22 -31 0
v -21 -31 0
v -24 -32 0
v -25 -32 0
v -25 -31 0
v -24 -31 0
v -25 -32 0
v -26 -32 0
v -26 -31 0
v -25 -31 0
v -26 -32 0
v -27 -32 0
v -27 -31 0
v -26 -31 0
v -29 -32 0
v -30 -32 0
v -30 -31 0
v -29 -31 0
v -30 -32 0
v -31 -32 0
v -31 -31 0
v -30 -31 0
v -31 -32 0
v -32 -32 0
v -32 -31 0
v -31 -31 0
v -34 -32 0
v -35 -32 0
v -35 -31 0
v -34 -31 0
v -35 -32 0
v -36 -32 0
v -36 -31 0
v -35 -31 0
v -36 -32 0
v -37 -32 0
v -37 -31 0
v -36 -31 0
v -19 -33 0
v -20 -33 0
v -20 -32 0
v -19 -32 0
v -20 -33 0
v -21 -33 0
v -21 -32 0
v -20 -32 0
v -21 -33 0
v -22 -33 0
v -22 -32 0
v -21 -32 0
v -24 -33 0
v -25 -33 0
v -25 -32 0
v -24 -32 0
v -25 -33 0
v -26 -33 0
v -26 -32 0
v -25 -32 0
v -26 -33 0
v -27 -33 0
v -27 -32 0
v -26 -32 0
v -29 -33 0
v -30 -33 0
v -30 -32 0
v -29 -32 0
v -30 -33 0
v -31 -33 0
v -31 -32 0
v -30 -32 0
v -31 -33 0
v -32 -33 0
v -32 -32 0
v -31 -32 0
v -34 -33 0
v -35 -33 0
v -35 -32 0
v -34 -32 0
v -35 -33 0
v -36 -33 0
v -36 -32 0
v -35 -32 0
v -36 -33 0
v -37 -33 0
v -37 -32 0
v -36 -32 0
v -24 -34 0
v -25 -34 0
v -25 -33 0
v -24 -33 0
v -25 -34 0
v -26 -34 0
v -26 -33 0
v -25 -33 0
v -26 -34 0
v -27 -34 0
v -27 -33 0
v -26 -33 0
v -34 -34 0
v -35 -34 0
v -35 -33 0
v -34 -33 0
v -35 -34 0
v -36 -34 0
v -36 -33 0
v -35 -33 0
v -36 -34 0
v -37 -34 0
v -37 -33 0
v -36 -33 0

# Texture cooridinates (Count = 44)
vt 0.1875 0.1041667
vt 0.2083333 0.1041667
vt 0.2083333 0.125
vt 0.1875 0.125
vt 0.2291667 0.1041667
vt 0.2291667 0.125
vt 0.25 0.1041667
vt 0.25 0.125
vt 0 0.1041667
vt 0.02083333 0.1041667
vt 0.02083333 0.125
vt 0 0.125
vt 0.04166667 0.1041667
vt 0.04166667 0.125
vt 0.0625 0.1041667
vt 0.0625 0.125
vt 0.1875 0.08333331
vt 0.2083333 0.08333331
vt 0.2291667 0.08333331
vt 0.25 0.08333331
vt 0.125 0.1041667
vt 0.1458333 0.1041667
vt 0.1458333 0.125
vt 0.125 0.125
vt 0.1666667 0.1041667
vt 0.1666667 0.125
vt 0 0.08333331
vt 0.02083333 0.08333331
vt 0.04166667 0.08333331
vt 0.0625 0.08333331
vt 0.1875 0.0625
vt 0.2083333 0.0625
vt 0.2291667 0.0625
vt 0.25 0.0625
vt 0.125 0.08333331
vt 0.1458333 0.08333331
vt 0.1666667 0.08333331
vt 0 0.0625
vt 0.02083333 0.0625
vt 0.04166667 0.0625
vt 0.0625 0.0625
vt 0.125 0.0625
vt 0.1458333 0.0625
vt 0.1666667 0.0625

# Normal
vn 0 0 -1

# Mesh description
g Market---copia_mesh_0020

# Faces
f 1/1/1 2/2/1 3/3/1 4/4/1
f 5/2/1 6/5/1 7/6/1 8/3/1
f 9/5/1 10/7/1 11/8/1 12/6/1
f 13/9/1 14/10/1 15/11/1 16/12/1
f 17/10/1 18/13/1 19/14/1 20/11/1
f 21/13/1 22/15/1 23/16/1 24/14/1
f 25/17/1 26/18/1 27/2/1 28/1/1
f 29/18/1 30/19/1 31/5/1 32/2/1
f 33/19/1 34/20/1 35/7/1 36/5/1
f 37/21/1 38/22/1 39/23/1 40/24/1
f 41/22/1 42/25/1 43/26/1 44/23/1
f 45/25/1 46/1/1 47/4/1 48/26/1
f 49/27/1 50/28/1 51/10/1 52/9/1
f 53/28/1 54/29/1 55/13/1 56/10/1
f 57/29/1 58/30/1 59/15/1 60/13/1
f 61/1/1 62/2/1 63/3/1 64/4/1
f 65/2/1 66/5/1 67/6/1 68/3/1
f 69/5/1 70/7/1 71/8/1 72/6/1
f 73/31/1 74/32/1 75/18/1 76/17/1
f 77/32/1 78/33/1 79/19/1 80/18/1
f 81/33/1 82/34/1 83/20/1 84/19/1
f 85/35/1 86/36/1 87/22/1 88/21/1
f 89/36/1 90/37/1 91/25/1 92/22/1
f 93/37/1 94/17/1 95/1/1 96/25/1
f 97/38/1 98/39/1 99/28/1 100/27/1
f 101/39/1 102/40/1 103/29/1 104/28/1
f 105/40/1 106/41/1 107/30/1 108/29/1
f 109/17/1 110/18/1 111/2/1 112/1/1
f 113/18/1 114/19/1 115/5/1 116/2/1
f 117/19/1 118/20/1 119/7/1 120/5/1
f 121/42/1 122/43/1 123/36/1 124/35/1
f 125/43/1 126/44/1 127/37/1 128/36/1
f 129/44/1 130/31/1 131/17/1 132/37/1
f 133/31/1 134/32/1 135/18/1 136/17/1
f 137/32/1 138/33/1 139/19/1 140/18/1
f 141/33/1 142/34/1 143/20/1 144/19/1

