# Tiled2Unity generated file. Do not modify by hand.
# Wavefront file for 'Market---copia_mesh_0017.obj'

# Vertices (Count = 32)
v -1 -12 0
v -2 -12 0
v -2 -11 0
v -1 -11 0
v -2 -12 0
v -3 -12 0
v -3 -11 0
v -2 -11 0
v -5 -12 0
v -6 -12 0
v -6 -11 0
v -5 -11 0
v -6 -12 0
v -7 -12 0
v -7 -11 0
v -6 -11 0
v -1 -13 0
v -2 -13 0
v -2 -12 0
v -1 -12 0
v -2 -13 0
v -3 -13 0
v -3 -12 0
v -2 -12 0
v -5 -13 0
v -6 -13 0
v -6 -12 0
v -5 -12 0
v -6 -13 0
v -7 -13 0
v -7 -12 0
v -6 -12 0

# Texture cooridinates (Count = 18)
vt 0.2307692 0.6111111
vt 0.2692308 0.6111111
vt 0.2692308 0.6666666
vt 0.2307692 0.6666666
vt 0.3076923 0.6111111
vt 0.3076923 0.6666666
vt 0.6923077 0.8333333
vt 0.7307692 0.8333333
vt 0.7307692 0.8888889
vt 0.6923077 0.8888889
vt 0.7692308 0.8333333
vt 0.7692308 0.8888889
vt 0.2307692 0.5555556
vt 0.2692308 0.5555556
vt 0.3076923 0.5555556
vt 0.6923077 0.7777778
vt 0.7307692 0.7777778
vt 0.7692308 0.7777778

# Normal
vn 0 0 -1

# Mesh description
g Market---copia_mesh_0017

# Faces
f 1/1/1 2/2/1 3/3/1 4/4/1
f 5/2/1 6/5/1 7/6/1 8/3/1
f 9/7/1 10/8/1 11/9/1 12/10/1
f 13/8/1 14/11/1 15/12/1 16/9/1
f 17/13/1 18/14/1 19/2/1 20/1/1
f 21/14/1 22/15/1 23/5/1 24/2/1
f 25/16/1 26/17/1 27/8/1 28/7/1
f 29/17/1 30/18/1 31/11/1 32/8/1

