# Tiled2Unity generated file. Do not modify by hand.
# Wavefront file for 'Market---copia_mesh_0018.obj'

# Vertices (Count = 36)
v -48 -28 0
v -49 -28 0
v -49 -27 0
v -48 -27 0
v -49 -28 0
v -50 -28 0
v -50 -27 0
v -49 -27 0
v -50 -28 0
v -51 -28 0
v -51 -27 0
v -50 -27 0
v -48 -29 0
v -49 -29 0
v -49 -28 0
v -48 -28 0
v -49 -29 0
v -50 -29 0
v -50 -28 0
v -49 -28 0
v -50 -29 0
v -51 -29 0
v -51 -28 0
v -50 -28 0
v -48 -30 0
v -49 -30 0
v -49 -29 0
v -48 -29 0
v -49 -30 0
v -50 -30 0
v -50 -29 0
v -49 -29 0
v -50 -30 0
v -51 -30 0
v -51 -29 0
v -50 -29 0

# Texture cooridinates (Count = 16)
vt 0.55 0.7222222
vt 0.575 0.7222222
vt 0.575 0.75
vt 0.55 0.75
vt 0.6 0.7222222
vt 0.6 0.75
vt 0.625 0.7222222
vt 0.625 0.75
vt 0.55 0.6944444
vt 0.575 0.6944444
vt 0.6 0.6944444
vt 0.625 0.6944444
vt 0.55 0.6666666
vt 0.575 0.6666666
vt 0.6 0.6666666
vt 0.625 0.6666666

# Normal
vn 0 0 -1

# Mesh description
g Market---copia_mesh_0018

# Faces
f 1/1/1 2/2/1 3/3/1 4/4/1
f 5/2/1 6/5/1 7/6/1 8/3/1
f 9/5/1 10/7/1 11/8/1 12/6/1
f 13/9/1 14/10/1 15/2/1 16/1/1
f 17/10/1 18/11/1 19/5/1 20/2/1
f 21/11/1 22/12/1 23/7/1 24/5/1
f 25/13/1 26/14/1 27/10/1 28/9/1
f 29/14/1 30/15/1 31/11/1 32/10/1
f 33/15/1 34/16/1 35/12/1 36/11/1

