# Tiled2Unity generated file. Do not modify by hand.
# Wavefront file for 'Spawn_mesh_0006.obj'

# Vertices (Count = 568)
v -1 -2 0
v -2 -2 0
v -2 -1 0
v -1 -1 0
v -28 -2 0
v -29 -2 0
v -29 -1 0
v -28 -1 0
v -1 -3 0
v -2 -3 0
v -2 -2 0
v -1 -2 0
v -28 -3 0
v -29 -3 0
v -29 -2 0
v -28 -2 0
v -1 -4 0
v -2 -4 0
v -2 -3 0
v -1 -3 0
v -28 -4 0
v -29 -4 0
v -29 -3 0
v -28 -3 0
v -1 -5 0
v -2 -5 0
v -2 -4 0
v -1 -4 0
v -28 -5 0
v -29 -5 0
v -29 -4 0
v -28 -4 0
v -1 -6 0
v -2 -6 0
v -2 -5 0
v -1 -5 0
v -28 -6 0
v -29 -6 0
v -29 -5 0
v -28 -5 0
v -1 -7 0
v -2 -7 0
v -2 -6 0
v -1 -6 0
v -28 -7 0
v -29 -7 0
v -29 -6 0
v -28 -6 0
v -1 -8 0
v -2 -8 0
v -2 -7 0
v -1 -7 0
v -28 -8 0
v -29 -8 0
v -29 -7 0
v -28 -7 0
v -1 -9 0
v -2 -9 0
v -2 -8 0
v -1 -8 0
v -28 -9 0
v -29 -9 0
v -29 -8 0
v -28 -8 0
v -1 -10 0
v -2 -10 0
v -2 -9 0
v -1 -9 0
v -28 -10 0
v -29 -10 0
v -29 -9 0
v -28 -9 0
v -1 -11 0
v -2 -11 0
v -2 -10 0
v -1 -10 0
v -28 -11 0
v -29 -11 0
v -29 -10 0
v -28 -10 0
v -1 -12 0
v -2 -12 0
v -2 -11 0
v -1 -11 0
v -28 -12 0
v -29 -12 0
v -29 -11 0
v -28 -11 0
v -1 -13 0
v -2 -13 0
v -2 -12 0
v -1 -12 0
v -28 -13 0
v -29 -13 0
v -29 -12 0
v -28 -12 0
v -1 -14 0
v -2 -14 0
v -2 -13 0
v -1 -13 0
v -28 -14 0
v -29 -14 0
v -29 -13 0
v -28 -13 0
v -1 -15 0
v -2 -15 0
v -2 -14 0
v -1 -14 0
v -28 -15 0
v -29 -15 0
v -29 -14 0
v -28 -14 0
v -1 -16 0
v -2 -16 0
v -2 -15 0
v -1 -15 0
v -28 -16 0
v -29 -16 0
v -29 -15 0
v -28 -15 0
v -1 -17 0
v -2 -17 0
v -2 -16 0
v -1 -16 0
v -28 -17 0
v -29 -17 0
v -29 -16 0
v -28 -16 0
v -1 -18 0
v -2 -18 0
v -2 -17 0
v -1 -17 0
v -28 -18 0
v -29 -18 0
v -29 -17 0
v -28 -17 0
v -1 -19 0
v -2 -19 0
v -2 -18 0
v -1 -18 0
v -28 -19 0
v -29 -19 0
v -29 -18 0
v -28 -18 0
v -1 -20 0
v -2 -20 0
v -2 -19 0
v -1 -19 0
v -28 -20 0
v -29 -20 0
v -29 -19 0
v -28 -19 0
v -1 -21 0
v -2 -21 0
v -2 -20 0
v -1 -20 0
v -28 -21 0
v -29 -21 0
v -29 -20 0
v -28 -20 0
v -1 -22 0
v -2 -22 0
v -2 -21 0
v -1 -21 0
v -28 -22 0
v -29 -22 0
v -29 -21 0
v -28 -21 0
v -1 -23 0
v -2 -23 0
v -2 -22 0
v -1 -22 0
v -28 -23 0
v -29 -23 0
v -29 -22 0
v -28 -22 0
v -1 -24 0
v -2 -24 0
v -2 -23 0
v -1 -23 0
v -28 -24 0
v -29 -24 0
v -29 -23 0
v -28 -23 0
v -1 -25 0
v -2 -25 0
v -2 -24 0
v -1 -24 0
v -28 -25 0
v -29 -25 0
v -29 -24 0
v -28 -24 0
v -1 -26 0
v -2 -26 0
v -2 -25 0
v -1 -25 0
v -28 -26 0
v -29 -26 0
v -29 -25 0
v -28 -25 0
v -1 -27 0
v -2 -27 0
v -2 -26 0
v -1 -26 0
v -28 -27 0
v -29 -27 0
v -29 -26 0
v -28 -26 0
v 0 -28 0
v -1 -28 0
v -1 -27 0
v 0 -27 0
v -1 -28 0
v -2 -28 0
v -2 -27 0
v -1 -27 0
v -2 -28 0
v -3 -28 0
v -3 -27 0
v -2 -27 0
v -3 -28 0
v -4 -28 0
v -4 -27 0
v -3 -27 0
v -4 -28 0
v -5 -28 0
v -5 -27 0
v -4 -27 0
v -5 -28 0
v -6 -28 0
v -6 -27 0
v -5 -27 0
v -6 -28 0
v -7 -28 0
v -7 -27 0
v -6 -27 0
v -7 -28 0
v -8 -28 0
v -8 -27 0
v -7 -27 0
v -8 -28 0
v -9 -28 0
v -9 -27 0
v -8 -27 0
v -9 -28 0
v -10 -28 0
v -10 -27 0
v -9 -27 0
v -10 -28 0
v -11 -28 0
v -11 -27 0
v -10 -27 0
v -11 -28 0
v -12 -28 0
v -12 -27 0
v -11 -27 0
v -12 -28 0
v -13 -28 0
v -13 -27 0
v -12 -27 0
v -13 -28 0
v -14 -28 0
v -14 -27 0
v -13 -27 0
v -14 -28 0
v -15 -28 0
v -15 -27 0
v -14 -27 0
v -15 -28 0
v -16 -28 0
v -16 -27 0
v -15 -27 0
v -16 -28 0
v -17 -28 0
v -17 -27 0
v -16 -27 0
v -17 -28 0
v -18 -28 0
v -18 -27 0
v -17 -27 0
v -18 -28 0
v -19 -28 0
v -19 -27 0
v -18 -27 0
v -19 -28 0
v -20 -28 0
v -20 -27 0
v -19 -27 0
v -20 -28 0
v -21 -28 0
v -21 -27 0
v -20 -27 0
v -21 -28 0
v -22 -28 0
v -22 -27 0
v -21 -27 0
v -22 -28 0
v -23 -28 0
v -23 -27 0
v -22 -27 0
v -23 -28 0
v -24 -28 0
v -24 -27 0
v -23 -27 0
v -24 -28 0
v -25 -28 0
v -25 -27 0
v -24 -27 0
v -25 -28 0
v -26 -28 0
v -26 -27 0
v -25 -27 0
v -26 -28 0
v -27 -28 0
v -27 -27 0
v -26 -27 0
v -27 -28 0
v -28 -28 0
v -28 -27 0
v -27 -27 0
v -28 -28 0
v -29 -28 0
v -29 -27 0
v -28 -27 0
v -29 -28 0
v -30 -28 0
v -30 -27 0
v -29 -27 0
v 0 -29 0
v -1 -29 0
v -1 -28 0
v 0 -28 0
v -1 -29 0
v -2 -29 0
v -2 -28 0
v -1 -28 0
v -2 -29 0
v -3 -29 0
v -3 -28 0
v -2 -28 0
v -3 -29 0
v -4 -29 0
v -4 -28 0
v -3 -28 0
v -4 -29 0
v -5 -29 0
v -5 -28 0
v -4 -28 0
v -5 -29 0
v -6 -29 0
v -6 -28 0
v -5 -28 0
v -6 -29 0
v -7 -29 0
v -7 -28 0
v -6 -28 0
v -7 -29 0
v -8 -29 0
v -8 -28 0
v -7 -28 0
v -8 -29 0
v -9 -29 0
v -9 -28 0
v -8 -28 0
v -9 -29 0
v -10 -29 0
v -10 -28 0
v -9 -28 0
v -10 -29 0
v -11 -29 0
v -11 -28 0
v -10 -28 0
v -11 -29 0
v -12 -29 0
v -12 -28 0
v -11 -28 0
v -12 -29 0
v -13 -29 0
v -13 -28 0
v -12 -28 0
v -13 -29 0
v -14 -29 0
v -14 -28 0
v -13 -28 0
v -14 -29 0
v -15 -29 0
v -15 -28 0
v -14 -28 0
v -15 -29 0
v -16 -29 0
v -16 -28 0
v -15 -28 0
v -16 -29 0
v -17 -29 0
v -17 -28 0
v -16 -28 0
v -17 -29 0
v -18 -29 0
v -18 -28 0
v -17 -28 0
v -18 -29 0
v -19 -29 0
v -19 -28 0
v -18 -28 0
v -19 -29 0
v -20 -29 0
v -20 -28 0
v -19 -28 0
v -20 -29 0
v -21 -29 0
v -21 -28 0
v -20 -28 0
v -21 -29 0
v -22 -29 0
v -22 -28 0
v -21 -28 0
v -22 -29 0
v -23 -29 0
v -23 -28 0
v -22 -28 0
v -23 -29 0
v -24 -29 0
v -24 -28 0
v -23 -28 0
v -24 -29 0
v -25 -29 0
v -25 -28 0
v -24 -28 0
v -25 -29 0
v -26 -29 0
v -26 -28 0
v -25 -28 0
v -26 -29 0
v -27 -29 0
v -27 -28 0
v -26 -28 0
v -27 -29 0
v -28 -29 0
v -28 -28 0
v -27 -28 0
v -28 -29 0
v -29 -29 0
v -29 -28 0
v -28 -28 0
v -29 -29 0
v -30 -29 0
v -30 -28 0
v -29 -28 0
v 0 -30 0
v -1 -30 0
v -1 -29 0
v 0 -29 0
v -1 -30 0
v -2 -30 0
v -2 -29 0
v -1 -29 0
v -2 -30 0
v -3 -30 0
v -3 -29 0
v -2 -29 0
v -3 -30 0
v -4 -30 0
v -4 -29 0
v -3 -29 0
v -4 -30 0
v -5 -30 0
v -5 -29 0
v -4 -29 0
v -5 -30 0
v -6 -30 0
v -6 -29 0
v -5 -29 0
v -6 -30 0
v -7 -30 0
v -7 -29 0
v -6 -29 0
v -7 -30 0
v -8 -30 0
v -8 -29 0
v -7 -29 0
v -8 -30 0
v -9 -30 0
v -9 -29 0
v -8 -29 0
v -9 -30 0
v -10 -30 0
v -10 -29 0
v -9 -29 0
v -10 -30 0
v -11 -30 0
v -11 -29 0
v -10 -29 0
v -11 -30 0
v -12 -30 0
v -12 -29 0
v -11 -29 0
v -12 -30 0
v -13 -30 0
v -13 -29 0
v -12 -29 0
v -13 -30 0
v -14 -30 0
v -14 -29 0
v -13 -29 0
v -14 -30 0
v -15 -30 0
v -15 -29 0
v -14 -29 0
v -15 -30 0
v -16 -30 0
v -16 -29 0
v -15 -29 0
v -16 -30 0
v -17 -30 0
v -17 -29 0
v -16 -29 0
v -17 -30 0
v -18 -30 0
v -18 -29 0
v -17 -29 0
v -18 -30 0
v -19 -30 0
v -19 -29 0
v -18 -29 0
v -19 -30 0
v -20 -30 0
v -20 -29 0
v -19 -29 0
v -20 -30 0
v -21 -30 0
v -21 -29 0
v -20 -29 0
v -21 -30 0
v -22 -30 0
v -22 -29 0
v -21 -29 0
v -22 -30 0
v -23 -30 0
v -23 -29 0
v -22 -29 0
v -23 -30 0
v -24 -30 0
v -24 -29 0
v -23 -29 0
v -24 -30 0
v -25 -30 0
v -25 -29 0
v -24 -29 0
v -25 -30 0
v -26 -30 0
v -26 -29 0
v -25 -29 0
v -26 -30 0
v -27 -30 0
v -27 -29 0
v -26 -29 0
v -27 -30 0
v -28 -30 0
v -28 -29 0
v -27 -29 0
v -28 -30 0
v -29 -30 0
v -29 -29 0
v -28 -29 0
v -29 -30 0
v -30 -30 0
v -30 -29 0
v -29 -29 0

# Texture cooridinates (Count = 18)
vt 0.125 0.6944444
vt 0.1 0.6944444
vt 0.1 0.7222222
vt 0.125 0.7222222
vt 0.125 0.6666666
vt 0.15 0.6666666
vt 0.15 0.6944444
vt 0.175 0.6111111
vt 0.15 0.6111111
vt 0.15 0.6388889
vt 0.175 0.6388889
vt 0.125 0.6111111
vt 0.125 0.6388889
vt 0.1 0.5833334
vt 0.125 0.5833334
vt 0.1 0.6111111
vt 0.15 0.5833334
vt 0.175 0.5833334

# Normal
vn 0 0 -1

# Mesh description
g Spawn_mesh_0006

# Faces
f 1/1/1 2/2/1 3/3/1 4/4/1
f 5/2/1 6/1/1 7/4/1 8/3/1
f 9/1/1 10/2/1 11/3/1 12/4/1
f 13/2/1 14/1/1 15/4/1 16/3/1
f 17/1/1 18/2/1 19/3/1 20/4/1
f 21/2/1 22/1/1 23/4/1 24/3/1
f 25/1/1 26/2/1 27/3/1 28/4/1
f 29/2/1 30/1/1 31/4/1 32/3/1
f 33/1/1 34/2/1 35/3/1 36/4/1
f 37/2/1 38/1/1 39/4/1 40/3/1
f 41/1/1 42/2/1 43/3/1 44/4/1
f 45/2/1 46/1/1 47/4/1 48/3/1
f 49/1/1 50/2/1 51/3/1 52/4/1
f 53/2/1 54/1/1 55/4/1 56/3/1
f 57/1/1 58/2/1 59/3/1 60/4/1
f 61/2/1 62/1/1 63/4/1 64/3/1
f 65/1/1 66/2/1 67/3/1 68/4/1
f 69/2/1 70/1/1 71/4/1 72/3/1
f 73/1/1 74/2/1 75/3/1 76/4/1
f 77/2/1 78/1/1 79/4/1 80/3/1
f 81/1/1 82/2/1 83/3/1 84/4/1
f 85/2/1 86/1/1 87/4/1 88/3/1
f 89/1/1 90/2/1 91/3/1 92/4/1
f 93/2/1 94/1/1 95/4/1 96/3/1
f 97/1/1 98/2/1 99/3/1 100/4/1
f 101/2/1 102/1/1 103/4/1 104/3/1
f 105/1/1 106/2/1 107/3/1 108/4/1
f 109/2/1 110/1/1 111/4/1 112/3/1
f 113/1/1 114/2/1 115/3/1 116/4/1
f 117/2/1 118/1/1 119/4/1 120/3/1
f 121/1/1 122/2/1 123/3/1 124/4/1
f 125/2/1 126/1/1 127/4/1 128/3/1
f 129/1/1 130/2/1 131/3/1 132/4/1
f 133/2/1 134/1/1 135/4/1 136/3/1
f 137/1/1 138/2/1 139/3/1 140/4/1
f 141/2/1 142/1/1 143/4/1 144/3/1
f 145/1/1 146/2/1 147/3/1 148/4/1
f 149/2/1 150/1/1 151/4/1 152/3/1
f 153/1/1 154/2/1 155/3/1 156/4/1
f 157/2/1 158/1/1 159/4/1 160/3/1
f 161/1/1 162/2/1 163/3/1 164/4/1
f 165/2/1 166/1/1 167/4/1 168/3/1
f 169/1/1 170/2/1 171/3/1 172/4/1
f 173/2/1 174/1/1 175/4/1 176/3/1
f 177/1/1 178/2/1 179/3/1 180/4/1
f 181/2/1 182/1/1 183/4/1 184/3/1
f 185/1/1 186/2/1 187/3/1 188/4/1
f 189/2/1 190/1/1 191/4/1 192/3/1
f 193/1/1 194/2/1 195/3/1 196/4/1
f 197/2/1 198/1/1 199/4/1 200/3/1
f 201/1/1 202/2/1 203/3/1 204/4/1
f 205/2/1 206/1/1 207/4/1 208/3/1
f 209/5/1 210/6/1 211/7/1 212/1/1
f 213/5/1 214/6/1 215/7/1 216/1/1
f 217/5/1 218/6/1 219/7/1 220/1/1
f 221/5/1 222/6/1 223/7/1 224/1/1
f 225/5/1 226/6/1 227/7/1 228/1/1
f 229/5/1 230/6/1 231/7/1 232/1/1
f 233/5/1 234/6/1 235/7/1 236/1/1
f 237/5/1 238/6/1 239/7/1 240/1/1
f 241/5/1 242/6/1 243/7/1 244/1/1
f 245/5/1 246/6/1 247/7/1 248/1/1
f 249/5/1 250/6/1 251/7/1 252/1/1
f 253/5/1 254/6/1 255/7/1 256/1/1
f 257/5/1 258/6/1 259/7/1 260/1/1
f 261/5/1 262/6/1 263/7/1 264/1/1
f 265/5/1 266/6/1 267/7/1 268/1/1
f 269/5/1 270/6/1 271/7/1 272/1/1
f 273/5/1 274/6/1 275/7/1 276/1/1
f 277/5/1 278/6/1 279/7/1 280/1/1
f 281/5/1 282/6/1 283/7/1 284/1/1
f 285/5/1 286/6/1 287/7/1 288/1/1
f 289/5/1 290/6/1 291/7/1 292/1/1
f 293/5/1 294/6/1 295/7/1 296/1/1
f 297/5/1 298/6/1 299/7/1 300/1/1
f 301/5/1 302/6/1 303/7/1 304/1/1
f 305/5/1 306/6/1 307/7/1 308/1/1
f 309/5/1 310/6/1 311/7/1 312/1/1
f 313/5/1 314/6/1 315/7/1 316/1/1
f 317/5/1 318/6/1 319/7/1 320/1/1
f 321/5/1 322/6/1 323/7/1 324/1/1
f 325/5/1 326/6/1 327/7/1 328/1/1
f 329/8/1 330/9/1 331/10/1 332/11/1
f 333/12/1 334/9/1 335/10/1 336/13/1
f 337/12/1 338/9/1 339/10/1 340/13/1
f 341/12/1 342/9/1 343/10/1 344/13/1
f 345/12/1 346/9/1 347/10/1 348/13/1
f 349/12/1 350/9/1 351/10/1 352/13/1
f 353/12/1 354/9/1 355/10/1 356/13/1
f 357/12/1 358/9/1 359/10/1 360/13/1
f 361/12/1 362/9/1 363/10/1 364/13/1
f 365/12/1 366/9/1 367/10/1 368/13/1
f 369/12/1 370/9/1 371/10/1 372/13/1
f 373/12/1 374/9/1 375/10/1 376/13/1
f 377/12/1 378/9/1 379/10/1 380/13/1
f 381/12/1 382/9/1 383/10/1 384/13/1
f 385/12/1 386/9/1 387/10/1 388/13/1
f 389/12/1 390/9/1 391/10/1 392/13/1
f 393/12/1 394/9/1 395/10/1 396/13/1
f 397/12/1 398/9/1 399/10/1 400/13/1
f 401/12/1 402/9/1 403/10/1 404/13/1
f 405/12/1 406/9/1 407/10/1 408/13/1
f 409/12/1 410/9/1 411/10/1 412/13/1
f 413/12/1 414/9/1 415/10/1 416/13/1
f 417/12/1 418/9/1 419/10/1 420/13/1
f 421/12/1 422/9/1 423/10/1 424/13/1
f 425/12/1 426/9/1 427/10/1 428/13/1
f 429/12/1 430/9/1 431/10/1 432/13/1
f 433/12/1 434/9/1 435/10/1 436/13/1
f 437/12/1 438/9/1 439/10/1 440/13/1
f 441/12/1 442/9/1 443/10/1 444/13/1
f 445/9/1 446/8/1 447/11/1 448/10/1
f 449/14/1 450/15/1 451/12/1 452/16/1
f 453/15/1 454/17/1 455/9/1 456/12/1
f 457/15/1 458/17/1 459/9/1 460/12/1
f 461/15/1 462/17/1 463/9/1 464/12/1
f 465/15/1 466/17/1 467/9/1 468/12/1
f 469/15/1 470/17/1 471/9/1 472/12/1
f 473/15/1 474/17/1 475/9/1 476/12/1
f 477/15/1 478/17/1 479/9/1 480/12/1
f 481/15/1 482/17/1 483/9/1 484/12/1
f 485/15/1 486/17/1 487/9/1 488/12/1
f 489/15/1 490/17/1 491/9/1 492/12/1
f 493/15/1 494/17/1 495/9/1 496/12/1
f 497/15/1 498/17/1 499/9/1 500/12/1
f 501/15/1 502/17/1 503/9/1 504/12/1
f 505/15/1 506/17/1 507/9/1 508/12/1
f 509/15/1 510/17/1 511/9/1 512/12/1
f 513/15/1 514/17/1 515/9/1 516/12/1
f 517/15/1 518/17/1 519/9/1 520/12/1
f 521/15/1 522/17/1 523/9/1 524/12/1
f 525/15/1 526/17/1 527/9/1 528/12/1
f 529/15/1 530/17/1 531/9/1 532/12/1
f 533/15/1 534/17/1 535/9/1 536/12/1
f 537/15/1 538/17/1 539/9/1 540/12/1
f 541/15/1 542/17/1 543/9/1 544/12/1
f 545/15/1 546/17/1 547/9/1 548/12/1
f 549/15/1 550/17/1 551/9/1 552/12/1
f 553/15/1 554/17/1 555/9/1 556/12/1
f 557/15/1 558/17/1 559/9/1 560/12/1
f 561/15/1 562/17/1 563/9/1 564/12/1
f 565/17/1 566/18/1 567/8/1 568/9/1

