# Tiled2Unity generated file. Do not modify by hand.
# Wavefront file for 'Spawn_mesh_0005.obj'

# Vertices (Count = 168)
v -8 -3 0
v -9 -3 0
v -9 -2 0
v -8 -2 0
v -21 -3 0
v -22 -3 0
v -22 -2 0
v -21 -2 0
v -8 -4 0
v -9 -4 0
v -9 -3 0
v -8 -3 0
v -21 -4 0
v -22 -4 0
v -22 -3 0
v -21 -3 0
v -9 -9 0
v -10 -9 0
v -10 -8 0
v -9 -8 0
v -20 -9 0
v -21 -9 0
v -21 -8 0
v -20 -8 0
v -3 -10 0
v -4 -10 0
v -4 -9 0
v -3 -9 0
v -9 -10 0
v -10 -10 0
v -10 -9 0
v -9 -9 0
v -20 -10 0
v -21 -10 0
v -21 -9 0
v -20 -9 0
v -26 -10 0
v -27 -10 0
v -27 -9 0
v -26 -9 0
v -2 -15 0
v -3 -15 0
v -3 -14 0
v -2 -14 0
v -12 -15 0
v -13 -15 0
v -13 -14 0
v -12 -14 0
v -13 -15 0
v -14 -15 0
v -14 -14 0
v -13 -14 0
v -16 -15 0
v -17 -15 0
v -17 -14 0
v -16 -14 0
v -17 -15 0
v -18 -15 0
v -18 -14 0
v -17 -14 0
v -27 -15 0
v -28 -15 0
v -28 -14 0
v -27 -14 0
v -2 -16 0
v -3 -16 0
v -3 -15 0
v -2 -15 0
v -12 -16 0
v -13 -16 0
v -13 -15 0
v -12 -15 0
v -14 -16 0
v -15 -16 0
v -15 -15 0
v -14 -15 0
v -15 -16 0
v -16 -16 0
v -16 -15 0
v -15 -15 0
v -17 -16 0
v -18 -16 0
v -18 -15 0
v -17 -15 0
v -27 -16 0
v -28 -16 0
v -28 -15 0
v -27 -15 0
v -2 -17 0
v -3 -17 0
v -3 -16 0
v -2 -16 0
v -12 -17 0
v -13 -17 0
v -13 -16 0
v -12 -16 0
v -14 -17 0
v -15 -17 0
v -15 -16 0
v -14 -16 0
v -15 -17 0
v -16 -17 0
v -16 -16 0
v -15 -16 0
v -17 -17 0
v -18 -17 0
v -18 -16 0
v -17 -16 0
v -27 -17 0
v -28 -17 0
v -28 -16 0
v -27 -16 0
v -2 -18 0
v -3 -18 0
v -3 -17 0
v -2 -17 0
v -12 -18 0
v -13 -18 0
v -13 -17 0
v -12 -17 0
v -13 -18 0
v -14 -18 0
v -14 -17 0
v -13 -17 0
v -14 -18 0
v -15 -18 0
v -15 -17 0
v -14 -17 0
v -15 -18 0
v -16 -18 0
v -16 -17 0
v -15 -17 0
v -16 -18 0
v -17 -18 0
v -17 -17 0
v -16 -17 0
v -17 -18 0
v -18 -18 0
v -18 -17 0
v -17 -17 0
v -27 -18 0
v -28 -18 0
v -28 -17 0
v -27 -17 0
v -3 -24 0
v -4 -24 0
v -4 -23 0
v -3 -23 0
v -26 -24 0
v -27 -24 0
v -27 -23 0
v -26 -23 0
v -3 -25 0
v -4 -25 0
v -4 -24 0
v -3 -24 0
v -9 -25 0
v -10 -25 0
v -10 -24 0
v -9 -24 0
v -20 -25 0
v -21 -25 0
v -21 -24 0
v -20 -24 0
v -26 -25 0
v -27 -25 0
v -27 -24 0
v -26 -24 0

# Texture cooridinates (Count = 50)
vt 0.05 0.5833334
vt 0.075 0.5833334
vt 0.075 0.6111111
vt 0.05 0.6111111
vt 0.8 0.9444444
vt 0.825 0.9444444
vt 0.825 0.9722222
vt 0.8 0.9722222
vt 0.85 0.9166667
vt 0.875 0.9166667
vt 0.875 0.9444444
vt 0.85 0.9444444
vt 0.8 0.9166667
vt 0.825 0.9166667
vt 0.65 0.8611111
vt 0.675 0.8611111
vt 0.675 0.8888889
vt 0.65 0.8888889
vt 0.025 0.6111111
vt 0.05 0.6388889
vt 0.025 0.6388889
vt 0.075 0.6388889
vt 0.1 0.6111111
vt 0.1 0.6388889
vt 0.7 0.8611111
vt 0.7 0.8888889
vt 0.65 0.8333333
vt 0.675 0.8333333
vt 0.025 0.5833334
vt 0.125 0.5277778
vt 0.15 0.5277778
vt 0.15 0.5555556
vt 0.125 0.5555556
vt 0.175 0.5277778
vt 0.175 0.5555556
vt 0.1 0.5833334
vt 0.7 0.8333333
vt 0.65 0.8055556
vt 0.675 0.8055556
vt 0.125 0.5
vt 0.15 0.5
vt 0.175 0.5
vt 0.7 0.8055556
vt 0.65 0.7777778
vt 0.675 0.7777778
vt 0.025 0.5555556
vt 0.05 0.5555556
vt 0.075 0.5555556
vt 0.1 0.5555556
vt 0.7 0.7777778

# Normal
vn 0 0 -1

# Mesh description
g Spawn_mesh_0005

# Faces
f 1/1/1 2/2/1 3/3/1 4/4/1
f 5/1/1 6/2/1 7/3/1 8/4/1
f 9/1/1 10/2/1 11/3/1 12/4/1
f 13/1/1 14/2/1 15/3/1 16/4/1
f 17/5/1 18/6/1 19/7/1 20/8/1
f 21/5/1 22/6/1 23/7/1 24/8/1
f 25/9/1 26/10/1 27/11/1 28/12/1
f 29/13/1 30/14/1 31/6/1 32/5/1
f 33/13/1 34/14/1 35/6/1 36/5/1
f 37/9/1 38/10/1 39/11/1 40/12/1
f 41/15/1 42/16/1 43/17/1 44/18/1
f 45/19/1 46/4/1 47/20/1 48/21/1
f 49/4/1 50/3/1 51/22/1 52/20/1
f 53/4/1 54/3/1 55/22/1 56/20/1
f 57/3/1 58/23/1 59/24/1 60/22/1
f 61/16/1 62/25/1 63/26/1 64/17/1
f 65/27/1 66/28/1 67/16/1 68/15/1
f 69/29/1 70/1/1 71/4/1 72/19/1
f 73/30/1 74/31/1 75/32/1 76/33/1
f 77/31/1 78/34/1 79/35/1 80/32/1
f 81/2/1 82/36/1 83/23/1 84/3/1
f 85/28/1 86/37/1 87/25/1 88/16/1
f 89/38/1 90/39/1 91/28/1 92/27/1
f 93/29/1 94/1/1 95/4/1 96/19/1
f 97/40/1 98/41/1 99/31/1 100/30/1
f 101/41/1 102/42/1 103/34/1 104/31/1
f 105/2/1 106/36/1 107/23/1 108/3/1
f 109/39/1 110/43/1 111/37/1 112/28/1
f 113/44/1 114/45/1 115/39/1 116/38/1
f 117/46/1 118/47/1 119/1/1 120/29/1
f 121/47/1 122/48/1 123/2/1 124/1/1
f 125/47/1 126/48/1 127/2/1 128/1/1
f 129/47/1 130/48/1 131/2/1 132/1/1
f 133/47/1 134/48/1 135/2/1 136/1/1
f 137/48/1 138/49/1 139/36/1 140/2/1
f 141/45/1 142/50/1 143/43/1 144/39/1
f 145/5/1 146/6/1 147/7/1 148/8/1
f 149/5/1 150/6/1 151/7/1 152/8/1
f 153/13/1 154/14/1 155/6/1 156/5/1
f 157/9/1 158/10/1 159/11/1 160/12/1
f 161/9/1 162/10/1 163/11/1 164/12/1
f 165/13/1 166/14/1 167/6/1 168/5/1

