# Tiled2Unity generated file. Do not modify by hand.
# Wavefront file for 'Dojo_mesh_0004.obj'

# Vertices (Count = 128)
v -15 -3 0
v -16 -3 0
v -16 -2 0
v -15 -2 0
v -16 -3 0
v -17 -3 0
v -17 -2 0
v -16 -2 0
v -17 -3 0
v -18 -3 0
v -18 -2 0
v -17 -2 0
v -18 -3 0
v -19 -3 0
v -19 -2 0
v -18 -2 0
v -31 -3 0
v -32 -3 0
v -32 -2 0
v -31 -2 0
v -32 -3 0
v -33 -3 0
v -33 -2 0
v -32 -2 0
v -33 -3 0
v -34 -3 0
v -34 -2 0
v -33 -2 0
v -34 -3 0
v -35 -3 0
v -35 -2 0
v -34 -2 0
v -15 -4 0
v -16 -4 0
v -16 -3 0
v -15 -3 0
v -16 -4 0
v -17 -4 0
v -17 -3 0
v -16 -3 0
v -17 -4 0
v -18 -4 0
v -18 -3 0
v -17 -3 0
v -18 -4 0
v -19 -4 0
v -19 -3 0
v -18 -3 0
v -31 -4 0
v -32 -4 0
v -32 -3 0
v -31 -3 0
v -32 -4 0
v -33 -4 0
v -33 -3 0
v -32 -3 0
v -33 -4 0
v -34 -4 0
v -34 -3 0
v -33 -3 0
v -34 -4 0
v -35 -4 0
v -35 -3 0
v -34 -3 0
v -15 -5 0
v -16 -5 0
v -16 -4 0
v -15 -4 0
v -16 -5 0
v -17 -5 0
v -17 -4 0
v -16 -4 0
v -17 -5 0
v -18 -5 0
v -18 -4 0
v -17 -4 0
v -18 -5 0
v -19 -5 0
v -19 -4 0
v -18 -4 0
v -31 -5 0
v -32 -5 0
v -32 -4 0
v -31 -4 0
v -32 -5 0
v -33 -5 0
v -33 -4 0
v -32 -4 0
v -33 -5 0
v -34 -5 0
v -34 -4 0
v -33 -4 0
v -34 -5 0
v -35 -5 0
v -35 -4 0
v -34 -4 0
v -15 -6 0
v -16 -6 0
v -16 -5 0
v -15 -5 0
v -16 -6 0
v -17 -6 0
v -17 -5 0
v -16 -5 0
v -17 -6 0
v -18 -6 0
v -18 -5 0
v -17 -5 0
v -18 -6 0
v -19 -6 0
v -19 -5 0
v -18 -5 0
v -31 -6 0
v -32 -6 0
v -32 -5 0
v -31 -5 0
v -32 -6 0
v -33 -6 0
v -33 -5 0
v -32 -5 0
v -33 -6 0
v -34 -6 0
v -34 -5 0
v -33 -5 0
v -34 -6 0
v -35 -6 0
v -35 -5 0
v -34 -5 0

# Texture cooridinates (Count = 20)
vt 0.025 0.96
vt 0.05 0.96
vt 0.05 1
vt 0.025 1
vt 0.075 0.96
vt 0.075 1
vt 0.1 0.96
vt 0.1 1
vt 0.025 0.92
vt 0.05 0.92
vt 0.3 0.76
vt 0.325 0.76
vt 0.325 0.8
vt 0.3 0.8
vt 0.075 0.92
vt 0.1 0.92
vt 0.025 0.88
vt 0.05 0.88
vt 0.075 0.88
vt 0.1 0.88

# Normal
vn 0 0 -1

# Mesh description
g Dojo_mesh_0004

# Faces
f 1/1/1 2/2/1 3/3/1 4/4/1
f 5/2/1 6/5/1 7/6/1 8/3/1
f 9/2/1 10/5/1 11/6/1 12/3/1
f 13/5/1 14/7/1 15/8/1 16/6/1
f 17/1/1 18/2/1 19/3/1 20/4/1
f 21/2/1 22/5/1 23/6/1 24/3/1
f 25/2/1 26/5/1 27/6/1 28/3/1
f 29/5/1 30/7/1 31/8/1 32/6/1
f 33/9/1 34/10/1 35/2/1 36/1/1
f 37/11/1 38/12/1 39/13/1 40/14/1
f 41/11/1 42/12/1 43/13/1 44/14/1
f 45/15/1 46/16/1 47/7/1 48/5/1
f 49/9/1 50/10/1 51/2/1 52/1/1
f 53/11/1 54/12/1 55/13/1 56/14/1
f 57/11/1 58/12/1 59/13/1 60/14/1
f 61/15/1 62/16/1 63/7/1 64/5/1
f 65/9/1 66/10/1 67/2/1 68/1/1
f 69/11/1 70/12/1 71/13/1 72/14/1
f 73/11/1 74/12/1 75/13/1 76/14/1
f 77/15/1 78/16/1 79/7/1 80/5/1
f 81/9/1 82/10/1 83/2/1 84/1/1
f 85/11/1 86/12/1 87/13/1 88/14/1
f 89/11/1 90/12/1 91/13/1 92/14/1
f 93/15/1 94/16/1 95/7/1 96/5/1
f 97/17/1 98/18/1 99/10/1 100/9/1
f 101/18/1 102/19/1 103/15/1 104/10/1
f 105/18/1 106/19/1 107/15/1 108/10/1
f 109/19/1 110/20/1 111/16/1 112/15/1
f 113/17/1 114/18/1 115/10/1 116/9/1
f 117/18/1 118/19/1 119/15/1 120/10/1
f 121/18/1 122/19/1 123/15/1 124/10/1
f 125/19/1 126/20/1 127/16/1 128/15/1

