# Tiled2Unity generated file. Do not modify by hand.
# Wavefront file for 'Dojo_mesh_0002.obj'

# Vertices (Count = 16)
v 0 -1 0
v -1 -1 0
v -1 0 0
v 0 0 0
v -49 -1 0
v -50 -1 0
v -50 0 0
v -49 0 0
v 0 -2 0
v -1 -2 0
v -1 -1 0
v 0 -1 0
v -49 -2 0
v -50 -2 0
v -50 -1 0
v -49 -1 0

# Texture cooridinates (Count = 4)
vt 1 1
vt 0 1
vt 0 0
vt 1 0

# Normal
vn 0 0 -1

# Mesh description
g Dojo_mesh_0002

# Faces
f 1/1/1 2/2/1 3/3/1 4/4/1
f 5/2/1 6/1/1 7/4/1 8/3/1
f 9/1/1 10/2/1 11/3/1 12/4/1
f 13/2/1 14/1/1 15/4/1 16/3/1

