# Tiled2Unity generated file. Do not modify by hand.
# Wavefront file for 'Dojo_mesh_0015.obj'

# Vertices (Count = 432)
v -17 -26 0
v -18 -26 0
v -18 -25 0
v -17 -25 0
v -21 -26 0
v -22 -26 0
v -22 -25 0
v -21 -25 0
v -13 -27 0
v -14 -27 0
v -14 -26 0
v -13 -26 0
v -14 -27 0
v -15 -27 0
v -15 -26 0
v -14 -26 0
v -15 -27 0
v -16 -27 0
v -16 -26 0
v -15 -26 0
v -16 -27 0
v -17 -27 0
v -17 -26 0
v -16 -26 0
v -17 -27 0
v -18 -27 0
v -18 -26 0
v -17 -26 0
v -18 -27 0
v -19 -27 0
v -19 -26 0
v -18 -26 0
v -19 -27 0
v -20 -27 0
v -20 -26 0
v -19 -26 0
v -20 -27 0
v -21 -27 0
v -21 -26 0
v -20 -26 0
v -29 -27 0
v -30 -27 0
v -30 -26 0
v -29 -26 0
v -30 -27 0
v -31 -27 0
v -31 -26 0
v -30 -26 0
v -31 -27 0
v -32 -27 0
v -32 -26 0
v -31 -26 0
v -32 -27 0
v -33 -27 0
v -33 -26 0
v -32 -26 0
v -33 -27 0
v -34 -27 0
v -34 -26 0
v -33 -26 0
v -34 -27 0
v -35 -27 0
v -35 -26 0
v -34 -26 0
v -35 -27 0
v -36 -27 0
v -36 -26 0
v -35 -26 0
v -36 -27 0
v -37 -27 0
v -37 -26 0
v -36 -26 0
v -13 -28 0
v -14 -28 0
v -14 -27 0
v -13 -27 0
v -14 -28 0
v -15 -28 0
v -15 -27 0
v -14 -27 0
v -15 -28 0
v -16 -28 0
v -16 -27 0
v -15 -27 0
v -16 -28 0
v -17 -28 0
v -17 -27 0
v -16 -27 0
v -17 -28 0
v -18 -28 0
v -18 -27 0
v -17 -27 0
v -18 -28 0
v -19 -28 0
v -19 -27 0
v -18 -27 0
v -19 -28 0
v -20 -28 0
v -20 -27 0
v -19 -27 0
v -20 -28 0
v -21 -28 0
v -21 -27 0
v -20 -27 0
v -29 -28 0
v -30 -28 0
v -30 -27 0
v -29 -27 0
v -30 -28 0
v -31 -28 0
v -31 -27 0
v -30 -27 0
v -31 -28 0
v -32 -28 0
v -32 -27 0
v -31 -27 0
v -32 -28 0
v -33 -28 0
v -33 -27 0
v -32 -27 0
v -33 -28 0
v -34 -28 0
v -34 -27 0
v -33 -27 0
v -34 -28 0
v -35 -28 0
v -35 -27 0
v -34 -27 0
v -35 -28 0
v -36 -28 0
v -36 -27 0
v -35 -27 0
v -36 -28 0
v -37 -28 0
v -37 -27 0
v -36 -27 0
v -13 -29 0
v -14 -29 0
v -14 -28 0
v -13 -28 0
v -14 -29 0
v -15 -29 0
v -15 -28 0
v -14 -28 0
v -15 -29 0
v -16 -29 0
v -16 -28 0
v -15 -28 0
v -16 -29 0
v -17 -29 0
v -17 -28 0
v -16 -28 0
v -17 -29 0
v -18 -29 0
v -18 -28 0
v -17 -28 0
v -18 -29 0
v -19 -29 0
v -19 -28 0
v -18 -28 0
v -19 -29 0
v -20 -29 0
v -20 -28 0
v -19 -28 0
v -20 -29 0
v -21 -29 0
v -21 -28 0
v -20 -28 0
v -29 -29 0
v -30 -29 0
v -30 -28 0
v -29 -28 0
v -30 -29 0
v -31 -29 0
v -31 -28 0
v -30 -28 0
v -31 -29 0
v -32 -29 0
v -32 -28 0
v -31 -28 0
v -32 -29 0
v -33 -29 0
v -33 -28 0
v -32 -28 0
v -33 -29 0
v -34 -29 0
v -34 -28 0
v -33 -28 0
v -34 -29 0
v -35 -29 0
v -35 -28 0
v -34 -28 0
v -35 -29 0
v -36 -29 0
v -36 -28 0
v -35 -28 0
v -36 -29 0
v -37 -29 0
v -37 -28 0
v -36 -28 0
v -13 -30 0
v -14 -30 0
v -14 -29 0
v -13 -29 0
v -14 -30 0
v -15 -30 0
v -15 -29 0
v -14 -29 0
v -15 -30 0
v -16 -30 0
v -16 -29 0
v -15 -29 0
v -16 -30 0
v -17 -30 0
v -17 -29 0
v -16 -29 0
v -17 -30 0
v -18 -30 0
v -18 -29 0
v -17 -29 0
v -18 -30 0
v -19 -30 0
v -19 -29 0
v -18 -29 0
v -19 -30 0
v -20 -30 0
v -20 -29 0
v -19 -29 0
v -20 -30 0
v -21 -30 0
v -21 -29 0
v -20 -29 0
v -22 -30 0
v -23 -30 0
v -23 -29 0
v -22 -29 0
v -29 -30 0
v -30 -30 0
v -30 -29 0
v -29 -29 0
v -30 -30 0
v -31 -30 0
v -31 -29 0
v -30 -29 0
v -31 -30 0
v -32 -30 0
v -32 -29 0
v -31 -29 0
v -32 -30 0
v -33 -30 0
v -33 -29 0
v -32 -29 0
v -33 -30 0
v -34 -30 0
v -34 -29 0
v -33 -29 0
v -34 -30 0
v -35 -30 0
v -35 -29 0
v -34 -29 0
v -35 -30 0
v -36 -30 0
v -36 -29 0
v -35 -29 0
v -36 -30 0
v -37 -30 0
v -37 -29 0
v -36 -29 0
v -16 -33 0
v -17 -33 0
v -17 -32 0
v -16 -32 0
v -23 -33 0
v -24 -33 0
v -24 -32 0
v -23 -32 0
v -24 -33 0
v -25 -33 0
v -25 -32 0
v -24 -32 0
v -25 -33 0
v -26 -33 0
v -26 -32 0
v -25 -32 0
v -26 -33 0
v -27 -33 0
v -27 -32 0
v -26 -32 0
v -23 -34 0
v -24 -34 0
v -24 -33 0
v -23 -33 0
v -24 -34 0
v -25 -34 0
v -25 -33 0
v -24 -33 0
v -25 -34 0
v -26 -34 0
v -26 -33 0
v -25 -33 0
v -26 -34 0
v -27 -34 0
v -27 -33 0
v -26 -33 0
v -23 -35 0
v -24 -35 0
v -24 -34 0
v -23 -34 0
v -24 -35 0
v -25 -35 0
v -25 -34 0
v -24 -34 0
v -25 -35 0
v -26 -35 0
v -26 -34 0
v -25 -34 0
v -26 -35 0
v -27 -35 0
v -27 -34 0
v -26 -34 0
v -23 -36 0
v -24 -36 0
v -24 -35 0
v -23 -35 0
v -24 -36 0
v -25 -36 0
v -25 -35 0
v -24 -35 0
v -25 -36 0
v -26 -36 0
v -26 -35 0
v -25 -35 0
v -26 -36 0
v -27 -36 0
v -27 -35 0
v -26 -35 0
v -23 -37 0
v -24 -37 0
v -24 -36 0
v -23 -36 0
v -24 -37 0
v -25 -37 0
v -25 -36 0
v -24 -36 0
v -25 -37 0
v -26 -37 0
v -26 -36 0
v -25 -36 0
v -26 -37 0
v -27 -37 0
v -27 -36 0
v -26 -36 0
v -23 -38 0
v -24 -38 0
v -24 -37 0
v -23 -37 0
v -24 -38 0
v -25 -38 0
v -25 -37 0
v -24 -37 0
v -25 -38 0
v -26 -38 0
v -26 -37 0
v -25 -37 0
v -26 -38 0
v -27 -38 0
v -27 -37 0
v -26 -37 0
v -23 -39 0
v -24 -39 0
v -24 -38 0
v -23 -38 0
v -24 -39 0
v -25 -39 0
v -25 -38 0
v -24 -38 0
v -25 -39 0
v -26 -39 0
v -26 -38 0
v -25 -38 0
v -26 -39 0
v -27 -39 0
v -27 -38 0
v -26 -38 0
v -23 -40 0
v -24 -40 0
v -24 -39 0
v -23 -39 0
v -24 -40 0
v -25 -40 0
v -25 -39 0
v -24 -39 0
v -25 -40 0
v -26 -40 0
v -26 -39 0
v -25 -39 0
v -26 -40 0
v -27 -40 0
v -27 -39 0
v -26 -39 0
v -23 -41 0
v -24 -41 0
v -24 -40 0
v -23 -40 0
v -24 -41 0
v -25 -41 0
v -25 -40 0
v -24 -40 0
v -25 -41 0
v -26 -41 0
v -26 -40 0
v -25 -40 0
v -26 -41 0
v -27 -41 0
v -27 -40 0
v -26 -40 0
v -23 -42 0
v -24 -42 0
v -24 -41 0
v -23 -41 0
v -24 -42 0
v -25 -42 0
v -25 -41 0
v -24 -41 0
v -25 -42 0
v -26 -42 0
v -26 -41 0
v -25 -41 0
v -26 -42 0
v -27 -42 0
v -27 -41 0
v -26 -41 0

# Texture cooridinates (Count = 28)
vt 0.675 0.3611111
vt 0.7 0.3611111
vt 0.7 0.3888889
vt 0.675 0.3888889
vt 0.75 0.3611111
vt 0.775 0.3611111
vt 0.775 0.3888889
vt 0.75 0.3888889
vt 0.175 0.8333333
vt 0.175 0.8055556
vt 0.2 0.8055556
vt 0.2 0.8333333
vt 0.175 0.7777778
vt 0.2 0.7777778
vt 0.175 0.75
vt 0.2 0.75
vt 0.15 0.7777778
vt 0.15 0.75
vt 0.15 0.8055556
vt 0.15 0.8333333
vt 0.125 0.8333333
vt 0.125 0.8055556
vt 0.125 0.7777778
vt 0.125 0.75
vt 0.675 0.1944444
vt 0.7 0.1944444
vt 0.7 0.2222222
vt 0.675 0.2222222

# Normal
vn 0 0 -1

# Mesh description
g Dojo_mesh_0015

# Faces
f 1/1/1 2/2/1 3/3/1 4/4/1
f 5/5/1 6/6/1 7/7/1 8/8/1
f 9/9/1 10/10/1 11/11/1 12/12/1
f 13/10/1 14/13/1 15/14/1 16/11/1
f 17/10/1 18/13/1 19/14/1 20/11/1
f 21/10/1 22/13/1 23/14/1 24/11/1
f 25/10/1 26/13/1 27/14/1 28/11/1
f 29/10/1 30/13/1 31/14/1 32/11/1
f 33/10/1 34/13/1 35/14/1 36/11/1
f 37/13/1 38/15/1 39/16/1 40/14/1
f 41/9/1 42/10/1 43/11/1 44/12/1
f 45/10/1 46/13/1 47/14/1 48/11/1
f 49/10/1 50/13/1 51/14/1 52/11/1
f 53/10/1 54/13/1 55/14/1 56/11/1
f 57/10/1 58/13/1 59/14/1 60/11/1
f 61/10/1 62/13/1 63/14/1 64/11/1
f 65/10/1 66/13/1 67/14/1 68/11/1
f 69/13/1 70/15/1 71/16/1 72/14/1
f 73/15/1 74/13/1 75/17/1 76/18/1
f 77/13/1 78/10/1 79/19/1 80/17/1
f 81/13/1 82/10/1 83/19/1 84/17/1
f 85/13/1 86/10/1 87/19/1 88/17/1
f 89/13/1 90/10/1 91/19/1 92/17/1
f 93/13/1 94/10/1 95/19/1 96/17/1
f 97/13/1 98/10/1 99/19/1 100/17/1
f 101/17/1 102/18/1 103/15/1 104/13/1
f 105/15/1 106/13/1 107/17/1 108/18/1
f 109/13/1 110/10/1 111/19/1 112/17/1
f 113/13/1 114/10/1 115/19/1 116/17/1
f 117/13/1 118/10/1 119/19/1 120/17/1
f 121/13/1 122/10/1 123/19/1 124/17/1
f 125/13/1 126/10/1 127/19/1 128/17/1
f 129/13/1 130/10/1 131/19/1 132/17/1
f 133/17/1 134/18/1 135/15/1 136/13/1
f 137/20/1 138/19/1 139/10/1 140/9/1
f 141/19/1 142/17/1 143/13/1 144/10/1
f 145/19/1 146/17/1 147/13/1 148/10/1
f 149/19/1 150/17/1 151/13/1 152/10/1
f 153/19/1 154/17/1 155/13/1 156/10/1
f 157/19/1 158/17/1 159/13/1 160/10/1
f 161/19/1 162/17/1 163/13/1 164/10/1
f 165/17/1 166/18/1 167/15/1 168/13/1
f 169/20/1 170/19/1 171/10/1 172/9/1
f 173/19/1 174/17/1 175/13/1 176/10/1
f 177/19/1 178/17/1 179/13/1 180/10/1
f 181/19/1 182/17/1 183/13/1 184/10/1
f 185/19/1 186/17/1 187/13/1 188/10/1
f 189/19/1 190/17/1 191/13/1 192/10/1
f 193/19/1 194/17/1 195/13/1 196/10/1
f 197/17/1 198/18/1 199/15/1 200/13/1
f 201/21/1 202/22/1 203/19/1 204/20/1
f 205/22/1 206/23/1 207/17/1 208/19/1
f 209/22/1 210/23/1 211/17/1 212/19/1
f 213/22/1 214/23/1 215/17/1 216/19/1
f 217/22/1 218/23/1 219/17/1 220/19/1
f 221/22/1 222/23/1 223/17/1 224/19/1
f 225/22/1 226/23/1 227/17/1 228/19/1
f 229/23/1 230/24/1 231/18/1 232/17/1
f 233/23/1 234/24/1 235/18/1 236/17/1
f 237/21/1 238/22/1 239/19/1 240/20/1
f 241/22/1 242/23/1 243/17/1 244/19/1
f 245/22/1 246/23/1 247/17/1 248/19/1
f 249/22/1 250/23/1 251/17/1 252/19/1
f 253/22/1 254/23/1 255/17/1 256/19/1
f 257/22/1 258/23/1 259/17/1 260/19/1
f 261/22/1 262/23/1 263/17/1 264/19/1
f 265/23/1 266/24/1 267/18/1 268/17/1
f 269/25/1 270/26/1 271/27/1 272/28/1
f 273/22/1 274/19/1 275/20/1 276/21/1
f 277/19/1 278/10/1 279/9/1 280/20/1
f 281/13/1 282/17/1 283/18/1 284/15/1
f 285/10/1 286/11/1 287/12/1 288/9/1
f 289/23/1 290/17/1 291/19/1 292/22/1
f 293/17/1 294/13/1 295/10/1 296/19/1
f 297/10/1 298/19/1 299/17/1 300/13/1
f 301/13/1 302/14/1 303/11/1 304/10/1
f 305/23/1 306/17/1 307/19/1 308/22/1
f 309/17/1 310/13/1 311/10/1 312/19/1
f 313/10/1 314/19/1 315/17/1 316/13/1
f 317/13/1 318/14/1 319/11/1 320/10/1
f 321/23/1 322/17/1 323/19/1 324/22/1
f 325/17/1 326/13/1 327/10/1 328/19/1
f 329/10/1 330/19/1 331/17/1 332/13/1
f 333/13/1 334/14/1 335/11/1 336/10/1
f 337/23/1 338/17/1 339/19/1 340/22/1
f 341/17/1 342/13/1 343/10/1 344/19/1
f 345/10/1 346/19/1 347/17/1 348/13/1
f 349/13/1 350/14/1 351/11/1 352/10/1
f 353/23/1 354/17/1 355/19/1 356/22/1
f 357/17/1 358/13/1 359/10/1 360/19/1
f 361/10/1 362/19/1 363/17/1 364/13/1
f 365/13/1 366/14/1 367/11/1 368/10/1
f 369/23/1 370/17/1 371/19/1 372/22/1
f 373/17/1 374/13/1 375/10/1 376/19/1
f 377/10/1 378/19/1 379/17/1 380/13/1
f 381/13/1 382/14/1 383/11/1 384/10/1
f 385/23/1 386/17/1 387/19/1 388/22/1
f 389/17/1 390/13/1 391/10/1 392/19/1
f 393/10/1 394/19/1 395/17/1 396/13/1
f 397/13/1 398/14/1 399/11/1 400/10/1
f 401/23/1 402/17/1 403/19/1 404/22/1
f 405/17/1 406/13/1 407/10/1 408/19/1
f 409/10/1 410/19/1 411/17/1 412/13/1
f 413/13/1 414/14/1 415/11/1 416/10/1
f 417/24/1 418/18/1 419/17/1 420/23/1
f 421/18/1 422/15/1 423/13/1 424/17/1
f 425/18/1 426/15/1 427/13/1 428/17/1
f 429/15/1 430/16/1 431/14/1 432/13/1

