# Tiled2Unity generated file. Do not modify by hand.
# Wavefront file for 'Dojo_mesh_0003.obj'

# Vertices (Count = 672)
v 0 -3 0
v -1 -3 0
v -1 -2 0
v 0 -2 0
v -1 -3 0
v -2 -3 0
v -2 -2 0
v -1 -2 0
v -2 -3 0
v -3 -3 0
v -3 -2 0
v -2 -2 0
v -3 -3 0
v -4 -3 0
v -4 -2 0
v -3 -2 0
v -4 -3 0
v -5 -3 0
v -5 -2 0
v -4 -2 0
v -5 -3 0
v -6 -3 0
v -6 -2 0
v -5 -2 0
v -6 -3 0
v -7 -3 0
v -7 -2 0
v -6 -2 0
v -7 -3 0
v -8 -3 0
v -8 -2 0
v -7 -2 0
v -8 -3 0
v -9 -3 0
v -9 -2 0
v -8 -2 0
v -9 -3 0
v -10 -3 0
v -10 -2 0
v -9 -2 0
v -10 -3 0
v -11 -3 0
v -11 -2 0
v -10 -2 0
v -11 -3 0
v -12 -3 0
v -12 -2 0
v -11 -2 0
v -12 -3 0
v -13 -3 0
v -13 -2 0
v -12 -2 0
v -13 -3 0
v -14 -3 0
v -14 -2 0
v -13 -2 0
v -14 -3 0
v -15 -3 0
v -15 -2 0
v -14 -2 0
v -19 -3 0
v -20 -3 0
v -20 -2 0
v -19 -2 0
v -20 -3 0
v -21 -3 0
v -21 -2 0
v -20 -2 0
v -21 -3 0
v -22 -3 0
v -22 -2 0
v -21 -2 0
v -22 -3 0
v -23 -3 0
v -23 -2 0
v -22 -2 0
v -23 -3 0
v -24 -3 0
v -24 -2 0
v -23 -2 0
v -24 -3 0
v -25 -3 0
v -25 -2 0
v -24 -2 0
v -25 -3 0
v -26 -3 0
v -26 -2 0
v -25 -2 0
v -26 -3 0
v -27 -3 0
v -27 -2 0
v -26 -2 0
v -27 -3 0
v -28 -3 0
v -28 -2 0
v -27 -2 0
v -28 -3 0
v -29 -3 0
v -29 -2 0
v -28 -2 0
v -29 -3 0
v -30 -3 0
v -30 -2 0
v -29 -2 0
v -30 -3 0
v -31 -3 0
v -31 -2 0
v -30 -2 0
v -35 -3 0
v -36 -3 0
v -36 -2 0
v -35 -2 0
v -36 -3 0
v -37 -3 0
v -37 -2 0
v -36 -2 0
v -37 -3 0
v -38 -3 0
v -38 -2 0
v -37 -2 0
v -38 -3 0
v -39 -3 0
v -39 -2 0
v -38 -2 0
v -39 -3 0
v -40 -3 0
v -40 -2 0
v -39 -2 0
v -40 -3 0
v -41 -3 0
v -41 -2 0
v -40 -2 0
v -41 -3 0
v -42 -3 0
v -42 -2 0
v -41 -2 0
v -42 -3 0
v -43 -3 0
v -43 -2 0
v -42 -2 0
v -43 -3 0
v -44 -3 0
v -44 -2 0
v -43 -2 0
v -44 -3 0
v -45 -3 0
v -45 -2 0
v -44 -2 0
v -45 -3 0
v -46 -3 0
v -46 -2 0
v -45 -2 0
v -46 -3 0
v -47 -3 0
v -47 -2 0
v -46 -2 0
v -47 -3 0
v -48 -3 0
v -48 -2 0
v -47 -2 0
v -48 -3 0
v -49 -3 0
v -49 -2 0
v -48 -2 0
v -49 -3 0
v -50 -3 0
v -50 -2 0
v -49 -2 0
v 0 -4 0
v -1 -4 0
v -1 -3 0
v 0 -3 0
v -1 -4 0
v -2 -4 0
v -2 -3 0
v -1 -3 0
v -2 -4 0
v -3 -4 0
v -3 -3 0
v -2 -3 0
v -3 -4 0
v -4 -4 0
v -4 -3 0
v -3 -3 0
v -4 -4 0
v -5 -4 0
v -5 -3 0
v -4 -3 0
v -5 -4 0
v -6 -4 0
v -6 -3 0
v -5 -3 0
v -6 -4 0
v -7 -4 0
v -7 -3 0
v -6 -3 0
v -7 -4 0
v -8 -4 0
v -8 -3 0
v -7 -3 0
v -8 -4 0
v -9 -4 0
v -9 -3 0
v -8 -3 0
v -9 -4 0
v -10 -4 0
v -10 -3 0
v -9 -3 0
v -10 -4 0
v -11 -4 0
v -11 -3 0
v -10 -3 0
v -11 -4 0
v -12 -4 0
v -12 -3 0
v -11 -3 0
v -12 -4 0
v -13 -4 0
v -13 -3 0
v -12 -3 0
v -13 -4 0
v -14 -4 0
v -14 -3 0
v -13 -3 0
v -14 -4 0
v -15 -4 0
v -15 -3 0
v -14 -3 0
v -19 -4 0
v -20 -4 0
v -20 -3 0
v -19 -3 0
v -20 -4 0
v -21 -4 0
v -21 -3 0
v -20 -3 0
v -21 -4 0
v -22 -4 0
v -22 -3 0
v -21 -3 0
v -22 -4 0
v -23 -4 0
v -23 -3 0
v -22 -3 0
v -23 -4 0
v -24 -4 0
v -24 -3 0
v -23 -3 0
v -24 -4 0
v -25 -4 0
v -25 -3 0
v -24 -3 0
v -25 -4 0
v -26 -4 0
v -26 -3 0
v -25 -3 0
v -26 -4 0
v -27 -4 0
v -27 -3 0
v -26 -3 0
v -27 -4 0
v -28 -4 0
v -28 -3 0
v -27 -3 0
v -28 -4 0
v -29 -4 0
v -29 -3 0
v -28 -3 0
v -29 -4 0
v -30 -4 0
v -30 -3 0
v -29 -3 0
v -30 -4 0
v -31 -4 0
v -31 -3 0
v -30 -3 0
v -35 -4 0
v -36 -4 0
v -36 -3 0
v -35 -3 0
v -36 -4 0
v -37 -4 0
v -37 -3 0
v -36 -3 0
v -37 -4 0
v -38 -4 0
v -38 -3 0
v -37 -3 0
v -38 -4 0
v -39 -4 0
v -39 -3 0
v -38 -3 0
v -39 -4 0
v -40 -4 0
v -40 -3 0
v -39 -3 0
v -40 -4 0
v -41 -4 0
v -41 -3 0
v -40 -3 0
v -41 -4 0
v -42 -4 0
v -42 -3 0
v -41 -3 0
v -42 -4 0
v -43 -4 0
v -43 -3 0
v -42 -3 0
v -43 -4 0
v -44 -4 0
v -44 -3 0
v -43 -3 0
v -44 -4 0
v -45 -4 0
v -45 -3 0
v -44 -3 0
v -45 -4 0
v -46 -4 0
v -46 -3 0
v -45 -3 0
v -46 -4 0
v -47 -4 0
v -47 -3 0
v -46 -3 0
v -47 -4 0
v -48 -4 0
v -48 -3 0
v -47 -3 0
v -48 -4 0
v -49 -4 0
v -49 -3 0
v -48 -3 0
v -49 -4 0
v -50 -4 0
v -50 -3 0
v -49 -3 0
v 0 -5 0
v -1 -5 0
v -1 -4 0
v 0 -4 0
v -1 -5 0
v -2 -5 0
v -2 -4 0
v -1 -4 0
v -2 -5 0
v -3 -5 0
v -3 -4 0
v -2 -4 0
v -3 -5 0
v -4 -5 0
v -4 -4 0
v -3 -4 0
v -4 -5 0
v -5 -5 0
v -5 -4 0
v -4 -4 0
v -5 -5 0
v -6 -5 0
v -6 -4 0
v -5 -4 0
v -6 -5 0
v -7 -5 0
v -7 -4 0
v -6 -4 0
v -7 -5 0
v -8 -5 0
v -8 -4 0
v -7 -4 0
v -8 -5 0
v -9 -5 0
v -9 -4 0
v -8 -4 0
v -9 -5 0
v -10 -5 0
v -10 -4 0
v -9 -4 0
v -10 -5 0
v -11 -5 0
v -11 -4 0
v -10 -4 0
v -11 -5 0
v -12 -5 0
v -12 -4 0
v -11 -4 0
v -12 -5 0
v -13 -5 0
v -13 -4 0
v -12 -4 0
v -13 -5 0
v -14 -5 0
v -14 -4 0
v -13 -4 0
v -14 -5 0
v -15 -5 0
v -15 -4 0
v -14 -4 0
v -19 -5 0
v -20 -5 0
v -20 -4 0
v -19 -4 0
v -20 -5 0
v -21 -5 0
v -21 -4 0
v -20 -4 0
v -21 -5 0
v -22 -5 0
v -22 -4 0
v -21 -4 0
v -22 -5 0
v -23 -5 0
v -23 -4 0
v -22 -4 0
v -23 -5 0
v -24 -5 0
v -24 -4 0
v -23 -4 0
v -24 -5 0
v -25 -5 0
v -25 -4 0
v -24 -4 0
v -25 -5 0
v -26 -5 0
v -26 -4 0
v -25 -4 0
v -26 -5 0
v -27 -5 0
v -27 -4 0
v -26 -4 0
v -27 -5 0
v -28 -5 0
v -28 -4 0
v -27 -4 0
v -28 -5 0
v -29 -5 0
v -29 -4 0
v -28 -4 0
v -29 -5 0
v -30 -5 0
v -30 -4 0
v -29 -4 0
v -30 -5 0
v -31 -5 0
v -31 -4 0
v -30 -4 0
v -35 -5 0
v -36 -5 0
v -36 -4 0
v -35 -4 0
v -36 -5 0
v -37 -5 0
v -37 -4 0
v -36 -4 0
v -37 -5 0
v -38 -5 0
v -38 -4 0
v -37 -4 0
v -38 -5 0
v -39 -5 0
v -39 -4 0
v -38 -4 0
v -39 -5 0
v -40 -5 0
v -40 -4 0
v -39 -4 0
v -40 -5 0
v -41 -5 0
v -41 -4 0
v -40 -4 0
v -41 -5 0
v -42 -5 0
v -42 -4 0
v -41 -4 0
v -42 -5 0
v -43 -5 0
v -43 -4 0
v -42 -4 0
v -43 -5 0
v -44 -5 0
v -44 -4 0
v -43 -4 0
v -44 -5 0
v -45 -5 0
v -45 -4 0
v -44 -4 0
v -45 -5 0
v -46 -5 0
v -46 -4 0
v -45 -4 0
v -46 -5 0
v -47 -5 0
v -47 -4 0
v -46 -4 0
v -47 -5 0
v -48 -5 0
v -48 -4 0
v -47 -4 0
v -48 -5 0
v -49 -5 0
v -49 -4 0
v -48 -4 0
v -49 -5 0
v -50 -5 0
v -50 -4 0
v -49 -4 0
v 0 -6 0
v -1 -6 0
v -1 -5 0
v 0 -5 0
v -1 -6 0
v -2 -6 0
v -2 -5 0
v -1 -5 0
v -2 -6 0
v -3 -6 0
v -3 -5 0
v -2 -5 0
v -3 -6 0
v -4 -6 0
v -4 -5 0
v -3 -5 0
v -4 -6 0
v -5 -6 0
v -5 -5 0
v -4 -5 0
v -5 -6 0
v -6 -6 0
v -6 -5 0
v -5 -5 0
v -6 -6 0
v -7 -6 0
v -7 -5 0
v -6 -5 0
v -7 -6 0
v -8 -6 0
v -8 -5 0
v -7 -5 0
v -8 -6 0
v -9 -6 0
v -9 -5 0
v -8 -5 0
v -9 -6 0
v -10 -6 0
v -10 -5 0
v -9 -5 0
v -10 -6 0
v -11 -6 0
v -11 -5 0
v -10 -5 0
v -11 -6 0
v -12 -6 0
v -12 -5 0
v -11 -5 0
v -12 -6 0
v -13 -6 0
v -13 -5 0
v -12 -5 0
v -13 -6 0
v -14 -6 0
v -14 -5 0
v -13 -5 0
v -14 -6 0
v -15 -6 0
v -15 -5 0
v -14 -5 0
v -19 -6 0
v -20 -6 0
v -20 -5 0
v -19 -5 0
v -20 -6 0
v -21 -6 0
v -21 -5 0
v -20 -5 0
v -21 -6 0
v -22 -6 0
v -22 -5 0
v -21 -5 0
v -22 -6 0
v -23 -6 0
v -23 -5 0
v -22 -5 0
v -23 -6 0
v -24 -6 0
v -24 -5 0
v -23 -5 0
v -24 -6 0
v -25 -6 0
v -25 -5 0
v -24 -5 0
v -25 -6 0
v -26 -6 0
v -26 -5 0
v -25 -5 0
v -26 -6 0
v -27 -6 0
v -27 -5 0
v -26 -5 0
v -27 -6 0
v -28 -6 0
v -28 -5 0
v -27 -5 0
v -28 -6 0
v -29 -6 0
v -29 -5 0
v -28 -5 0
v -29 -6 0
v -30 -6 0
v -30 -5 0
v -29 -5 0
v -30 -6 0
v -31 -6 0
v -31 -5 0
v -30 -5 0
v -35 -6 0
v -36 -6 0
v -36 -5 0
v -35 -5 0
v -36 -6 0
v -37 -6 0
v -37 -5 0
v -36 -5 0
v -37 -6 0
v -38 -6 0
v -38 -5 0
v -37 -5 0
v -38 -6 0
v -39 -6 0
v -39 -5 0
v -38 -5 0
v -39 -6 0
v -40 -6 0
v -40 -5 0
v -39 -5 0
v -40 -6 0
v -41 -6 0
v -41 -5 0
v -40 -5 0
v -41 -6 0
v -42 -6 0
v -42 -5 0
v -41 -5 0
v -42 -6 0
v -43 -6 0
v -43 -5 0
v -42 -5 0
v -43 -6 0
v -44 -6 0
v -44 -5 0
v -43 -5 0
v -44 -6 0
v -45 -6 0
v -45 -5 0
v -44 -5 0
v -45 -6 0
v -46 -6 0
v -46 -5 0
v -45 -5 0
v -46 -6 0
v -47 -6 0
v -47 -5 0
v -46 -5 0
v -47 -6 0
v -48 -6 0
v -48 -5 0
v -47 -5 0
v -48 -6 0
v -49 -6 0
v -49 -5 0
v -48 -5 0
v -49 -6 0
v -50 -6 0
v -50 -5 0
v -49 -5 0

# Texture cooridinates (Count = 11)
vt 0.1 0.6111111
vt 0.125 0.6111111
vt 0.125 0.5833334
vt 0.1 0.5833334
vt 0.15 0.6111111
vt 0.15 0.5833334
vt 0.175 0.6111111
vt 0.175 0.5833334
vt 0.15 0.6388889
vt 0.175 0.6388889
vt 0.125 0.6388889

# Normal
vn 0 0 -1

# Mesh description
g Dojo_mesh_0003

# Faces
f 1/1/1 2/2/1 3/3/1 4/4/1
f 5/5/1 6/2/1 7/3/1 8/6/1
f 9/5/1 10/2/1 11/3/1 12/6/1
f 13/5/1 14/2/1 15/3/1 16/6/1
f 17/5/1 18/2/1 19/3/1 20/6/1
f 21/5/1 22/2/1 23/3/1 24/6/1
f 25/5/1 26/2/1 27/3/1 28/6/1
f 29/5/1 30/2/1 31/3/1 32/6/1
f 33/5/1 34/2/1 35/3/1 36/6/1
f 37/5/1 38/2/1 39/3/1 40/6/1
f 41/5/1 42/2/1 43/3/1 44/6/1
f 45/5/1 46/2/1 47/3/1 48/6/1
f 49/5/1 50/2/1 51/3/1 52/6/1
f 53/5/1 54/2/1 55/3/1 56/6/1
f 57/5/1 58/2/1 59/3/1 60/6/1
f 61/5/1 62/2/1 63/3/1 64/6/1
f 65/5/1 66/2/1 67/3/1 68/6/1
f 69/5/1 70/2/1 71/3/1 72/6/1
f 73/5/1 74/2/1 75/3/1 76/6/1
f 77/5/1 78/2/1 79/3/1 80/6/1
f 81/5/1 82/2/1 83/3/1 84/6/1
f 85/5/1 86/2/1 87/3/1 88/6/1
f 89/5/1 90/2/1 91/3/1 92/6/1
f 93/5/1 94/2/1 95/3/1 96/6/1
f 97/5/1 98/2/1 99/3/1 100/6/1
f 101/5/1 102/2/1 103/3/1 104/6/1
f 105/5/1 106/2/1 107/3/1 108/6/1
f 109/5/1 110/2/1 111/3/1 112/6/1
f 113/5/1 114/2/1 115/3/1 116/6/1
f 117/5/1 118/2/1 119/3/1 120/6/1
f 121/5/1 122/2/1 123/3/1 124/6/1
f 125/5/1 126/2/1 127/3/1 128/6/1
f 129/5/1 130/2/1 131/3/1 132/6/1
f 133/5/1 134/2/1 135/3/1 136/6/1
f 137/5/1 138/2/1 139/3/1 140/6/1
f 141/5/1 142/2/1 143/3/1 144/6/1
f 145/5/1 146/2/1 147/3/1 148/6/1
f 149/5/1 150/2/1 151/3/1 152/6/1
f 153/5/1 154/2/1 155/3/1 156/6/1
f 157/5/1 158/2/1 159/3/1 160/6/1
f 161/5/1 162/2/1 163/3/1 164/6/1
f 165/5/1 166/7/1 167/8/1 168/6/1
f 169/7/1 170/5/1 171/9/1 172/10/1
f 173/2/1 174/5/1 175/9/1 176/11/1
f 177/2/1 178/5/1 179/9/1 180/11/1
f 181/2/1 182/5/1 183/9/1 184/11/1
f 185/2/1 186/5/1 187/9/1 188/11/1
f 189/2/1 190/5/1 191/9/1 192/11/1
f 193/2/1 194/5/1 195/9/1 196/11/1
f 197/2/1 198/5/1 199/9/1 200/11/1
f 201/2/1 202/5/1 203/9/1 204/11/1
f 205/2/1 206/5/1 207/9/1 208/11/1
f 209/2/1 210/5/1 211/9/1 212/11/1
f 213/2/1 214/5/1 215/9/1 216/11/1
f 217/2/1 218/5/1 219/9/1 220/11/1
f 221/2/1 222/5/1 223/9/1 224/11/1
f 225/2/1 226/5/1 227/9/1 228/11/1
f 229/2/1 230/5/1 231/9/1 232/11/1
f 233/2/1 234/5/1 235/9/1 236/11/1
f 237/2/1 238/5/1 239/9/1 240/11/1
f 241/2/1 242/5/1 243/9/1 244/11/1
f 245/2/1 246/5/1 247/9/1 248/11/1
f 249/2/1 250/5/1 251/9/1 252/11/1
f 253/2/1 254/5/1 255/9/1 256/11/1
f 257/2/1 258/5/1 259/9/1 260/11/1
f 261/2/1 262/5/1 263/9/1 264/11/1
f 265/2/1 266/5/1 267/9/1 268/11/1
f 269/2/1 270/5/1 271/9/1 272/11/1
f 273/2/1 274/5/1 275/9/1 276/11/1
f 277/2/1 278/5/1 279/9/1 280/11/1
f 281/2/1 282/5/1 283/9/1 284/11/1
f 285/2/1 286/5/1 287/9/1 288/11/1
f 289/2/1 290/5/1 291/9/1 292/11/1
f 293/2/1 294/5/1 295/9/1 296/11/1
f 297/2/1 298/5/1 299/9/1 300/11/1
f 301/2/1 302/5/1 303/9/1 304/11/1
f 305/2/1 306/5/1 307/9/1 308/11/1
f 309/2/1 310/5/1 311/9/1 312/11/1
f 313/2/1 314/5/1 315/9/1 316/11/1
f 317/2/1 318/5/1 319/9/1 320/11/1
f 321/2/1 322/5/1 323/9/1 324/11/1
f 325/2/1 326/5/1 327/9/1 328/11/1
f 329/2/1 330/5/1 331/9/1 332/11/1
f 333/5/1 334/7/1 335/10/1 336/9/1
f 337/7/1 338/5/1 339/9/1 340/10/1
f 341/2/1 342/5/1 343/9/1 344/11/1
f 345/2/1 346/5/1 347/9/1 348/11/1
f 349/2/1 350/5/1 351/9/1 352/11/1
f 353/2/1 354/5/1 355/9/1 356/11/1
f 357/2/1 358/5/1 359/9/1 360/11/1
f 361/2/1 362/5/1 363/9/1 364/11/1
f 365/2/1 366/5/1 367/9/1 368/11/1
f 369/2/1 370/5/1 371/9/1 372/11/1
f 373/2/1 374/5/1 375/9/1 376/11/1
f 377/2/1 378/5/1 379/9/1 380/11/1
f 381/2/1 382/5/1 383/9/1 384/11/1
f 385/2/1 386/5/1 387/9/1 388/11/1
f 389/2/1 390/5/1 391/9/1 392/11/1
f 393/2/1 394/5/1 395/9/1 396/11/1
f 397/2/1 398/5/1 399/9/1 400/11/1
f 401/2/1 402/5/1 403/9/1 404/11/1
f 405/2/1 406/5/1 407/9/1 408/11/1
f 409/2/1 410/5/1 411/9/1 412/11/1
f 413/2/1 414/5/1 415/9/1 416/11/1
f 417/2/1 418/5/1 419/9/1 420/11/1
f 421/2/1 422/5/1 423/9/1 424/11/1
f 425/2/1 426/5/1 427/9/1 428/11/1
f 429/2/1 430/5/1 431/9/1 432/11/1
f 433/2/1 434/5/1 435/9/1 436/11/1
f 437/2/1 438/5/1 439/9/1 440/11/1
f 441/2/1 442/5/1 443/9/1 444/11/1
f 445/2/1 446/5/1 447/9/1 448/11/1
f 449/2/1 450/5/1 451/9/1 452/11/1
f 453/2/1 454/5/1 455/9/1 456/11/1
f 457/2/1 458/5/1 459/9/1 460/11/1
f 461/2/1 462/5/1 463/9/1 464/11/1
f 465/2/1 466/5/1 467/9/1 468/11/1
f 469/2/1 470/5/1 471/9/1 472/11/1
f 473/2/1 474/5/1 475/9/1 476/11/1
f 477/2/1 478/5/1 479/9/1 480/11/1
f 481/2/1 482/5/1 483/9/1 484/11/1
f 485/2/1 486/5/1 487/9/1 488/11/1
f 489/2/1 490/5/1 491/9/1 492/11/1
f 493/2/1 494/5/1 495/9/1 496/11/1
f 497/2/1 498/5/1 499/9/1 500/11/1
f 501/5/1 502/7/1 503/10/1 504/9/1
f 505/4/1 506/3/1 507/2/1 508/1/1
f 509/3/1 510/6/1 511/5/1 512/2/1
f 513/3/1 514/6/1 515/5/1 516/2/1
f 517/3/1 518/6/1 519/5/1 520/2/1
f 521/3/1 522/6/1 523/5/1 524/2/1
f 525/3/1 526/6/1 527/5/1 528/2/1
f 529/3/1 530/6/1 531/5/1 532/2/1
f 533/3/1 534/6/1 535/5/1 536/2/1
f 537/3/1 538/6/1 539/5/1 540/2/1
f 541/3/1 542/6/1 543/5/1 544/2/1
f 545/3/1 546/6/1 547/5/1 548/2/1
f 549/3/1 550/6/1 551/5/1 552/2/1
f 553/3/1 554/6/1 555/5/1 556/2/1
f 557/3/1 558/6/1 559/5/1 560/2/1
f 561/3/1 562/6/1 563/5/1 564/2/1
f 565/3/1 566/6/1 567/5/1 568/2/1
f 569/3/1 570/6/1 571/5/1 572/2/1
f 573/3/1 574/6/1 575/5/1 576/2/1
f 577/3/1 578/6/1 579/5/1 580/2/1
f 581/3/1 582/6/1 583/5/1 584/2/1
f 585/3/1 586/6/1 587/5/1 588/2/1
f 589/3/1 590/6/1 591/5/1 592/2/1
f 593/3/1 594/6/1 595/5/1 596/2/1
f 597/3/1 598/6/1 599/5/1 600/2/1
f 601/3/1 602/6/1 603/5/1 604/2/1
f 605/3/1 606/6/1 607/5/1 608/2/1
f 609/3/1 610/6/1 611/5/1 612/2/1
f 613/3/1 614/6/1 615/5/1 616/2/1
f 617/3/1 618/6/1 619/5/1 620/2/1
f 621/3/1 622/6/1 623/5/1 624/2/1
f 625/3/1 626/6/1 627/5/1 628/2/1
f 629/3/1 630/6/1 631/5/1 632/2/1
f 633/3/1 634/6/1 635/5/1 636/2/1
f 637/3/1 638/6/1 639/5/1 640/2/1
f 641/3/1 642/6/1 643/5/1 644/2/1
f 645/3/1 646/6/1 647/5/1 648/2/1
f 649/3/1 650/6/1 651/5/1 652/2/1
f 653/3/1 654/6/1 655/5/1 656/2/1
f 657/3/1 658/6/1 659/5/1 660/2/1
f 661/3/1 662/6/1 663/5/1 664/2/1
f 665/3/1 666/6/1 667/5/1 668/2/1
f 669/6/1 670/8/1 671/7/1 672/5/1

