# Tiled2Unity generated file. Do not modify by hand.
# Wavefront file for 'Dojo_mesh_0017.obj'

# Vertices (Count = 336)
v -5 -4 0
v -6 -4 0
v -6 -3 0
v -5 -3 0
v -6 -4 0
v -7 -4 0
v -7 -3 0
v -6 -3 0
v -7 -4 0
v -8 -4 0
v -8 -3 0
v -7 -3 0
v -8 -4 0
v -9 -4 0
v -9 -3 0
v -8 -3 0
v -9 -4 0
v -10 -4 0
v -10 -3 0
v -9 -3 0
v -10 -4 0
v -11 -4 0
v -11 -3 0
v -10 -3 0
v -20 -4 0
v -21 -4 0
v -21 -3 0
v -20 -3 0
v -21 -4 0
v -22 -4 0
v -22 -3 0
v -21 -3 0
v -22 -4 0
v -23 -4 0
v -23 -3 0
v -22 -3 0
v -23 -4 0
v -24 -4 0
v -24 -3 0
v -23 -3 0
v -24 -4 0
v -25 -4 0
v -25 -3 0
v -24 -3 0
v -25 -4 0
v -26 -4 0
v -26 -3 0
v -25 -3 0
v -26 -4 0
v -27 -4 0
v -27 -3 0
v -26 -3 0
v -27 -4 0
v -28 -4 0
v -28 -3 0
v -27 -3 0
v -28 -4 0
v -29 -4 0
v -29 -3 0
v -28 -3 0
v -29 -4 0
v -30 -4 0
v -30 -3 0
v -29 -3 0
v -39 -4 0
v -40 -4 0
v -40 -3 0
v -39 -3 0
v -40 -4 0
v -41 -4 0
v -41 -3 0
v -40 -3 0
v -41 -4 0
v -42 -4 0
v -42 -3 0
v -41 -3 0
v -42 -4 0
v -43 -4 0
v -43 -3 0
v -42 -3 0
v -43 -4 0
v -44 -4 0
v -44 -3 0
v -43 -3 0
v -44 -4 0
v -45 -4 0
v -45 -3 0
v -44 -3 0
v -5 -5 0
v -6 -5 0
v -6 -4 0
v -5 -4 0
v -6 -5 0
v -7 -5 0
v -7 -4 0
v -6 -4 0
v -7 -5 0
v -8 -5 0
v -8 -4 0
v -7 -4 0
v -8 -5 0
v -9 -5 0
v -9 -4 0
v -8 -4 0
v -9 -5 0
v -10 -5 0
v -10 -4 0
v -9 -4 0
v -10 -5 0
v -11 -5 0
v -11 -4 0
v -10 -4 0
v -20 -5 0
v -21 -5 0
v -21 -4 0
v -20 -4 0
v -21 -5 0
v -22 -5 0
v -22 -4 0
v -21 -4 0
v -22 -5 0
v -23 -5 0
v -23 -4 0
v -22 -4 0
v -23 -5 0
v -24 -5 0
v -24 -4 0
v -23 -4 0
v -24 -5 0
v -25 -5 0
v -25 -4 0
v -24 -4 0
v -25 -5 0
v -26 -5 0
v -26 -4 0
v -25 -4 0
v -26 -5 0
v -27 -5 0
v -27 -4 0
v -26 -4 0
v -27 -5 0
v -28 -5 0
v -28 -4 0
v -27 -4 0
v -28 -5 0
v -29 -5 0
v -29 -4 0
v -28 -4 0
v -29 -5 0
v -30 -5 0
v -30 -4 0
v -29 -4 0
v -39 -5 0
v -40 -5 0
v -40 -4 0
v -39 -4 0
v -40 -5 0
v -41 -5 0
v -41 -4 0
v -40 -4 0
v -41 -5 0
v -42 -5 0
v -42 -4 0
v -41 -4 0
v -42 -5 0
v -43 -5 0
v -43 -4 0
v -42 -4 0
v -43 -5 0
v -44 -5 0
v -44 -4 0
v -43 -4 0
v -44 -5 0
v -45 -5 0
v -45 -4 0
v -44 -4 0
v -20 -6 0
v -21 -6 0
v -21 -5 0
v -20 -5 0
v -21 -6 0
v -22 -6 0
v -22 -5 0
v -21 -5 0
v -28 -6 0
v -29 -6 0
v -29 -5 0
v -28 -5 0
v -29 -6 0
v -30 -6 0
v -30 -5 0
v -29 -5 0
v -20 -7 0
v -21 -7 0
v -21 -6 0
v -20 -6 0
v -21 -7 0
v -22 -7 0
v -22 -6 0
v -21 -6 0
v -28 -7 0
v -29 -7 0
v -29 -6 0
v -28 -6 0
v -29 -7 0
v -30 -7 0
v -30 -6 0
v -29 -6 0
v -21 -12 0
v -22 -12 0
v -22 -11 0
v -21 -11 0
v -22 -12 0
v -23 -12 0
v -23 -11 0
v -22 -11 0
v -27 -12 0
v -28 -12 0
v -28 -11 0
v -27 -11 0
v -28 -12 0
v -29 -12 0
v -29 -11 0
v -28 -11 0
v -21 -13 0
v -22 -13 0
v -22 -12 0
v -21 -12 0
v -22 -13 0
v -23 -13 0
v -23 -12 0
v -22 -12 0
v -27 -13 0
v -28 -13 0
v -28 -12 0
v -27 -12 0
v -28 -13 0
v -29 -13 0
v -29 -12 0
v -28 -12 0
v -21 -23 0
v -22 -23 0
v -22 -22 0
v -21 -22 0
v -22 -23 0
v -23 -23 0
v -23 -22 0
v -22 -22 0
v -27 -23 0
v -28 -23 0
v -28 -22 0
v -27 -22 0
v -28 -23 0
v -29 -23 0
v -29 -22 0
v -28 -22 0
v -21 -24 0
v -22 -24 0
v -22 -23 0
v -21 -23 0
v -22 -24 0
v -23 -24 0
v -23 -23 0
v -22 -23 0
v -27 -24 0
v -28 -24 0
v -28 -23 0
v -27 -23 0
v -28 -24 0
v -29 -24 0
v -29 -23 0
v -28 -23 0
v -21 -25 0
v -22 -25 0
v -22 -24 0
v -21 -24 0
v -22 -25 0
v -23 -25 0
v -23 -24 0
v -22 -24 0
v -27 -25 0
v -28 -25 0
v -28 -24 0
v -27 -24 0
v -28 -25 0
v -29 -25 0
v -29 -24 0
v -28 -24 0
v -21 -26 0
v -22 -26 0
v -22 -25 0
v -21 -25 0
v -22 -26 0
v -23 -26 0
v -23 -25 0
v -22 -25 0
v -27 -26 0
v -28 -26 0
v -28 -25 0
v -27 -25 0
v -28 -26 0
v -29 -26 0
v -29 -25 0
v -28 -25 0
v -12 -41 0
v -13 -41 0
v -13 -40 0
v -12 -40 0
v -13 -41 0
v -14 -41 0
v -14 -40 0
v -13 -40 0
v -36 -41 0
v -37 -41 0
v -37 -40 0
v -36 -40 0
v -37 -41 0
v -38 -41 0
v -38 -40 0
v -37 -40 0
v -12 -42 0
v -13 -42 0
v -13 -41 0
v -12 -41 0
v -13 -42 0
v -14 -42 0
v -14 -41 0
v -13 -41 0
v -36 -42 0
v -37 -42 0
v -37 -41 0
v -36 -41 0
v -37 -42 0
v -38 -42 0
v -38 -41 0
v -37 -41 0

# Texture cooridinates (Count = 95)
vt 1 0.84375
vt 0.96875 0.84375
vt 0.96875 0.875
vt 1 0.875
vt 0.9375 0.84375
vt 0.9375 0.875
vt 0.8125 0.21875
vt 0.84375 0.21875
vt 0.84375 0.25
vt 0.8125 0.25
vt 0.875 0.21875
vt 0.875 0.25
vt 0.9375 0.78125
vt 0.96875 0.78125
vt 0.96875 0.8125
vt 0.9375 0.8125
vt 1 0.78125
vt 1 0.8125
vt 0.0625 0.21875
vt 0.09375 0.21875
vt 0.09375 0.25
vt 0.0625 0.25
vt 0.125 0.21875
vt 0.125 0.25
vt 0.15625 0.21875
vt 0.15625 0.25
vt 0.1875 0.21875
vt 0.1875 0.25
vt 0.21875 0.21875
vt 0.21875 0.25
vt 0.25 0.21875
vt 0.25 0.25
vt 0.8125 0.1875
vt 0.84375 0.1875
vt 0.875 0.1875
vt 0.9375 0.75
vt 0.96875 0.75
vt 1 0.75
vt 0.0625 0.1875
vt 0.09375 0.1875
vt 0.125 0.1875
vt 0.15625 0.1875
vt 0.1875 0.1875
vt 0.21875 0.1875
vt 0.25 0.1875
vt 0.9375 0.71875
vt 0.96875 0.71875
vt 1 0.71875
vt 0.9375 0.6875
vt 0.96875 0.6875
vt 1 0.6875
vt 0.1875 0.8125
vt 0.21875 0.8125
vt 0.21875 0.84375
vt 0.1875 0.84375
vt 0.25 0.8125
vt 0.25 0.84375
vt 0.1875 0.78125
vt 0.21875 0.78125
vt 0.25 0.78125
vt 0.5 0.84375
vt 0.53125 0.84375
vt 0.53125 0.875
vt 0.5 0.875
vt 0.5625 0.84375
vt 0.5625 0.875
vt 0.5 0.96875
vt 0.53125 0.96875
vt 0.53125 1
vt 0.5 1
vt 0.5625 0.96875
vt 0.5625 1
vt 0.5 0.8125
vt 0.53125 0.8125
vt 0.5625 0.8125
vt 0.5 0.9375
vt 0.53125 0.9375
vt 0.5625 0.9375
vt 0.5 0.78125
vt 0.53125 0.78125
vt 0.5625 0.78125
vt 0.5 0.90625
vt 0.53125 0.90625
vt 0.5625 0.90625
vt 0.5 0.75
vt 0.53125 0.75
vt 0.5625 0.75
vt 0 0.15625
vt 0.03125 0.15625
vt 0.03125 0.1875
vt 0 0.1875
vt 0.0625 0.15625
vt 0 0.125
vt 0.03125 0.125
vt 0.0625 0.125

# Normal
vn 0 0 -1

# Mesh description
g Dojo_mesh_0017

# Faces
f 1/1/1 2/2/1 3/3/1 4/4/1
f 5/2/1 6/5/1 7/6/1 8/3/1
f 9/7/1 10/8/1 11/9/1 12/10/1
f 13/8/1 14/11/1 15/12/1 16/9/1
f 17/1/1 18/2/1 19/3/1 20/4/1
f 21/2/1 22/5/1 23/6/1 24/3/1
f 25/13/1 26/14/1 27/15/1 28/16/1
f 29/14/1 30/17/1 31/18/1 32/15/1
f 33/19/1 34/20/1 35/21/1 36/22/1
f 37/20/1 38/23/1 39/24/1 40/21/1
f 41/23/1 42/25/1 43/26/1 44/24/1
f 45/25/1 46/27/1 47/28/1 48/26/1
f 49/27/1 50/29/1 51/30/1 52/28/1
f 53/29/1 54/31/1 55/32/1 56/30/1
f 57/13/1 58/14/1 59/15/1 60/16/1
f 61/14/1 62/17/1 63/18/1 64/15/1
f 65/1/1 66/2/1 67/3/1 68/4/1
f 69/2/1 70/5/1 71/6/1 72/3/1
f 73/7/1 74/8/1 75/9/1 76/10/1
f 77/8/1 78/11/1 79/12/1 80/9/1
f 81/1/1 82/2/1 83/3/1 84/4/1
f 85/2/1 86/5/1 87/6/1 88/3/1
f 89/18/1 90/15/1 91/2/1 92/1/1
f 93/15/1 94/16/1 95/5/1 96/2/1
f 97/33/1 98/34/1 99/8/1 100/7/1
f 101/34/1 102/35/1 103/11/1 104/8/1
f 105/18/1 106/15/1 107/2/1 108/1/1
f 109/15/1 110/16/1 111/5/1 112/2/1
f 113/36/1 114/37/1 115/14/1 116/13/1
f 117/37/1 118/38/1 119/17/1 120/14/1
f 121/39/1 122/40/1 123/20/1 124/19/1
f 125/40/1 126/41/1 127/23/1 128/20/1
f 129/41/1 130/42/1 131/25/1 132/23/1
f 133/42/1 134/43/1 135/27/1 136/25/1
f 137/43/1 138/44/1 139/29/1 140/27/1
f 141/44/1 142/45/1 143/31/1 144/29/1
f 145/36/1 146/37/1 147/14/1 148/13/1
f 149/37/1 150/38/1 151/17/1 152/14/1
f 153/18/1 154/15/1 155/2/1 156/1/1
f 157/15/1 158/16/1 159/5/1 160/2/1
f 161/33/1 162/34/1 163/8/1 164/7/1
f 165/34/1 166/35/1 167/11/1 168/8/1
f 169/18/1 170/15/1 171/2/1 172/1/1
f 173/15/1 174/16/1 175/5/1 176/2/1
f 177/46/1 178/47/1 179/37/1 180/36/1
f 181/47/1 182/48/1 183/38/1 184/37/1
f 185/46/1 186/47/1 187/37/1 188/36/1
f 189/47/1 190/48/1 191/38/1 192/37/1
f 193/49/1 194/50/1 195/47/1 196/46/1
f 197/50/1 198/51/1 199/48/1 200/47/1
f 201/49/1 202/50/1 203/47/1 204/46/1
f 205/50/1 206/51/1 207/48/1 208/47/1
f 209/52/1 210/53/1 211/54/1 212/55/1
f 213/53/1 214/56/1 215/57/1 216/54/1
f 217/52/1 218/53/1 219/54/1 220/55/1
f 221/53/1 222/56/1 223/57/1 224/54/1
f 225/58/1 226/59/1 227/53/1 228/52/1
f 229/59/1 230/60/1 231/56/1 232/53/1
f 233/58/1 234/59/1 235/53/1 236/52/1
f 237/59/1 238/60/1 239/56/1 240/53/1
f 241/61/1 242/62/1 243/63/1 244/64/1
f 245/62/1 246/65/1 247/66/1 248/63/1
f 249/67/1 250/68/1 251/69/1 252/70/1
f 253/68/1 254/71/1 255/72/1 256/69/1
f 257/73/1 258/74/1 259/62/1 260/61/1
f 261/74/1 262/75/1 263/65/1 264/62/1
f 265/76/1 266/77/1 267/68/1 268/67/1
f 269/77/1 270/78/1 271/71/1 272/68/1
f 273/79/1 274/80/1 275/74/1 276/73/1
f 277/80/1 278/81/1 279/75/1 280/74/1
f 281/82/1 282/83/1 283/77/1 284/76/1
f 285/83/1 286/84/1 287/78/1 288/77/1
f 289/85/1 290/86/1 291/80/1 292/79/1
f 293/86/1 294/87/1 295/81/1 296/80/1
f 297/64/1 298/63/1 299/83/1 300/82/1
f 301/63/1 302/66/1 303/84/1 304/83/1
f 305/88/1 306/89/1 307/90/1 308/91/1
f 309/89/1 310/92/1 311/39/1 312/90/1
f 313/88/1 314/89/1 315/90/1 316/91/1
f 317/89/1 318/92/1 319/39/1 320/90/1
f 321/93/1 322/94/1 323/89/1 324/88/1
f 325/94/1 326/95/1 327/92/1 328/89/1
f 329/93/1 330/94/1 331/89/1 332/88/1
f 333/94/1 334/95/1 335/92/1 336/89/1

