# Tiled2Unity generated file. Do not modify by hand.
# Wavefront file for 'Dojo_mesh_0009.obj'

# Vertices (Count = 520)
v -1 -8 0
v -2 -8 0
v -2 -7 0
v -1 -7 0
v -2 -8 0
v -3 -8 0
v -3 -7 0
v -2 -7 0
v -3 -8 0
v -4 -8 0
v -4 -7 0
v -3 -7 0
v 0 -9 0
v -1 -9 0
v -1 -8 0
v 0 -8 0
v -1 -9 0
v -2 -9 0
v -2 -8 0
v -1 -8 0
v -2 -9 0
v -3 -9 0
v -3 -8 0
v -2 -8 0
v -3 -9 0
v -4 -9 0
v -4 -8 0
v -3 -8 0
v -46 -9 0
v -47 -9 0
v -47 -8 0
v -46 -8 0
v -47 -9 0
v -48 -9 0
v -48 -8 0
v -47 -8 0
v -48 -9 0
v -49 -9 0
v -49 -8 0
v -48 -8 0
v -49 -9 0
v -50 -9 0
v -50 -8 0
v -49 -8 0
v 0 -10 0
v -1 -10 0
v -1 -9 0
v 0 -9 0
v -1 -10 0
v -2 -10 0
v -2 -9 0
v -1 -9 0
v -2 -10 0
v -3 -10 0
v -3 -9 0
v -2 -9 0
v -3 -10 0
v -4 -10 0
v -4 -9 0
v -3 -9 0
v -46 -10 0
v -47 -10 0
v -47 -9 0
v -46 -9 0
v -47 -10 0
v -48 -10 0
v -48 -9 0
v -47 -9 0
v -48 -10 0
v -49 -10 0
v -49 -9 0
v -48 -9 0
v -49 -10 0
v -50 -10 0
v -50 -9 0
v -49 -9 0
v 0 -18 0
v -1 -18 0
v -1 -17 0
v 0 -17 0
v -1 -18 0
v -2 -18 0
v -2 -17 0
v -1 -17 0
v -2 -18 0
v -3 -18 0
v -3 -17 0
v -2 -17 0
v -3 -18 0
v -4 -18 0
v -4 -17 0
v -3 -17 0
v -46 -18 0
v -47 -18 0
v -47 -17 0
v -46 -17 0
v -47 -18 0
v -48 -18 0
v -48 -17 0
v -47 -17 0
v -48 -18 0
v -49 -18 0
v -49 -17 0
v -48 -17 0
v -49 -18 0
v -50 -18 0
v -50 -17 0
v -49 -17 0
v 0 -19 0
v -1 -19 0
v -1 -18 0
v 0 -18 0
v -1 -19 0
v -2 -19 0
v -2 -18 0
v -1 -18 0
v -2 -19 0
v -3 -19 0
v -3 -18 0
v -2 -18 0
v -3 -19 0
v -4 -19 0
v -4 -18 0
v -3 -18 0
v -46 -19 0
v -47 -19 0
v -47 -18 0
v -46 -18 0
v -47 -19 0
v -48 -19 0
v -48 -18 0
v -47 -18 0
v -48 -19 0
v -49 -19 0
v -49 -18 0
v -48 -18 0
v -49 -19 0
v -50 -19 0
v -50 -18 0
v -49 -18 0
v -47 -26 0
v -48 -26 0
v -48 -25 0
v -47 -25 0
v 0 -27 0
v -1 -27 0
v -1 -26 0
v 0 -26 0
v -1 -27 0
v -2 -27 0
v -2 -26 0
v -1 -26 0
v -2 -27 0
v -3 -27 0
v -3 -26 0
v -2 -26 0
v -3 -27 0
v -4 -27 0
v -4 -26 0
v -3 -26 0
v -46 -27 0
v -47 -27 0
v -47 -26 0
v -46 -26 0
v -47 -27 0
v -48 -27 0
v -48 -26 0
v -47 -26 0
v -48 -27 0
v -49 -27 0
v -49 -26 0
v -48 -26 0
v -49 -27 0
v -50 -27 0
v -50 -26 0
v -49 -26 0
v 0 -28 0
v -1 -28 0
v -1 -27 0
v 0 -27 0
v -1 -28 0
v -2 -28 0
v -2 -27 0
v -1 -27 0
v -2 -28 0
v -3 -28 0
v -3 -27 0
v -2 -27 0
v -3 -28 0
v -4 -28 0
v -4 -27 0
v -3 -27 0
v -46 -28 0
v -47 -28 0
v -47 -27 0
v -46 -27 0
v -47 -28 0
v -48 -28 0
v -48 -27 0
v -47 -27 0
v -48 -28 0
v -49 -28 0
v -49 -27 0
v -48 -27 0
v -49 -28 0
v -50 -28 0
v -50 -27 0
v -49 -27 0
v 0 -35 0
v -1 -35 0
v -1 -34 0
v 0 -34 0
v -1 -35 0
v -2 -35 0
v -2 -34 0
v -1 -34 0
v -2 -35 0
v -3 -35 0
v -3 -34 0
v -2 -34 0
v -46 -35 0
v -47 -35 0
v -47 -34 0
v -46 -34 0
v -47 -35 0
v -48 -35 0
v -48 -34 0
v -47 -34 0
v -48 -35 0
v -49 -35 0
v -49 -34 0
v -48 -34 0
v -49 -35 0
v -50 -35 0
v -50 -34 0
v -49 -34 0
v 0 -36 0
v -1 -36 0
v -1 -35 0
v 0 -35 0
v -1 -36 0
v -2 -36 0
v -2 -35 0
v -1 -35 0
v -2 -36 0
v -3 -36 0
v -3 -35 0
v -2 -35 0
v -3 -36 0
v -4 -36 0
v -4 -35 0
v -3 -35 0
v -46 -36 0
v -47 -36 0
v -47 -35 0
v -46 -35 0
v -47 -36 0
v -48 -36 0
v -48 -35 0
v -47 -35 0
v -48 -36 0
v -49 -36 0
v -49 -35 0
v -48 -35 0
v -49 -36 0
v -50 -36 0
v -50 -35 0
v -49 -35 0
v 0 -37 0
v -1 -37 0
v -1 -36 0
v 0 -36 0
v -1 -37 0
v -2 -37 0
v -2 -36 0
v -1 -36 0
v -2 -37 0
v -3 -37 0
v -3 -36 0
v -2 -36 0
v -3 -37 0
v -4 -37 0
v -4 -36 0
v -3 -36 0
v -46 -43 0
v -47 -43 0
v -47 -42 0
v -46 -42 0
v -47 -43 0
v -48 -43 0
v -48 -42 0
v -47 -42 0
v -48 -43 0
v -49 -43 0
v -49 -42 0
v -48 -42 0
v -49 -43 0
v -50 -43 0
v -50 -42 0
v -49 -42 0
v -46 -44 0
v -47 -44 0
v -47 -43 0
v -46 -43 0
v -47 -44 0
v -48 -44 0
v -48 -43 0
v -47 -43 0
v -48 -44 0
v -49 -44 0
v -49 -43 0
v -48 -43 0
v -49 -44 0
v -50 -44 0
v -50 -43 0
v -49 -43 0
v -22 -49 0
v -23 -49 0
v -23 -48 0
v -22 -48 0
v -45 -49 0
v -46 -49 0
v -46 -48 0
v -45 -48 0
v -46 -49 0
v -47 -49 0
v -47 -48 0
v -46 -48 0
v -4 -50 0
v -5 -50 0
v -5 -49 0
v -4 -49 0
v -5 -50 0
v -6 -50 0
v -6 -49 0
v -5 -49 0
v -6 -50 0
v -7 -50 0
v -7 -49 0
v -6 -49 0
v -7 -50 0
v -8 -50 0
v -8 -49 0
v -7 -49 0
v -12 -50 0
v -13 -50 0
v -13 -49 0
v -12 -49 0
v -13 -50 0
v -14 -50 0
v -14 -49 0
v -13 -49 0
v -14 -50 0
v -15 -50 0
v -15 -49 0
v -14 -49 0
v -15 -50 0
v -16 -50 0
v -16 -49 0
v -15 -49 0
v -20 -50 0
v -21 -50 0
v -21 -49 0
v -20 -49 0
v -21 -50 0
v -22 -50 0
v -22 -49 0
v -21 -49 0
v -22 -50 0
v -23 -50 0
v -23 -49 0
v -22 -49 0
v -23 -50 0
v -24 -50 0
v -24 -49 0
v -23 -49 0
v -28 -50 0
v -29 -50 0
v -29 -49 0
v -28 -49 0
v -29 -50 0
v -30 -50 0
v -30 -49 0
v -29 -49 0
v -30 -50 0
v -31 -50 0
v -31 -49 0
v -30 -49 0
v -31 -50 0
v -32 -50 0
v -32 -49 0
v -31 -49 0
v -36 -50 0
v -37 -50 0
v -37 -49 0
v -36 -49 0
v -37 -50 0
v -38 -50 0
v -38 -49 0
v -37 -49 0
v -38 -50 0
v -39 -50 0
v -39 -49 0
v -38 -49 0
v -39 -50 0
v -40 -50 0
v -40 -49 0
v -39 -49 0
v -44 -50 0
v -45 -50 0
v -45 -49 0
v -44 -49 0
v -45 -50 0
v -46 -50 0
v -46 -49 0
v -45 -49 0
v -46 -50 0
v -47 -50 0
v -47 -49 0
v -46 -49 0
v -47 -50 0
v -48 -50 0
v -48 -49 0
v -47 -49 0
v -4 -51 0
v -5 -51 0
v -5 -50 0
v -4 -50 0
v -5 -51 0
v -6 -51 0
v -6 -50 0
v -5 -50 0
v -6 -51 0
v -7 -51 0
v -7 -50 0
v -6 -50 0
v -7 -51 0
v -8 -51 0
v -8 -50 0
v -7 -50 0
v -12 -51 0
v -13 -51 0
v -13 -50 0
v -12 -50 0
v -13 -51 0
v -14 -51 0
v -14 -50 0
v -13 -50 0
v -14 -51 0
v -15 -51 0
v -15 -50 0
v -14 -50 0
v -15 -51 0
v -16 -51 0
v -16 -50 0
v -15 -50 0
v -20 -51 0
v -21 -51 0
v -21 -50 0
v -20 -50 0
v -21 -51 0
v -22 -51 0
v -22 -50 0
v -21 -50 0
v -22 -51 0
v -23 -51 0
v -23 -50 0
v -22 -50 0
v -23 -51 0
v -24 -51 0
v -24 -50 0
v -23 -50 0
v -28 -51 0
v -29 -51 0
v -29 -50 0
v -28 -50 0
v -29 -51 0
v -30 -51 0
v -30 -50 0
v -29 -50 0
v -30 -51 0
v -31 -51 0
v -31 -50 0
v -30 -50 0
v -31 -51 0
v -32 -51 0
v -32 -50 0
v -31 -50 0
v -36 -51 0
v -37 -51 0
v -37 -50 0
v -36 -50 0
v -37 -51 0
v -38 -51 0
v -38 -50 0
v -37 -50 0
v -38 -51 0
v -39 -51 0
v -39 -50 0
v -38 -50 0
v -39 -51 0
v -40 -51 0
v -40 -50 0
v -39 -50 0
v -44 -51 0
v -45 -51 0
v -45 -50 0
v -44 -50 0
v -45 -51 0
v -46 -51 0
v -46 -50 0
v -45 -50 0
v -46 -51 0
v -47 -51 0
v -47 -50 0
v -46 -50 0
v -47 -51 0
v -48 -51 0
v -48 -50 0
v -47 -50 0

# Texture cooridinates (Count = 17)
vt 0.125 0.4375
vt 0.1875 0.4375
vt 0.1875 0.5
vt 0.125 0.5
vt 0.3125 0.5625
vt 0.375 0.5625
vt 0.375 0.625
vt 0.3125 0.625
vt 0 0.5625
vt 0.0625 0.5625
vt 0.0625 0.625
vt 0 0.625
vt 0.3125 0.5
vt 0.375 0.5
vt 0.25 0.5625
vt 0.25 0.5
vt 0.25 0.625

# Normal
vn 0 0 -1

# Mesh description
g Dojo_mesh_0009

# Faces
f 1/1/1 2/2/1 3/3/1 4/4/1
f 5/1/1 6/2/1 7/3/1 8/4/1
f 9/5/1 10/6/1 11/7/1 12/8/1
f 13/4/1 14/1/1 15/2/1 16/3/1
f 17/9/1 18/10/1 19/11/1 20/12/1
f 21/9/1 22/10/1 23/11/1 24/12/1
f 25/2/1 26/3/1 27/4/1 28/1/1
f 29/6/1 30/5/1 31/13/1 32/14/1
f 33/2/1 34/1/1 35/4/1 36/3/1
f 37/2/1 38/1/1 39/4/1 40/3/1
f 41/5/1 42/15/1 43/16/1 44/13/1
f 45/16/1 46/13/1 47/5/1 48/15/1
f 49/4/1 50/3/1 51/2/1 52/1/1
f 53/4/1 54/3/1 55/2/1 56/1/1
f 57/13/1 58/14/1 59/6/1 60/5/1
f 61/7/1 62/8/1 63/5/1 64/6/1
f 65/3/1 66/4/1 67/1/1 68/2/1
f 69/3/1 70/4/1 71/1/1 72/2/1
f 73/8/1 74/17/1 75/15/1 76/5/1
f 77/15/1 78/5/1 79/8/1 80/17/1
f 81/1/1 82/2/1 83/3/1 84/4/1
f 85/1/1 86/2/1 87/3/1 88/4/1
f 89/5/1 90/6/1 91/7/1 92/8/1
f 93/15/1 94/5/1 95/8/1 96/17/1
f 97/1/1 98/2/1 99/3/1 100/4/1
f 101/1/1 102/2/1 103/3/1 104/4/1
f 105/5/1 106/6/1 107/7/1 108/8/1
f 109/16/1 110/13/1 111/5/1 112/15/1
f 113/4/1 114/3/1 115/2/1 116/1/1
f 117/4/1 118/3/1 119/2/1 120/1/1
f 121/13/1 122/14/1 123/6/1 124/5/1
f 125/16/1 126/13/1 127/5/1 128/15/1
f 129/4/1 130/3/1 131/2/1 132/1/1
f 133/4/1 134/3/1 135/2/1 136/1/1
f 137/13/1 138/14/1 139/6/1 140/5/1
f 141/1/1 142/2/1 143/3/1 144/4/1
f 145/15/1 146/5/1 147/8/1 148/17/1
f 149/1/1 150/2/1 151/3/1 152/4/1
f 153/1/1 154/2/1 155/3/1 156/4/1
f 157/5/1 158/6/1 159/7/1 160/8/1
f 161/4/1 162/1/1 163/2/1 164/3/1
f 165/9/1 166/10/1 167/11/1 168/12/1
f 169/9/1 170/10/1 171/11/1 172/12/1
f 173/2/1 174/3/1 175/4/1 176/1/1
f 177/16/1 178/13/1 179/5/1 180/15/1
f 181/4/1 182/3/1 183/2/1 184/1/1
f 185/4/1 186/3/1 187/2/1 188/1/1
f 189/13/1 190/14/1 191/6/1 192/5/1
f 193/16/1 194/13/1 195/5/1 196/15/1
f 197/4/1 198/3/1 199/2/1 200/1/1
f 201/4/1 202/3/1 203/2/1 204/1/1
f 205/13/1 206/14/1 207/6/1 208/5/1
f 209/15/1 210/5/1 211/8/1 212/17/1
f 213/1/1 214/2/1 215/3/1 216/4/1
f 217/1/1 218/2/1 219/3/1 220/4/1
f 221/15/1 222/5/1 223/8/1 224/17/1
f 225/1/1 226/2/1 227/3/1 228/4/1
f 229/1/1 230/2/1 231/3/1 232/4/1
f 233/5/1 234/6/1 235/7/1 236/8/1
f 237/4/1 238/1/1 239/2/1 240/3/1
f 241/9/1 242/10/1 243/11/1 244/12/1
f 245/9/1 246/10/1 247/11/1 248/12/1
f 249/2/1 250/3/1 251/4/1 252/1/1
f 253/16/1 254/13/1 255/5/1 256/15/1
f 257/4/1 258/3/1 259/2/1 260/1/1
f 261/4/1 262/3/1 263/2/1 264/1/1
f 265/13/1 266/14/1 267/6/1 268/5/1
f 269/16/1 270/13/1 271/5/1 272/15/1
f 273/4/1 274/3/1 275/2/1 276/1/1
f 277/4/1 278/3/1 279/2/1 280/1/1
f 281/13/1 282/14/1 283/6/1 284/5/1
f 285/15/1 286/5/1 287/8/1 288/17/1
f 289/1/1 290/2/1 291/3/1 292/4/1
f 293/1/1 294/2/1 295/3/1 296/4/1
f 297/5/1 298/6/1 299/7/1 300/8/1
f 301/16/1 302/13/1 303/5/1 304/15/1
f 305/4/1 306/3/1 307/2/1 308/1/1
f 309/4/1 310/3/1 311/2/1 312/1/1
f 313/13/1 314/14/1 315/6/1 316/5/1
f 317/1/1 318/2/1 319/3/1 320/4/1
f 321/1/1 322/2/1 323/3/1 324/4/1
f 325/1/1 326/2/1 327/3/1 328/4/1
f 329/4/1 330/1/1 331/2/1 332/3/1
f 333/9/1 334/10/1 335/11/1 336/12/1
f 337/9/1 338/10/1 339/11/1 340/12/1
f 341/2/1 342/3/1 343/4/1 344/1/1
f 345/15/1 346/5/1 347/8/1 348/17/1
f 349/1/1 350/2/1 351/3/1 352/4/1
f 353/1/1 354/2/1 355/3/1 356/4/1
f 357/5/1 358/6/1 359/7/1 360/8/1
f 361/4/1 362/1/1 363/2/1 364/3/1
f 365/9/1 366/10/1 367/11/1 368/12/1
f 369/9/1 370/10/1 371/11/1 372/12/1
f 373/2/1 374/3/1 375/4/1 376/1/1
f 377/4/1 378/1/1 379/2/1 380/3/1
f 381/9/1 382/10/1 383/11/1 384/12/1
f 385/9/1 386/10/1 387/11/1 388/12/1
f 389/2/1 390/3/1 391/4/1 392/1/1
f 393/15/1 394/5/1 395/8/1 396/17/1
f 397/1/1 398/2/1 399/3/1 400/4/1
f 401/1/1 402/2/1 403/3/1 404/4/1
f 405/5/1 406/6/1 407/7/1 408/8/1
f 409/4/1 410/1/1 411/2/1 412/3/1
f 413/9/1 414/10/1 415/11/1 416/12/1
f 417/9/1 418/10/1 419/11/1 420/12/1
f 421/2/1 422/3/1 423/4/1 424/1/1
f 425/16/1 426/13/1 427/5/1 428/15/1
f 429/4/1 430/3/1 431/2/1 432/1/1
f 433/4/1 434/3/1 435/2/1 436/1/1
f 437/13/1 438/14/1 439/6/1 440/5/1
f 441/16/1 442/13/1 443/5/1 444/15/1
f 445/4/1 446/3/1 447/2/1 448/1/1
f 449/4/1 450/3/1 451/2/1 452/1/1
f 453/13/1 454/14/1 455/6/1 456/5/1
f 457/16/1 458/13/1 459/5/1 460/15/1
f 461/4/1 462/3/1 463/2/1 464/1/1
f 465/4/1 466/3/1 467/2/1 468/1/1
f 469/13/1 470/14/1 471/6/1 472/5/1
f 473/16/1 474/13/1 475/5/1 476/15/1
f 477/4/1 478/3/1 479/2/1 480/1/1
f 481/4/1 482/3/1 483/2/1 484/1/1
f 485/13/1 486/14/1 487/6/1 488/5/1
f 489/16/1 490/13/1 491/5/1 492/15/1
f 493/4/1 494/3/1 495/2/1 496/1/1
f 497/4/1 498/3/1 499/2/1 500/1/1
f 501/13/1 502/14/1 503/6/1 504/5/1
f 505/16/1 506/13/1 507/5/1 508/15/1
f 509/4/1 510/3/1 511/2/1 512/1/1
f 513/4/1 514/3/1 515/2/1 516/1/1
f 517/13/1 518/14/1 519/6/1 520/5/1

