# Tiled2Unity generated file. Do not modify by hand.
# Wavefront file for 'Dojo_mesh_0011.obj'

# Vertices (Count = 64)
v -20 -9 0
v -21 -9 0
v -21 -8 0
v -20 -8 0
v -21 -9 0
v -22 -9 0
v -22 -8 0
v -21 -8 0
v -28 -9 0
v -29 -9 0
v -29 -8 0
v -28 -8 0
v -29 -9 0
v -30 -9 0
v -30 -8 0
v -29 -8 0
v -20 -10 0
v -21 -10 0
v -21 -9 0
v -20 -9 0
v -21 -10 0
v -22 -10 0
v -22 -9 0
v -21 -9 0
v -28 -10 0
v -29 -10 0
v -29 -9 0
v -28 -9 0
v -29 -10 0
v -30 -10 0
v -30 -9 0
v -29 -9 0
v -22 -18 0
v -23 -18 0
v -23 -17 0
v -22 -17 0
v -23 -18 0
v -24 -18 0
v -24 -17 0
v -23 -17 0
v -26 -18 0
v -27 -18 0
v -27 -17 0
v -26 -17 0
v -27 -18 0
v -28 -18 0
v -28 -17 0
v -27 -17 0
v -22 -19 0
v -23 -19 0
v -23 -18 0
v -22 -18 0
v -23 -19 0
v -24 -19 0
v -24 -18 0
v -23 -18 0
v -26 -19 0
v -27 -19 0
v -27 -18 0
v -26 -18 0
v -27 -19 0
v -28 -19 0
v -28 -18 0
v -27 -18 0

# Texture cooridinates (Count = 26)
vt 0.2307692 0.8333333
vt 0.2692308 0.8333333
vt 0.2692308 0.8888889
vt 0.2307692 0.8888889
vt 0.3076923 0.8333333
vt 0.3076923 0.8888889
vt 0.3076923 0.9444444
vt 0.3461539 0.9444444
vt 0.3461539 1
vt 0.3076923 1
vt 0.3846154 0.9444444
vt 0.3846154 1
vt 0.2307692 0.7777778
vt 0.2692308 0.7777778
vt 0.3076923 0.7777778
vt 0.3461539 0.8888889
vt 0.3846154 0.8888889
vt 0.2307692 0.3888889
vt 0.2692308 0.3888889
vt 0.2692308 0.4444444
vt 0.2307692 0.4444444
vt 0.3076923 0.3888889
vt 0.3076923 0.4444444
vt 0.2307692 0.3333333
vt 0.2692308 0.3333333
vt 0.3076923 0.3333333

# Normal
vn 0 0 -1

# Mesh description
g Dojo_mesh_0011

# Faces
f 1/1/1 2/2/1 3/3/1 4/4/1
f 5/2/1 6/5/1 7/6/1 8/3/1
f 9/7/1 10/8/1 11/9/1 12/10/1
f 13/8/1 14/11/1 15/12/1 16/9/1
f 17/13/1 18/14/1 19/2/1 20/1/1
f 21/14/1 22/15/1 23/5/1 24/2/1
f 25/6/1 26/16/1 27/8/1 28/7/1
f 29/16/1 30/17/1 31/11/1 32/8/1
f 33/18/1 34/19/1 35/20/1 36/21/1
f 37/19/1 38/22/1 39/23/1 40/20/1
f 41/18/1 42/19/1 43/20/1 44/21/1
f 45/19/1 46/22/1 47/23/1 48/20/1
f 49/24/1 50/25/1 51/19/1 52/18/1
f 53/25/1 54/26/1 55/22/1 56/19/1
f 57/24/1 58/25/1 59/19/1 60/18/1
f 61/25/1 62/26/1 63/22/1 64/19/1

